<svg width="1920" height="233" viewBox="0 0 1920 233" fill="none" xmlns="http://www.w3.org/2000/svg">
<g clip-path="url(#clip0_2101_1835)">
<g clip-path="url(#clip1_2101_1835)">
<path d="M1481.66 31.7823C1276.56 -23.7676 1011.93 8.43235 904.667 31.0509C848.438 40.4823 755.804 52.3072 659.767 57.3077H495.922C457.932 54.7153 423.574 49.9017 395.402 42.2716C208.308 -8.40162 64.5129 14.478 -4.10645 25.2081L1.37598 57.3077H-272V146.308H1892V118.496C1914.82 114.081 1934.06 109.325 1948.89 104.864L1924.99 32.0958C1856.85 52.5918 1668.67 82.4336 1481.66 31.7823Z" fill="#F4E1CB"/>
<path d="M1920.57 233H-244V83.5264H1920.57V233Z" fill="#ED972E"/>
<path d="M1018.62 59.5994C911.523 40.3317 647.301 12.9014 442.516 60.2217C255.789 103.369 67.9036 77.9488 -0.13147 60.4892L-24 122.477C54.9744 142.744 259.082 170.14 464.194 122.744C650.661 79.6567 900.364 104.751 1002.31 123.202L1003.17 123.357L1004.03 123.481C1063.56 132.033 1161.3 142.671 1262.5 147.011C1362.51 151.3 1470.79 149.701 1548.78 131.68C1718.33 92.5015 1847.73 110.02 1913.16 118.75L1926 54.6218C1857.49 45.4814 1713.91 25.9911 1527.11 69.1572C1462.55 84.0736 1365.47 86.3581 1266.67 82.1209C1169.53 77.9544 1075.45 67.732 1018.62 59.5994Z" fill="#ED972E"/>
</g>
</g>
<defs>
<clipPath id="clip0_2101_1835">
<rect width="1920" height="233" fill="white"/>
</clipPath>
<clipPath id="clip1_2101_1835">
<rect width="1920" height="246" fill="white" transform="translate(0 -13)"/>
</clipPath>
</defs>
</svg>
