<svg width="394" height="161" viewBox="0 0 394 161" fill="none" xmlns="http://www.w3.org/2000/svg">
<path d="M67.7595 110.121C47.1443 114.946 36.0535 122.629 33.085 125.868C35.2433 126.986 48.7675 122.564 48.6961 121.205C48.6247 119.846 48.8388 118.074 51.5507 118.488C54.2625 118.901 54.2674 123.857 51.9737 128.659C50.1388 132.501 45.003 143.885 42.6644 149.096L76.394 137.593C74.1903 130.558 69.3783 115.214 67.7595 110.121Z" fill="#BEC7B4"/>
<path d="M303.328 110.193C323.944 115.017 335.034 122.7 338.003 125.939C335.845 127.057 322.32 122.635 322.392 121.276C322.463 119.918 322.249 118.145 319.537 118.559C316.825 118.972 316.821 123.929 319.114 128.731C320.949 132.572 326.085 143.956 328.424 149.167L294.694 137.665C296.898 130.629 301.71 115.285 303.328 110.193Z" fill="#BEC7B4"/>
<ellipse cx="184.948" cy="79.1173" rx="30.9048" ry="30.8249" fill="#ED972E"/>
<path d="M295.297 133.355C200.261 106.843 109.147 122.308 75.4695 133.355C73.1281 125.577 67.06 105.206 61.5186 85.9411C165.42 48.0098 270.591 70.1364 310.189 85.9411C306.957 96.4525 299.453 120.651 295.297 133.355Z" fill="white"/>
<path d="M90.3661 135.394L87.2256 130.882C166.198 109.418 253.212 121.448 282.521 130.292C282.282 131.283 281.624 133.69 280.906 135.394C263.496 132.177 211.624 127.915 188.291 127.469C161.918 126.966 115.533 132.019 90.3661 135.394Z" fill="#ED972E"/>
<path d="M121.401 23.4448L128.679 28.6214" stroke="black" stroke-width="2.5" stroke-linecap="round"/>
<path d="M133.602 31.9465L138.706 35.5461" stroke="black" stroke-width="2.5" stroke-linecap="round"/>
<path d="M144.258 39.3518L156.538 47.6343" stroke="black" stroke-width="2.5" stroke-linecap="round"/>
<path d="M147.101 6.97356L151.649 13.7503" stroke="black" stroke-width="2.5" stroke-linecap="round"/>
<path d="M156.197 20.1506L159.495 25.4214" stroke="black" stroke-width="2.5" stroke-linecap="round"/>
<path d="M162.679 30.4096L169.615 41.5161" stroke="black" stroke-width="2.5" stroke-linecap="round"/>
<path d="M186.104 1.9856L186.104 8.31763" stroke="black" stroke-width="2.5" stroke-linecap="round"/>
<path d="M186.104 16.1036V41.0458" stroke="black" stroke-width="2.5" stroke-linecap="round"/>
<path d="M221.468 7.06802L217.602 13.6565" stroke="black" stroke-width="2.5" stroke-linecap="round"/>
<path d="M214.19 19.7747L211.12 24.763" stroke="black" stroke-width="2.5" stroke-linecap="round"/>
<path d="M208.164 30.4096L201.341 41.2337" stroke="black" stroke-width="2.5" stroke-linecap="round"/>
<path d="M250.692 23.5383L244.56 27.5375" stroke="black" stroke-width="2.5" stroke-linecap="round"/>
<path d="M239.548 31.2571L233.635 35.3044" stroke="black" stroke-width="2.5" stroke-linecap="round"/>
<path d="M227.494 39.2572L215.44 47.4458" stroke="black" stroke-width="2.5" stroke-linecap="round"/>
<path d="M269.909 43.2112L261.793 45.5335" stroke="black" stroke-width="2.5" stroke-linecap="round"/>
<path d="M255.354 47.352L248.076 49.6108" stroke="black" stroke-width="2.5" stroke-linecap="round"/>
<path d="M240.117 51.6819L224.879 56.294" stroke="black" stroke-width="2.5" stroke-linecap="round"/>
<path d="M61.6154 107.254C50.5983 110.417 25.5064 119.536 13.2754 130.703C25.8662 127.874 42.5041 124.189 49.2491 122.7C44.9023 130.765 35.8939 149.201 34.6348 158.432C42.5041 154.896 62.2896 144.288 78.253 142.427C75.5549 134.09 66.037 101.236 61.6154 85.8519C88.1942 75.3651 135.28 64.6839 185.2 64.6838C230.745 64.6837 274.985 73.0096 310.283 85.8519C306.458 98.2708 297.124 128.489 292.936 142.046C301.519 144.052 322.321 150.213 336.867 158.804C333.132 147.252 325.073 125.857 322.42 122.441C327.432 123.824 345.319 127.566 356.621 130.413C349.053 124.881 329.889 112.272 309.643 107.391" stroke="black" stroke-width="2.5" stroke-linecap="round" stroke-linejoin="round"/>
<path d="M86.7783 130.441C139.382 114.262 235.725 116.161 284.407 130.441" stroke="black" stroke-width="2.5" stroke-linecap="round"/>
<path d="M101.545 44.4017L110.416 46.7298" stroke="black" stroke-width="2.5" stroke-linecap="round"/>
<path d="M115.716 48.2932L123.794 50.3684" stroke="black" stroke-width="2.5" stroke-linecap="round"/>
<path d="M131.521 52.4338L147.1 57.0459" stroke="black" stroke-width="2.5" stroke-linecap="round"/>
<path d="M134.436 88.8583L155.51 87.1389L155.682 89.2439L134.608 90.9633L134.436 88.8583ZM143.493 85.9521L145.862 85.7589L147.673 107.957L145.305 108.15L143.493 85.9521ZM143.988 99.6854L145.968 100.343C145.474 101.17 144.889 101.98 144.216 102.773C143.541 103.551 142.807 104.293 142.014 105C141.22 105.706 140.398 106.351 139.547 106.935C138.697 107.534 137.84 108.053 136.977 108.493C136.85 108.31 136.681 108.108 136.47 107.884C136.276 107.675 136.066 107.459 135.839 107.237C135.629 107.029 135.439 106.86 135.268 106.73C136.104 106.357 136.943 105.911 137.783 105.393C138.64 104.873 139.46 104.301 140.244 103.675C141.028 103.049 141.737 102.397 142.372 101.72C143.007 101.042 143.546 100.364 143.988 99.6854ZM147.654 99.4586C148.216 100.055 148.873 100.627 149.624 101.176C150.391 101.723 151.212 102.242 152.087 102.733C152.961 103.223 153.863 103.655 154.793 104.029C155.721 104.387 156.643 104.673 157.56 104.887C157.397 105.061 157.222 105.268 157.033 105.508C156.845 105.764 156.665 106.019 156.493 106.274C156.337 106.528 156.204 106.763 156.093 106.981C155.186 106.686 154.257 106.312 153.305 105.86C152.37 105.423 151.446 104.92 150.533 104.353C149.635 103.768 148.789 103.146 147.997 102.489C147.22 101.814 146.513 101.125 145.878 100.422L147.654 99.4586ZM139.463 97.6466L139.621 99.5842L152.179 98.5595L152.021 96.622L139.463 97.6466ZM139.172 94.0825L139.328 95.9961L151.887 94.9715L151.731 93.0578L139.172 94.0825ZM136.807 92.5417L153.886 91.1482L154.618 100.118L137.539 101.512L136.807 92.5417ZM174.956 85.2718L181.192 85.0357L181.269 87.0742L177.048 87.2341L177.765 106.156L175.75 106.233L174.956 85.2718ZM180.736 85.0529L181.168 85.0366L181.5 84.9279L183.096 85.8522C182.723 87.0031 182.306 88.2358 181.843 89.5502C181.396 90.8481 180.953 92.0417 180.514 93.1311C181.579 94.2116 182.29 95.2254 182.646 96.1726C183.002 97.1038 183.195 97.9771 183.226 98.7925C183.255 99.56 183.193 100.235 183.038 100.817C182.884 101.383 182.604 101.818 182.199 102.122C181.996 102.258 181.761 102.379 181.492 102.485C181.24 102.574 180.962 102.649 180.66 102.708C180.39 102.751 180.079 102.786 179.728 102.816C179.392 102.829 179.048 102.834 178.696 102.831C178.668 102.528 178.599 102.178 178.488 101.782C178.392 101.369 178.242 101.015 178.039 100.718C178.36 100.738 178.657 100.751 178.929 100.757C179.217 100.746 179.473 100.728 179.696 100.704C179.871 100.681 180.038 100.651 180.197 100.612C180.355 100.558 180.496 100.497 180.622 100.428C180.824 100.276 180.967 100.039 181.051 99.7155C181.135 99.3921 181.161 99.0308 181.13 98.6317C181.103 97.9122 180.897 97.1275 180.513 96.2774C180.128 95.4114 179.412 94.4778 178.365 93.4767C178.582 92.86 178.805 92.2031 179.035 91.5059C179.28 90.7921 179.51 90.0869 179.724 89.3903C179.937 88.6778 180.135 88.0058 180.32 87.3743C180.504 86.7429 180.652 86.2089 180.763 85.7724L180.736 85.0529ZM161.967 87.2769L173.407 86.8436L173.485 88.9061L162.045 89.3394L161.967 87.2769ZM161.541 93.7777L174.18 93.299L174.258 95.3615L161.619 95.8402L161.541 93.7777ZM163.433 89.8392L165.356 89.262C165.715 89.8569 166.044 90.5089 166.343 91.2181C166.658 91.9267 166.882 92.5506 167.014 93.09L164.974 93.7437C164.857 93.2037 164.649 92.5712 164.349 91.846C164.066 91.1202 163.76 90.4513 163.433 89.8392ZM170.27 89.0039L172.545 89.4461C172.341 89.9982 172.131 90.5746 171.914 91.1752C171.696 91.7599 171.477 92.3206 171.257 92.8573C171.037 93.394 170.823 93.8664 170.614 94.2746L168.677 93.8676C168.885 93.4275 169.09 92.9234 169.292 92.3553C169.495 91.7872 169.681 91.2117 169.851 90.6289C170.021 90.03 170.16 89.4884 170.27 89.0039ZM164.359 103.518L172.37 103.215L172.445 105.205L164.435 105.509L164.359 103.518ZM162.965 97.7826L173.326 97.3902L173.656 106.12L171.402 106.205L171.149 99.5141L165.177 99.7403L165.437 106.599L163.302 106.68L162.965 97.7826ZM165.765 84.8274L167.806 84.1737C168.081 84.6756 168.35 85.2258 168.613 85.8243C168.891 86.4222 169.103 86.9266 169.246 87.3374L167.09 88.1156C166.978 87.6875 166.79 87.1663 166.527 86.5518C166.279 85.9207 166.025 85.3459 165.765 84.8274ZM188.567 89.2805L195.887 89.3236L195.874 91.4596L188.554 91.4165L188.567 89.2805ZM191.359 83.8969L193.495 83.9094L193.402 99.6532L191.266 99.6406L191.359 83.8969ZM188.026 99.6695C188.667 99.4333 189.413 99.1497 190.263 98.8187C191.113 98.4717 192.011 98.1089 192.957 97.7305C193.92 97.3362 194.874 96.9418 195.82 96.5474L196.312 98.5663C195.045 99.1668 193.761 99.7673 192.462 100.368C191.162 100.952 189.983 101.473 188.924 101.931L188.026 99.6695ZM202.496 83.6744L204.632 83.687L204.533 100.487L202.397 100.474L202.496 83.6744ZM195.071 93.4229L207.822 88.1219L208.651 90.0468L195.923 95.4439L195.071 93.4229ZM197.611 85.9257L199.795 85.9386L199.702 101.778C199.699 102.226 199.737 102.571 199.815 102.811C199.894 103.035 200.061 103.188 200.317 103.27C200.588 103.352 200.98 103.394 201.492 103.397C201.636 103.398 201.884 103.399 202.236 103.401C202.588 103.403 202.98 103.406 203.412 103.408C203.86 103.411 204.308 103.413 204.756 103.416C205.204 103.419 205.612 103.421 205.98 103.423C206.348 103.425 206.62 103.427 206.796 103.428C207.244 103.431 207.58 103.345 207.805 103.17C208.047 102.995 208.224 102.677 208.339 102.213C208.454 101.75 208.538 101.078 208.591 100.199C208.846 100.376 209.165 100.546 209.548 100.708C209.947 100.871 210.298 100.985 210.602 101.05C210.499 102.17 210.326 103.049 210.082 103.687C209.839 104.326 209.468 104.78 208.97 105.049C208.489 105.334 207.808 105.474 206.928 105.469C206.784 105.468 206.52 105.467 206.136 105.464C205.768 105.462 205.336 105.46 204.84 105.457C204.36 105.454 203.872 105.451 203.376 105.448C202.896 105.445 202.472 105.443 202.104 105.441C201.736 105.438 201.48 105.437 201.336 105.436C200.36 105.43 199.585 105.322 199.01 105.11C198.451 104.899 198.061 104.521 197.841 103.975C197.62 103.446 197.512 102.701 197.518 101.741L197.611 85.9257ZM207.242 88.7425L206.978 88.7409L207.822 88.1219L209.547 88.6841L209.425 89.0433C209.37 90.163 209.283 91.3626 209.164 92.6419C209.044 93.9212 208.909 95.1764 208.757 96.4075C208.606 97.6227 208.424 98.7016 208.21 99.6444L206.365 99.1055C206.481 98.4662 206.582 97.7308 206.666 96.8992C206.751 96.0517 206.829 95.1562 206.898 94.2126C206.984 93.269 207.053 92.3334 207.107 91.4057C207.16 90.462 207.206 89.5743 207.242 88.7425ZM225.281 90.182L225.168 92.6034L229.986 92.8286L230.099 90.4072L225.281 90.182ZM223.244 88.5251L232.426 88.9543L232.168 94.4682L222.986 94.0391L223.244 88.5251ZM222.176 96.9805L222.029 100.121L224.618 100.242L224.765 97.1015L222.176 96.9805ZM220.356 95.3097L226.805 95.6111L226.51 101.916L220.061 101.615L220.356 95.3097ZM230.015 97.3469L229.869 100.487L232.626 100.616L232.772 97.4757L230.015 97.3469ZM228.195 95.6761L234.836 95.9865L234.541 102.292L227.901 101.981L228.195 95.6761ZM216.114 84.8042L236.444 85.7543L236.349 87.7681L216.02 86.818L216.114 84.8042ZM217.068 84.9449L219.298 85.0491L218.59 100.201C218.557 100.904 218.634 101.476 218.822 101.917C219.01 102.343 219.348 102.663 219.834 102.878C220.321 103.093 220.987 103.22 221.834 103.259C222.09 103.271 222.482 103.29 223.009 103.314C223.537 103.339 224.136 103.367 224.807 103.398C225.494 103.43 226.206 103.464 226.941 103.498C227.692 103.533 228.419 103.567 229.122 103.6C229.826 103.633 230.449 103.662 230.992 103.687C231.552 103.714 231.975 103.733 232.263 103.747C232.727 103.768 233.222 103.784 233.751 103.792C234.279 103.785 234.784 103.777 235.265 103.767C235.763 103.742 236.165 103.713 236.471 103.679C236.495 103.856 236.516 104.09 236.534 104.379C236.553 104.652 236.581 104.918 236.617 105.176C236.653 105.434 236.683 105.651 236.707 105.829C236.448 105.88 236.078 105.911 235.597 105.921C235.115 105.946 234.563 105.945 233.94 105.915C233.332 105.903 232.716 105.882 232.093 105.853C231.805 105.84 231.381 105.82 230.822 105.794C230.263 105.768 229.623 105.738 228.904 105.704C228.201 105.671 227.474 105.637 226.722 105.602C225.987 105.568 225.284 105.535 224.613 105.504C223.941 105.472 223.366 105.445 222.887 105.423C222.423 105.401 222.111 105.387 221.952 105.379C220.641 105.318 219.562 105.107 218.714 104.747C217.865 104.403 217.242 103.846 216.846 103.074C216.466 102.288 216.306 101.247 216.367 99.9525L217.068 84.9449Z" fill="black"/>
</svg>
