<svg width="11" height="12" viewBox="0 0 11 12" fill="none" xmlns="http://www.w3.org/2000/svg">
<path d="M9.29165 1.66668H8.20831V1.12501C8.20831 0.981351 8.15124 0.843576 8.04966 0.741994C7.94808 0.640412 7.8103 0.583344 7.66665 0.583344C7.52299 0.583344 7.38521 0.640412 7.28363 0.741994C7.18205 0.843576 7.12498 0.981351 7.12498 1.12501V1.66668H3.87498V1.12501C3.87498 0.981351 3.81791 0.843576 3.71633 0.741994C3.61475 0.640412 3.47697 0.583344 3.33331 0.583344C3.18965 0.583344 3.05188 0.640412 2.9503 0.741994C2.84871 0.843576 2.79165 0.981351 2.79165 1.12501V1.66668H1.70831C1.27734 1.66668 0.864011 1.83788 0.559264 2.14263C0.254518 2.44737 0.083313 2.8607 0.083313 3.29168V9.79168C0.083313 10.2227 0.254518 10.636 0.559264 10.9407C0.864011 11.2455 1.27734 11.4167 1.70831 11.4167H9.29165C9.72262 11.4167 10.1359 11.2455 10.4407 10.9407C10.7454 10.636 10.9166 10.2227 10.9166 9.79168V3.29168C10.9166 2.8607 10.7454 2.44737 10.4407 2.14263C10.1359 1.83788 9.72262 1.66668 9.29165 1.66668ZM9.83331 9.79168C9.83331 9.93534 9.77624 10.0731 9.67466 10.1747C9.57308 10.2763 9.4353 10.3333 9.29165 10.3333H1.70831C1.56465 10.3333 1.42688 10.2763 1.3253 10.1747C1.22371 10.0731 1.16665 9.93534 1.16665 9.79168V6.00001H9.83331V9.79168ZM9.83331 4.91668H1.16665V3.29168C1.16665 3.14802 1.22371 3.01024 1.3253 2.90866C1.42688 2.80708 1.56465 2.75001 1.70831 2.75001H2.79165V3.29168C2.79165 3.43534 2.84871 3.57311 2.9503 3.67469C3.05188 3.77627 3.18965 3.83334 3.33331 3.83334C3.47697 3.83334 3.61475 3.77627 3.71633 3.67469C3.81791 3.57311 3.87498 3.43534 3.87498 3.29168V2.75001H7.12498V3.29168C7.12498 3.43534 7.18205 3.57311 7.28363 3.67469C7.38521 3.77627 7.52299 3.83334 7.66665 3.83334C7.8103 3.83334 7.94808 3.77627 8.04966 3.67469C8.15124 3.57311 8.20831 3.43534 8.20831 3.29168V2.75001H9.29165C9.4353 2.75001 9.57308 2.80708 9.67466 2.90866C9.77624 3.01024 9.83331 3.14802 9.83331 3.29168V4.91668Z" fill="white"/>
</svg>
