<svg width="28" height="25" viewBox="0 0 28 25" fill="none" xmlns="http://www.w3.org/2000/svg">
<mask id="path-1-outside-1_1_790" maskUnits="userSpaceOnUse" x="0.75" y="0.25" width="27" height="24" fill="black">
<rect fill="white" x="0.75" y="0.25" width="27" height="24"/>
<path d="M14 6C14 6 14 6 13.05 4.75C11.95 3.3 10.325 2.25 8.375 2.25C5.2625 2.25 2.75 4.7625 2.75 7.875C2.75 9.0375 3.1 10.1125 3.7 11C4.7125 12.5125 14 22.25 14 22.25M14 6C14 6 14 6 14.95 4.75C16.05 3.3 17.675 2.25 19.625 2.25C22.7375 2.25 25.25 4.7625 25.25 7.875C25.25 9.0375 24.9 10.1125 24.3 11C23.2875 12.5125 14 22.25 14 22.25"/>
</mask>
<path d="M14 6C14 6 14 6 13.05 4.75C11.95 3.3 10.325 2.25 8.375 2.25C5.2625 2.25 2.75 4.7625 2.75 7.875C2.75 9.0375 3.1 10.1125 3.7 11C4.7125 12.5125 14 22.25 14 22.25M14 6C14 6 14 6 14.95 4.75C16.05 3.3 17.675 2.25 19.625 2.25C22.7375 2.25 25.25 4.7625 25.25 7.875C25.25 9.0375 24.9 10.1125 24.3 11C23.2875 12.5125 14 22.25 14 22.25" fill="#ED972E"/>
<path d="M14 6C14 6 14 6 13.05 4.75C11.95 3.3 10.325 2.25 8.375 2.25C5.2625 2.25 2.75 4.7625 2.75 7.875C2.75 9.0375 3.1 10.1125 3.7 11C4.7125 12.5125 14 22.25 14 22.25M14 6C14 6 14 6 14.95 4.75C16.05 3.3 17.675 2.25 19.625 2.25C22.7375 2.25 25.25 4.7625 25.25 7.875C25.25 9.0375 24.9 10.1125 24.3 11C23.2875 12.5125 14 22.25 14 22.25" stroke="#ED972E" stroke-width="4" stroke-linecap="round" stroke-linejoin="round" mask="url(#path-1-outside-1_1_790)"/>
</svg>
