<svg width="358" height="164" viewBox="0 0 358 164" fill="none" xmlns="http://www.w3.org/2000/svg">
<path d="M63.3367 113.58C42.7214 118.405 31.6306 126.088 28.6621 129.326C30.8205 130.445 44.3446 126.022 44.2733 124.664C44.2019 123.305 44.416 121.533 47.1278 121.946C49.8396 122.36 49.8445 127.316 47.5509 132.118C45.716 135.96 40.5801 147.343 38.2415 152.555L71.9711 141.052C69.7675 134.017 64.9554 118.672 63.3367 113.58Z" fill="#BEC7B4"/>
<path d="M298.905 113.651C319.521 118.476 330.612 126.159 333.58 129.398C331.422 130.516 317.898 126.093 317.969 124.735C318.04 123.376 317.826 121.604 315.114 122.018C312.403 122.431 312.398 127.387 314.691 132.189C316.526 136.031 321.662 147.415 324.001 152.626L290.271 141.123C292.475 134.088 297.287 118.744 298.905 113.651Z" fill="#BEC7B4"/>
<ellipse cx="180.525" cy="82.5759" rx="30.9048" ry="30.8249" fill="#ED972E"/>
<path d="M290.874 136.814C195.839 110.301 104.724 125.767 71.0467 136.814C68.7053 129.036 62.6371 108.664 57.0957 89.3999C160.997 51.4686 266.168 73.5952 305.766 89.3999C302.534 99.9112 295.03 124.11 290.874 136.814Z" fill="white"/>
<path d="M85.9433 138.853L82.8027 134.341C161.775 112.876 248.789 124.907 278.098 133.751C277.859 134.741 277.201 137.148 276.483 138.853C259.073 135.635 207.201 131.374 183.868 130.928C157.495 130.424 111.111 135.478 85.9433 138.853Z" fill="#ED972E"/>
<path d="M116.979 26.9033L124.256 32.08" stroke="black" stroke-width="2.5" stroke-linecap="round"/>
<path d="M129.179 35.4053L134.283 39.0049" stroke="black" stroke-width="2.5" stroke-linecap="round"/>
<path d="M139.835 42.8105L152.116 51.093" stroke="black" stroke-width="2.5" stroke-linecap="round"/>
<path d="M142.678 10.4321L147.226 17.2089" stroke="black" stroke-width="2.5" stroke-linecap="round"/>
<path d="M151.774 23.6094L155.072 28.8802" stroke="black" stroke-width="2.5" stroke-linecap="round"/>
<path d="M158.256 33.8682L165.192 44.9746" stroke="black" stroke-width="2.5" stroke-linecap="round"/>
<path d="M181.681 5.44434L181.681 11.7764" stroke="black" stroke-width="2.5" stroke-linecap="round"/>
<path d="M181.681 19.5625V44.5047" stroke="black" stroke-width="2.5" stroke-linecap="round"/>
<path d="M217.045 10.5269L213.179 17.1154" stroke="black" stroke-width="2.5" stroke-linecap="round"/>
<path d="M209.767 23.2334L206.697 28.2218" stroke="black" stroke-width="2.5" stroke-linecap="round"/>
<path d="M203.741 33.8682L196.918 44.6922" stroke="black" stroke-width="2.5" stroke-linecap="round"/>
<path d="M246.269 26.9971L240.137 30.9962" stroke="black" stroke-width="2.5" stroke-linecap="round"/>
<path d="M235.125 34.7158L229.212 38.7631" stroke="black" stroke-width="2.5" stroke-linecap="round"/>
<path d="M223.071 42.7158L211.018 50.9044" stroke="black" stroke-width="2.5" stroke-linecap="round"/>
<path d="M265.486 46.6699L257.37 48.9922" stroke="black" stroke-width="2.5" stroke-linecap="round"/>
<path d="M250.931 50.8105L243.653 53.0694" stroke="black" stroke-width="2.5" stroke-linecap="round"/>
<path d="M235.694 55.1406L220.456 59.7527" stroke="black" stroke-width="2.5" stroke-linecap="round"/>
<path d="M57.1925 110.712C46.1755 113.876 21.0836 122.995 8.85254 134.161C21.4434 131.333 38.0812 127.648 44.8263 126.159C40.4795 134.223 31.471 152.66 30.212 161.891C38.0812 158.355 57.8668 147.747 73.8301 145.886C71.1321 137.548 61.6142 104.695 57.1925 89.3107C83.7713 78.8239 130.857 68.1427 180.777 68.1426C226.322 68.1425 270.562 76.4683 305.861 89.3107C302.035 101.73 292.701 131.948 288.513 145.505C297.096 147.511 317.898 153.672 332.444 162.262C328.709 150.711 320.65 129.316 317.997 125.899C323.009 127.282 340.896 131.024 352.198 133.872C344.631 128.34 325.466 115.731 305.22 110.85" stroke="black" stroke-width="2.5" stroke-linecap="round" stroke-linejoin="round"/>
<path d="M82.3555 133.9C134.959 117.721 231.302 119.62 279.984 133.9" stroke="black" stroke-width="2.5" stroke-linecap="round"/>
<path d="M97.1221 47.8604L105.993 50.1885" stroke="black" stroke-width="2.5" stroke-linecap="round"/>
<path d="M111.293 51.752L119.371 53.8271" stroke="black" stroke-width="2.5" stroke-linecap="round"/>
<path d="M127.099 55.8926L142.677 60.5047" stroke="black" stroke-width="2.5" stroke-linecap="round"/>
<path d="M122.805 88.6621L129.003 87.9363L129.24 89.9625L125.045 90.4538L127.247 109.261L125.245 109.496L122.805 88.6621ZM128.55 87.9894L128.979 87.9391L129.302 87.8047L130.965 88.6006C130.684 89.7772 130.365 91.039 130.007 92.3857C129.663 93.7147 129.316 94.9395 128.964 96.06C130.111 97.0533 130.899 98.0081 131.329 98.9244C131.756 99.8248 132.018 100.68 132.113 101.491C132.202 102.253 132.193 102.931 132.085 103.524C131.975 104.1 131.73 104.556 131.351 104.89C131.159 105.042 130.934 105.181 130.675 105.308C130.43 105.417 130.159 105.513 129.863 105.596C129.596 105.66 129.289 105.72 128.942 105.777C128.608 105.816 128.265 105.848 127.914 105.873C127.862 105.573 127.766 105.23 127.624 104.843C127.496 104.44 127.319 104.098 127.093 103.818C127.415 103.813 127.712 103.802 127.984 103.786C128.27 103.753 128.523 103.715 128.744 103.673C128.916 103.637 129.081 103.594 129.236 103.543C129.389 103.477 129.526 103.405 129.645 103.326C129.835 103.159 129.959 102.911 130.017 102.582C130.075 102.253 130.073 101.891 130.011 101.495C129.927 100.78 129.66 100.014 129.21 99.1967C128.758 98.3636 127.971 97.4892 126.849 96.5735C127.017 95.9417 127.187 95.2693 127.362 94.5561C127.55 93.8253 127.723 93.1042 127.882 92.393C128.038 91.6659 128.183 90.9803 128.317 90.3364C128.451 89.6924 128.557 89.1484 128.634 88.7045L128.55 87.9894ZM110.014 91.6824L121.384 90.3509L121.624 92.4009L110.254 93.7324L110.014 91.6824ZM110.1 98.1966L122.662 96.7255L122.902 98.7755L110.34 100.247L110.1 98.1966ZM111.677 94.1215L113.549 93.3949C113.953 93.9597 114.332 94.5838 114.686 95.2673C115.056 95.9489 115.328 96.5533 115.503 97.0806L113.52 97.8928C113.361 97.3636 113.104 96.7494 112.748 96.05C112.408 95.3488 112.051 94.706 111.677 94.1215ZM118.427 92.7511L120.729 93.0131C120.57 93.5795 120.406 94.1706 120.236 94.7865C120.065 95.3865 119.891 95.9627 119.714 96.515C119.537 97.0673 119.36 97.5552 119.184 97.9785L117.221 97.7251C117.394 97.27 117.558 96.7513 117.716 96.169C117.873 95.5868 118.014 94.9984 118.137 94.404C118.259 93.7937 118.356 93.2427 118.427 92.7511ZM113.676 107.685L121.637 106.753L121.869 108.731L113.908 109.664L113.676 107.685ZM111.835 102.077L122.133 100.871L123.149 109.548L120.908 109.81L120.129 103.16L114.194 103.855L114.992 110.672L112.871 110.921L111.835 102.077ZM113.607 88.9418L115.59 88.1297C115.904 88.6084 116.216 89.1358 116.525 89.7117C116.85 90.2858 117.1 90.772 117.275 91.1703L115.187 92.1156C115.042 91.6977 114.813 91.1928 114.502 90.601C114.205 89.9914 113.907 89.4383 113.607 88.9418ZM147.352 104.629L155.752 104.002L155.885 105.773L147.484 106.4L147.352 104.629ZM147.623 91.4923L155.354 90.9156L155.48 92.6148L147.75 93.1916L147.623 91.4923ZM145.505 100.194L156.945 99.3405L157.489 106.64L155.264 106.806L154.851 101.278L147.791 101.804L148.203 107.333L146.049 107.494L145.505 100.194ZM147.666 93.0294C148.302 93.6077 149.056 94.145 149.928 94.6416C150.814 95.121 151.777 95.5545 152.817 95.9423C153.872 96.3288 154.964 96.6565 156.091 96.9254C157.233 97.1771 158.37 97.365 159.502 97.4891C159.296 97.7292 159.079 98.0502 158.852 98.4522C158.624 98.8382 158.441 99.1808 158.303 99.4799C157.134 99.2943 155.968 99.0364 154.804 98.7061C153.656 98.3746 152.543 97.9762 151.466 97.5111C150.403 97.0289 149.4 96.486 148.456 95.8825C147.529 95.2779 146.701 94.6176 145.974 93.9017L147.666 93.0294ZM154.899 90.9495L155.306 90.9191L155.682 90.7948L157.158 91.5511C156.583 92.6689 155.826 93.6961 154.885 94.6327C153.96 95.5682 152.909 96.4247 151.731 97.2025C150.569 97.9631 149.344 98.6401 148.056 99.2336C146.785 99.8258 145.515 100.33 144.246 100.745C144.114 100.482 143.924 100.184 143.674 99.8493C143.439 99.4978 143.21 99.2181 142.986 99.0102C144.18 98.6804 145.384 98.2537 146.596 97.73C147.809 97.2064 148.959 96.6071 150.048 95.9322C151.137 95.2573 152.102 94.5355 152.943 93.7668C153.799 92.981 154.459 92.1535 154.924 91.2846L154.899 90.9495ZM137.947 106.317C138.36 105.821 138.814 105.242 139.31 104.579C139.805 103.9 140.312 103.181 140.833 102.42C141.354 101.659 141.844 100.916 142.304 100.192L143.789 101.718C143.39 102.389 142.953 103.088 142.478 103.813C142.017 104.522 141.548 105.23 141.072 105.94C140.611 106.648 140.156 107.316 139.705 107.943L137.947 106.317ZM138.014 92.3777L139.192 90.7495C139.641 90.9567 140.131 91.1849 140.663 91.434C141.195 91.6831 141.712 91.9334 142.212 92.1849C142.727 92.4192 143.151 92.6282 143.486 92.8118L142.272 94.6111C141.954 94.4263 141.544 94.2081 141.044 93.9567C140.543 93.6892 140.025 93.415 139.491 93.134C138.956 92.8529 138.464 92.6009 138.014 92.3777ZM136.783 97.1626L137.985 95.5326C138.448 95.7227 138.946 95.9423 139.478 96.1914C140.026 96.4393 140.55 96.689 141.05 96.9405C141.549 97.176 141.966 97.3936 142.302 97.5931L141.067 99.4181C140.747 99.2174 140.336 98.9833 139.835 98.7158C139.35 98.4472 138.84 98.1803 138.307 97.9153C137.773 97.6342 137.265 97.3834 136.783 97.1626ZM147.638 89.7584L149.874 90.0489C149.223 91.2205 148.446 92.4097 147.541 93.6163C146.635 94.807 145.572 95.9373 144.352 97.007C144.16 96.7967 143.894 96.5678 143.555 96.3204C143.215 96.057 142.92 95.8704 142.671 95.7606C143.838 94.8393 144.838 93.8421 145.673 92.769C146.522 91.6788 147.177 90.6753 147.638 89.7584ZM141.498 85.5235L143.7 85.3592L144.1 90.7203L141.898 90.8846L141.498 85.5235ZM150.306 84.8664L152.531 84.7003L152.931 90.0614L150.706 90.2275L150.306 84.8664ZM136.608 87.4045L146.565 86.6617L146.715 88.6721L136.758 89.4149L136.608 87.4045ZM147.785 86.5706L157.718 85.8296L157.866 87.8161L147.934 88.5571L147.785 86.5706ZM175.81 86.1066L182.383 85.8919L182.446 87.8348L175.874 88.0496L175.81 86.1066ZM173.837 97.0009L184.104 96.6654L184.391 105.469L182.209 105.54L181.984 98.6557L176.011 98.8509L176.239 105.831L174.128 105.9L173.837 97.0009ZM174.92 102.945L183.291 102.671L183.356 104.638L174.984 104.912L174.92 102.945ZM176.229 83.4996L178.407 84.0047C178.011 85.1062 177.526 86.1787 176.951 87.222C176.393 88.2488 175.776 89.2054 175.1 90.092C174.441 90.978 173.754 91.7608 173.04 92.4405C172.907 92.3008 172.734 92.1383 172.52 91.9532C172.305 91.7681 172.075 91.5836 171.829 91.3995C171.599 91.2149 171.394 91.0695 171.215 90.9633C172.29 90.0797 173.271 88.9751 174.156 87.6495C175.041 86.3239 175.732 84.9406 176.229 83.4996ZM181.783 85.9114L182.167 85.8989L182.572 85.7896L184.009 86.415C183.546 87.9349 182.92 89.3322 182.129 90.6067C181.353 91.8647 180.446 92.9989 179.406 94.0094C178.383 95.0194 177.259 95.9125 176.036 96.6889C174.828 97.4488 173.576 98.082 172.28 98.5886C172.143 98.3209 171.941 98.0074 171.673 97.6479C171.421 97.288 171.18 97.0077 170.949 96.8071C172.152 96.3836 173.319 95.8332 174.449 95.1559C175.596 94.4781 176.651 93.6912 177.614 92.7953C178.593 91.8828 179.44 90.8866 180.158 89.8066C180.874 88.7106 181.42 87.5322 181.795 86.2713L181.783 85.9114ZM175.809 87.5235C176.356 88.6101 177.112 89.698 178.076 90.7871C179.056 91.8597 180.233 92.8378 181.606 93.7214C182.979 94.589 184.538 95.2505 186.282 95.7057C186.142 95.8544 185.98 96.0438 185.796 96.2739C185.627 96.5035 185.467 96.7409 185.315 96.986C185.179 97.2306 185.058 97.4506 184.952 97.6462C183.189 97.0795 181.603 96.3149 180.195 95.3524C178.786 94.3739 177.574 93.2929 176.559 92.1094C175.559 90.9094 174.76 89.7189 174.161 88.5378L175.809 87.5235ZM163.706 88.9995L172.198 88.722L172.267 90.8329L163.775 91.1104L163.706 88.9995ZM166.947 83.8269L169.106 83.7564L169.833 105.992L167.674 106.063L166.947 83.8269ZM167.11 90.281L168.492 90.6921C168.332 91.6579 168.117 92.6654 167.847 93.7148C167.592 94.7477 167.297 95.7658 166.962 96.7693C166.643 97.7723 166.281 98.7046 165.877 99.5663C165.489 100.427 165.081 101.169 164.653 101.791C164.547 101.491 164.376 101.152 164.139 100.776C163.902 100.383 163.683 100.054 163.483 99.7886C163.881 99.2473 164.269 98.6103 164.645 97.8776C165.021 97.1289 165.363 96.3253 165.671 95.4668C165.995 94.6078 166.279 93.742 166.522 92.8696C166.765 91.9812 166.961 91.1183 167.11 90.281ZM169.245 91.6761C169.393 91.8153 169.617 92.0481 169.916 92.3745C170.231 92.7004 170.555 93.058 170.888 93.4473C171.236 93.8362 171.552 94.194 171.835 94.521C172.134 94.8474 172.334 95.089 172.435 95.2458L171.22 97.0144C171.067 96.7312 170.856 96.394 170.587 96.0025C170.334 95.6106 170.056 95.2034 169.754 94.7811C169.453 94.3587 169.167 93.9598 168.899 93.5844C168.631 93.2089 168.405 92.9122 168.222 92.694L169.245 91.6761ZM199.693 103.335L199.895 88.5961L204.475 88.6588C205.474 88.6725 206.359 88.8046 207.129 89.0552C207.913 89.3059 208.521 89.701 208.953 90.2403C209.4 90.7664 209.617 91.4695 209.605 92.3494C209.598 92.8293 209.505 93.2815 209.326 93.7057C209.16 94.1301 208.922 94.5069 208.61 94.836C208.299 95.1518 207.916 95.3799 207.461 95.5203L207.46 95.6203C208.297 95.8051 208.985 96.1946 209.524 96.7887C210.062 97.3695 210.325 98.1598 210.311 99.1597C210.298 100.133 210.04 100.936 209.538 101.569C209.05 102.203 208.376 102.674 207.519 102.982C206.675 103.277 205.706 103.417 204.613 103.402L199.693 103.335ZM202.13 94.7873L204.11 94.8144C205.23 94.8297 206.039 94.6408 206.538 94.2476C207.05 93.8546 207.311 93.3181 207.32 92.6381C207.331 91.8782 207.078 91.3347 206.563 91.0076C206.047 90.6672 205.27 90.4899 204.23 90.4756L202.19 90.4477L202.13 94.7873ZM202.038 101.547L204.378 101.579C205.524 101.594 206.414 101.393 207.046 100.975C207.692 100.557 208.021 99.9017 208.033 99.0085C208.044 98.1819 207.739 97.5777 207.118 97.1958C206.51 96.8008 205.619 96.5952 204.446 96.5792L202.106 96.5471L202.038 101.547ZM217.334 103.931C216.774 103.912 216.332 103.785 216.006 103.547C215.68 103.296 215.451 102.955 215.319 102.524C215.186 102.08 215.13 101.564 215.149 100.978L215.583 87.6449L217.882 87.7198L217.444 101.173C217.434 101.479 217.48 101.701 217.582 101.838C217.698 101.961 217.823 102.026 217.956 102.03C218.01 102.032 218.063 102.033 218.116 102.035C218.17 102.023 218.25 102.013 218.357 102.003L218.58 103.751C218.445 103.8 218.277 103.841 218.076 103.875C217.875 103.922 217.627 103.94 217.334 103.931ZM227.665 104.372C226.759 104.327 225.918 104.058 225.142 103.565C224.379 103.06 223.773 102.369 223.323 101.492C222.887 100.603 222.699 99.5522 222.759 98.3403C222.82 97.1152 223.111 96.0884 223.633 95.26C224.169 94.419 224.841 93.7916 225.649 93.378C226.471 92.965 227.335 92.7811 228.24 92.8262C228.906 92.8594 229.545 93.0247 230.158 93.3222C230.771 93.6064 231.305 94.0068 231.76 94.5234C232.215 95.0401 232.564 95.6649 232.808 96.3979C233.053 97.1176 233.152 97.9369 233.106 98.8558C233.046 100.068 232.748 101.094 232.212 101.935C231.69 102.764 231.025 103.391 230.216 103.818C229.421 104.232 228.57 104.417 227.665 104.372ZM227.76 102.454C228.333 102.483 228.834 102.348 229.262 102.049C229.705 101.75 230.053 101.32 230.308 100.759C230.564 100.184 230.711 99.5107 230.749 98.7384C230.787 97.966 230.708 97.2879 230.51 96.704C230.313 96.1067 230.009 95.6377 229.599 95.2969C229.203 94.9434 228.718 94.7524 228.146 94.7239C227.56 94.6947 227.045 94.8359 226.603 95.1476C226.174 95.4467 225.832 95.8835 225.576 96.4582C225.321 97.0195 225.174 97.6864 225.136 98.4587C225.097 99.2311 225.177 99.9159 225.374 100.513C225.572 101.097 225.869 101.559 226.266 101.899C226.676 102.24 227.174 102.425 227.76 102.454ZM241.176 109.827C240.298 109.764 239.522 109.595 238.846 109.32C238.17 109.057 237.648 108.699 237.279 108.245C236.924 107.792 236.769 107.246 236.815 106.608C236.848 106.142 237.019 105.713 237.328 105.321C237.637 104.929 238.055 104.598 238.582 104.328L238.588 104.248C238.322 104.042 238.099 103.786 237.921 103.479C237.757 103.159 237.69 102.78 237.721 102.342C237.753 101.903 237.907 101.519 238.185 101.192C238.476 100.852 238.783 100.586 239.104 100.395L239.11 100.315C238.745 99.9952 238.434 99.572 238.178 99.0457C237.921 98.5194 237.816 97.9304 237.863 97.2787C237.922 96.4542 238.165 95.7631 238.593 95.2055C239.035 94.6356 239.586 94.2205 240.246 93.9603C240.919 93.701 241.635 93.5985 242.393 93.6527C242.712 93.6756 243.003 93.7231 243.265 93.7953C243.542 93.8552 243.777 93.9321 243.971 94.0262L247.861 94.3045L247.737 96.04L245.662 95.8916C245.845 96.132 245.991 96.4298 246.099 96.7851C246.207 97.1404 246.247 97.5242 246.217 97.9365C246.16 98.7344 245.925 99.406 245.512 99.9513C245.113 100.484 244.59 100.881 243.943 101.142C243.297 101.39 242.595 101.487 241.837 101.433C241.597 101.416 241.34 101.371 241.064 101.297C240.803 101.212 240.556 101.114 240.324 101.004C240.14 101.138 239.982 101.287 239.85 101.451C239.732 101.616 239.663 101.832 239.644 102.098C239.621 102.417 239.729 102.686 239.967 102.903C240.219 103.122 240.697 103.256 241.402 103.307L243.437 103.452C244.727 103.544 245.689 103.827 246.324 104.3C246.959 104.76 247.244 105.456 247.177 106.386C247.127 107.091 246.848 107.72 246.34 108.272C245.833 108.823 245.135 109.241 244.246 109.525C243.37 109.81 242.347 109.911 241.176 109.827ZM241.944 99.9367C242.316 99.9633 242.669 99.8949 243.001 99.7316C243.334 99.5682 243.605 99.3203 243.816 98.9878C244.028 98.6421 244.152 98.2232 244.187 97.7311C244.222 97.239 244.158 96.8201 243.996 96.4743C243.835 96.1152 243.601 95.8311 243.295 95.6221C243.003 95.414 242.663 95.2962 242.278 95.2686C241.892 95.241 241.533 95.3089 241.2 95.4722C240.881 95.6366 240.616 95.8849 240.405 96.2174C240.195 96.5366 240.073 96.9422 240.037 97.4343C240.002 97.9263 240.065 98.3586 240.225 98.731C240.4 99.091 240.634 99.3751 240.926 99.5832C241.232 99.7922 241.571 99.91 241.944 99.9367ZM241.604 108.334C242.255 108.38 242.821 108.327 243.299 108.174C243.778 108.021 244.162 107.802 244.449 107.515C244.736 107.241 244.892 106.938 244.916 106.606C244.949 106.14 244.799 105.809 244.465 105.611C244.131 105.427 243.631 105.311 242.966 105.263L241.311 105.145C241.045 105.126 240.793 105.094 240.555 105.051C240.318 105.007 240.081 104.95 239.846 104.88C239.509 105.096 239.258 105.339 239.092 105.608C238.926 105.876 238.833 106.144 238.814 106.41C238.776 106.942 239.005 107.379 239.502 107.722C239.999 108.065 240.699 108.269 241.604 108.334Z" fill="black"/>
</svg>
