<svg width="8" height="11" viewBox="0 0 8 11" fill="none" xmlns="http://www.w3.org/2000/svg">
<path d="M7.23996 5.01125C7.10856 4.82792 6.94859 4.66902 6.80004 4.51013C6.41726 4.14345 5.98305 3.88067 5.6174 3.49566C4.76613 2.60341 4.57759 1.13059 5.12035 0C4.57759 0.14056 4.10339 0.458346 3.69776 0.80669C2.21803 2.07784 1.63528 4.32068 2.33229 6.24573C2.35514 6.30685 2.378 6.36796 2.378 6.44741C2.378 6.58185 2.2923 6.70408 2.17803 6.75297C2.04663 6.81408 1.90951 6.77742 1.80096 6.67963C1.76853 6.65058 1.74142 6.61536 1.72097 6.57574C1.07538 5.70183 0.97254 4.44902 1.40675 3.44676C0.452635 4.2779 -0.0672695 5.6835 0.00700257 7.00964C0.041282 7.31521 0.0755614 7.62077 0.172686 7.92634C0.252672 8.29301 0.406929 8.65969 0.578327 8.98359C1.19536 10.0408 2.26373 10.7986 3.41209 10.9514C4.63473 11.1164 5.94306 10.8781 6.88003 9.97362C7.92555 8.95914 8.2912 7.33354 7.75415 5.94017L7.67988 5.78128C7.55991 5.50016 7.23996 5.01125 7.23996 5.01125ZM5.43458 8.86136C5.27461 9.00803 5.0118 9.16693 4.80612 9.22804C4.16624 9.47249 3.52636 9.13026 3.14928 8.72692C3.82916 8.5558 4.2348 8.01801 4.35478 7.4741C4.4519 6.9852 4.26908 6.58185 4.19481 6.11129C4.12625 5.65905 4.13767 5.27404 4.29193 4.85236C4.40048 5.08459 4.51475 5.31682 4.65187 5.50016C5.09179 6.11129 5.78309 6.38018 5.93163 7.21132C5.95448 7.29687 5.96591 7.38243 5.96591 7.4741C5.98305 7.97523 5.77737 8.52524 5.43458 8.86136Z" fill="white"/>
</svg>
