<svg width="1740" height="69" viewBox="0 0 1740 69" fill="none" xmlns="http://www.w3.org/2000/svg">
<rect x="0.73877" y="0.446289" width="32.0174" height="30" rx="10" fill="#DEBFA0"/>
<rect x="32.7563" y="38.6807" width="32.0174" height="30" rx="10" fill="#DEBFA0"/>
<rect x="71.5376" y="0.446289" width="32.0174" height="30" rx="10" fill="#DEBFA0"/>
<rect x="103.555" y="38.6807" width="32.0174" height="30" rx="10" fill="#DEBFA0"/>
<rect x="141.263" y="0.446289" width="32.0174" height="30" rx="10" fill="#DEBFA0"/>
<rect x="173.281" y="38.6807" width="32.0174" height="30" rx="10" fill="#ED972E"/>
<rect x="210.989" y="0.446289" width="32.0174" height="30" rx="10" fill="#DEBFA0"/>
<rect x="243.006" y="38.6807" width="32.0174" height="30" rx="10" fill="#DEBFA0"/>
<rect x="280.714" y="0.446289" width="32.0174" height="30" rx="10" fill="#DEBFA0"/>
<rect x="312.732" y="38.6807" width="32.0174" height="30" rx="10" fill="#BEC7B4"/>
<rect x="350.44" y="0.446289" width="32.0174" height="30" rx="10" fill="#DEBFA0"/>
<rect x="382.458" y="38.6807" width="32.0174" height="30" rx="10" fill="#DEBFA0"/>
<rect x="420.166" y="0.446289" width="32.0174" height="30" rx="10" fill="#BEC7B4"/>
<rect x="452.183" y="38.6807" width="32.0174" height="30" rx="10" fill="#ED972E"/>
<rect x="489.891" y="0.446289" width="32.0174" height="30" rx="10" fill="#ED972E"/>
<rect x="521.909" y="38.6807" width="32.0174" height="30" rx="10" fill="#DEBFA0"/>
<rect x="559.617" y="0.446289" width="32.0174" height="30" rx="10" fill="#DEBFA0"/>
<rect x="591.634" y="38.6807" width="32.0174" height="30" rx="10" fill="#ED972E"/>
<rect x="629.342" y="0.446289" width="32.0174" height="30" rx="10" fill="#BEC7B4"/>
<rect x="661.36" y="38.6807" width="32.0174" height="30" rx="10" fill="#DEBFA0"/>
<rect x="699.068" y="0.446289" width="32.0174" height="30" rx="10" fill="#DEBFA0"/>
<rect x="731.085" y="38.6807" width="32.0174" height="30" rx="10" fill="#DEBFA0"/>
<rect x="768.793" y="0.446289" width="32.0174" height="30" rx="10" fill="#DEBFA0"/>
<rect x="800.811" y="38.6807" width="32.0174" height="30" rx="10" fill="#DEBFA0"/>
<rect x="838.519" y="0.446289" width="32.0174" height="30" rx="10" fill="#ED972E"/>
<rect x="870.537" y="38.6807" width="32.0174" height="30" rx="10" fill="#DEBFA0"/>
<rect x="908.245" y="0.446289" width="32.0174" height="30" rx="10" fill="#BEC7B4"/>
<rect x="940.262" y="38.6807" width="32.0174" height="30" rx="10" fill="#DEBFA0"/>
<rect x="977.97" y="0.446289" width="32.0174" height="30" rx="10" fill="#DEBFA0"/>
<rect x="1009.99" y="38.6807" width="32.0174" height="30" rx="10" fill="#DEBFA0"/>
<rect x="1047.7" y="0.446289" width="32.0174" height="30" rx="10" fill="#DEBFA0"/>
<rect x="1079.71" y="38.6807" width="32.0174" height="30" rx="10" fill="#ED972E"/>
<rect x="1117.42" y="0.446289" width="32.0174" height="30" rx="10" fill="#DEBFA0"/>
<rect x="1149.44" y="38.6807" width="32.0174" height="30" rx="10" fill="#BEC7B4"/>
<rect x="1187.15" y="0.446289" width="32.0174" height="30" rx="10" fill="#DEBFA0"/>
<rect x="1219.16" y="38.6807" width="32.0174" height="30" rx="10" fill="#DEBFA0"/>
<rect x="1256.87" y="0.446289" width="32.0174" height="30" rx="10" fill="#ED972E"/>
<rect x="1288.89" y="38.6807" width="32.0174" height="30" rx="10" fill="#DEBFA0"/>
<rect x="1326.6" y="0.446289" width="32.0174" height="30" rx="10" fill="#DEBFA0"/>
<rect x="1358.62" y="38.6807" width="32.0174" height="30" rx="10" fill="#DEBFA0"/>
<rect x="1396.32" y="0.446289" width="32.0174" height="30" rx="10" fill="#DEBFA0"/>
<rect x="1428.34" y="38.6807" width="32.0174" height="30" rx="10" fill="#DEBFA0"/>
<rect x="1466.05" y="0.446289" width="32.0174" height="30" rx="10" fill="#ED972E"/>
<rect x="1498.07" y="38.6807" width="32.0174" height="30" rx="10" fill="#DEBFA0"/>
<rect x="1535.77" y="0.446289" width="32.0174" height="30" rx="10" fill="#BEC7B4"/>
<rect x="1567.79" y="38.6807" width="32.0174" height="30" rx="10" fill="#ED972E"/>
<rect x="1605.5" y="0.446289" width="32.0174" height="30" rx="10" fill="#DEBFA0"/>
<rect x="1637.52" y="38.6807" width="32.0174" height="30" rx="10" fill="#DEBFA0"/>
<rect x="1675.23" y="0.446289" width="32.0174" height="30" rx="10" fill="#DEBFA0"/>
<rect x="1707.24" y="38.6807" width="32.0174" height="30" rx="10" fill="#DEBFA0"/>
</svg>
