<svg width="1156" height="38" viewBox="0 0 1156 38" fill="none" xmlns="http://www.w3.org/2000/svg">
<g clip-path="url(#clip0_3120_4888)">
<rect x="0.5" width="32.0174" height="30" rx="10" fill="#DEBFA0"/>
<rect x="71.2988" width="32.0174" height="30" rx="10" fill="#DEBFA0"/>
<rect x="141.024" width="32.0174" height="30" rx="10" fill="#DEBFA0"/>
<rect x="210.75" width="32.0174" height="30" rx="10" fill="#DEBFA0"/>
<rect x="280.476" width="32.0174" height="30" rx="10" fill="#DEBFA0"/>
<rect x="350.201" width="32.0174" height="30" rx="10" fill="#DEBFA0"/>
<rect x="419.927" width="32.0174" height="30" rx="10" fill="#BEC7B4"/>
<rect x="489.652" width="32.0174" height="30" rx="10" fill="#ED972E"/>
<rect x="559.378" width="32.0174" height="30" rx="10" fill="#DEBFA0"/>
<rect x="629.104" width="32.0174" height="30" rx="10" fill="#BEC7B4"/>
<rect x="698.829" width="32.0174" height="30" rx="10" fill="#DEBFA0"/>
<rect x="768.555" width="32.0174" height="30" rx="10" fill="#DEBFA0"/>
<rect x="838.28" width="32.0174" height="30" rx="10" fill="#ED972E"/>
<rect x="908.006" width="32.0174" height="30" rx="10" fill="#BEC7B4"/>
<rect x="977.731" width="32.0174" height="30" rx="10" fill="#DEBFA0"/>
<rect x="1047.46" width="32.0174" height="30" rx="10" fill="#DEBFA0"/>
<rect x="1117.18" width="32.0174" height="30" rx="10" fill="#DEBFA0"/>
</g>
<defs>
<clipPath id="clip0_3120_4888">
<rect width="1155" height="38" fill="white" transform="translate(0.5)"/>
</clipPath>
</defs>
</svg>
