<svg width="23" height="24" viewBox="0 0 23 24" fill="none" xmlns="http://www.w3.org/2000/svg">
<path d="M0.982422 12C0.982422 14.7848 2.08867 17.4555 4.0578 19.4246C6.02693 21.3938 8.69765 22.5 11.4824 22.5C14.2672 22.5 16.9379 21.3938 18.907 19.4246C20.8762 17.4555 21.9824 14.7848 21.9824 12C21.9824 9.21523 20.8762 6.54451 18.907 4.57538C16.9379 2.60625 14.2672 1.5 11.4824 1.5C8.69765 1.5 6.02693 2.60625 4.0578 4.57538C2.08867 6.54451 0.982422 9.21523 0.982422 12Z" stroke="white" stroke-width="1.5" stroke-linejoin="round"/>
<path d="M6.98242 12C6.98242 9.21523 7.45653 6.54451 8.30044 4.57538C9.14436 2.60625 10.2889 1.5 11.4824 1.5C12.6759 1.5 13.8205 2.60625 14.6644 4.57538C15.5083 6.54451 15.9824 9.21523 15.9824 12C15.9824 14.7848 15.5083 17.4555 14.6644 19.4246C13.8205 21.3938 12.6759 22.5 11.4824 22.5C10.2889 22.5 9.14436 21.3938 8.30044 19.4246C7.45653 17.4555 6.98242 14.7848 6.98242 12Z" stroke="white" stroke-width="1.5" stroke-linejoin="round"/>
<path d="M1.73242 15.5H21.2324M1.73242 8.5H21.2324" stroke="white" stroke-width="1.5" stroke-linecap="round"/>
</svg>
