<svg width="10" height="13" viewBox="0 0 10 13" fill="none" xmlns="http://www.w3.org/2000/svg">
<path d="M9.04995 5.92239C8.8857 5.70572 8.68574 5.51794 8.50006 5.33015C8.02157 4.89681 7.47881 4.58624 7.02175 4.13123C5.95766 3.07675 5.72199 1.33615 6.40044 0C5.72199 0.166116 5.12924 0.541682 4.62219 0.953361C2.77253 2.45563 2.04409 5.10626 2.91536 7.38132C2.94393 7.45355 2.9725 7.52577 2.9725 7.61966C2.9725 7.77856 2.86537 7.923 2.72254 7.98078C2.55829 8.05301 2.38689 8.00967 2.2512 7.89411C2.21067 7.85978 2.17677 7.81815 2.15122 7.77133C1.34422 6.73853 1.21567 5.25793 1.75843 4.07345C0.565794 5.0557 -0.0840869 6.71686 0.00875321 8.28413C0.0516025 8.64525 0.0944518 9.00637 0.215858 9.36749C0.31584 9.80084 0.508662 10.2342 0.722908 10.617C1.4942 11.8665 2.82967 12.762 4.26512 12.9426C5.79341 13.1376 7.42882 12.8559 8.60004 11.787C9.90694 10.5881 10.364 8.66691 9.69269 7.0202L9.59985 6.83242C9.44988 6.50019 9.04995 5.92239 9.04995 5.92239ZM6.79323 10.4725C6.59326 10.6459 6.26475 10.8336 6.00765 10.9059C5.2078 11.1948 4.40795 10.7903 3.93661 10.3136C4.78645 10.1114 5.2935 9.47583 5.44347 8.83303C5.56488 8.25524 5.33635 7.77856 5.24351 7.22243C5.15781 6.68797 5.17209 6.23296 5.36492 5.73461C5.5006 6.00906 5.64344 6.28351 5.81483 6.50019C6.36473 7.22243 7.22886 7.54022 7.41454 8.52247C7.44311 8.62358 7.45739 8.72469 7.45739 8.83303C7.47881 9.42527 7.22172 10.0753 6.79323 10.4725Z" fill="white"/>
</svg>
