<svg width="165" height="163" viewBox="0 0 165 163" fill="none" xmlns="http://www.w3.org/2000/svg">
<path d="M21.1373 49.9447L11.8883 44.7631L13.6575 41.6052C14.072 40.8653 14.5358 40.3266 15.049 39.9891C15.5621 39.6516 16.0898 39.4844 16.6321 39.4873C17.1744 39.4902 17.7098 39.6397 18.2383 39.9358C18.7404 40.2171 19.1387 40.5907 19.4332 41.0566C19.7238 41.5087 19.8636 42.0442 19.8526 42.6629C19.8327 43.2768 19.6131 43.958 19.1936 44.7068L18.1647 46.5433L21.8775 48.6234L21.1373 49.9447ZM17.0681 45.929L18.0674 44.1452C18.4572 43.4494 18.5838 42.8722 18.4472 42.4137C18.3067 41.9415 17.9854 41.5648 17.4833 41.2835C16.946 40.9825 16.4481 40.9003 15.9896 41.0369C15.5361 41.1647 15.1144 41.5766 14.7245 42.2725L13.7252 44.0562L17.0681 45.929ZM24.6738 43.6518L18.4529 34.2262L19.4328 32.8977L30.2748 36.0588L29.3129 37.3629L20.4009 34.6469L25.6178 42.3721L24.6738 43.6518ZM23.6082 40.6826L22.8849 39.6221L25.8428 35.6124L27.0695 35.9903L23.6082 40.6826ZM34.3024 32.2354C33.595 32.9416 32.8164 33.3979 31.9667 33.6043C31.1169 33.8106 30.2566 33.7707 29.3859 33.4844C28.5151 33.1981 27.6945 32.6691 26.924 31.8975C26.1608 31.1329 25.6331 30.3115 25.3411 29.4331C25.0562 28.5476 25.0248 27.6658 25.2469 26.7878C25.4689 25.8956 25.9586 25.0714 26.716 24.3152C27.5663 23.4663 28.4841 22.9637 29.4695 22.8075C30.4477 22.6441 31.3828 22.8447 32.2748 23.4095L31.053 24.6293C30.532 24.3219 29.9824 24.2215 29.404 24.3281C28.8185 24.4276 28.2471 24.7555 27.6897 25.312C27.161 25.8398 26.8178 26.4179 26.6603 27.046C26.5098 27.667 26.5486 28.2989 26.7765 28.9416C27.0045 29.5843 27.418 30.2058 28.0173 30.806C28.6236 31.4134 29.248 31.8315 29.8903 32.0605C30.5327 32.2895 31.1574 32.3293 31.7643 32.1798C32.3713 32.0304 32.9213 31.7096 33.4143 31.2173C34.1717 30.4612 34.5222 29.6761 34.4657 28.8622C34.4164 28.0411 34.0601 27.2341 33.3968 26.441L31.3283 28.5062L30.5043 27.681L33.6554 24.535L37.7001 28.5864L36.7248 29.5601L35.4834 28.5096C35.5901 28.9595 35.6255 29.395 35.5894 29.8162C35.5534 30.2231 35.4353 30.6264 35.235 31.026C35.0277 31.4185 34.7168 31.8217 34.3024 32.2354ZM39.2384 27.1941L32.9144 18.6854L38.287 14.6922L39.0278 15.689L34.8707 18.7787L36.8944 21.5015L40.6869 18.6828L41.4096 19.6552L37.6172 22.4739L39.7131 25.294L43.8703 22.2042L44.6111 23.2009L39.2384 27.1941ZM48.5544 20.7665L43.94 12.6234L41.2125 14.1689L40.6002 13.0885L47.3862 9.24317L47.9984 10.3237L45.2577 11.8767L49.872 20.0198L48.5544 20.7665ZM58.1641 16.4342C57.2137 16.8039 56.2938 16.9179 55.4046 16.7763C54.521 16.6217 53.724 16.2438 53.0135 15.6427C52.3087 15.0284 51.7587 14.2132 51.3634 13.197C50.9717 12.1901 50.8299 11.2269 50.9381 10.3073C51.0519 9.37465 51.3823 8.5528 51.929 7.84176C52.4852 7.12706 53.2385 6.58486 54.1889 6.21516C55.1581 5.83813 56.0891 5.72512 56.9821 5.87612C57.875 6.02712 58.6692 6.41155 59.3645 7.02942C60.0656 7.63421 60.612 8.44004 61.0037 9.44688C61.399 10.4631 61.5444 11.4358 61.44 12.3648C61.3412 13.2807 61.0138 14.096 60.4576 14.8107C59.8978 15.516 59.1333 16.0572 58.1641 16.4342ZM57.6895 15.1725C58.367 14.9089 58.8994 14.5231 59.2868 14.0149C59.6741 13.5067 59.8926 12.9125 59.9422 12.2324C60.0012 11.5486 59.8751 10.8068 59.564 10.0069C59.2528 9.20709 58.8445 8.57508 58.3389 8.1109C57.8427 7.64305 57.282 7.35741 56.6568 7.25395C56.0279 7.14109 55.3746 7.21644 54.6971 7.47999C54.0196 7.74353 53.4872 8.1294 53.0999 8.63758C52.7089 9.13636 52.4839 9.72765 52.4249 10.4115C52.3659 11.0953 52.4919 11.8371 52.8031 12.6369C53.1142 13.4368 53.5225 14.0688 54.0281 14.5329C54.5337 14.9971 55.1009 15.2857 55.7299 15.3985C56.3588 15.5114 57.012 15.436 57.6895 15.1725ZM64.699 13.808L62.3948 3.45994L65.9279 2.67322C66.7558 2.48888 67.4665 2.47544 68.0602 2.63288C68.6538 2.79033 69.1303 3.07213 69.4897 3.47827C69.8491 3.88441 70.0946 4.38314 70.2262 4.97446C70.3513 5.53621 70.3384 6.08214 70.1875 6.61225C70.0443 7.13031 69.7384 7.59149 69.2698 7.9958C68.7991 8.39025 68.1449 8.68074 67.3072 8.86727L65.2523 9.32482L66.1773 13.4788L64.699 13.808ZM64.9791 8.09783L66.9748 7.65345C67.7534 7.48009 68.268 7.18966 68.5186 6.78216C68.7769 6.36261 68.8435 5.87196 68.7184 5.31021C68.5845 4.70904 68.3138 4.28315 67.9063 4.03253C67.5087 3.77973 66.9206 3.74001 66.142 3.91337L64.1463 4.35775L64.9791 8.09783ZM98.2484 5.35153L97.5046 8.73903L101.114 9.53159L101.858 6.14409L98.2484 5.35153ZM97.419 4.11502L103.173 5.37857L101.991 10.7631L96.2367 9.49951L97.419 4.11502ZM94.9002 -0.0199186L107.282 2.69883L104.43 15.6867L103.246 15.4268L105.855 3.54841L95.7956 1.33963L93.1873 13.2181L92.0483 12.9679L94.9002 -0.0199186ZM93.1052 11.2618L104.333 13.7272L104.102 14.7775L92.8746 12.3121L93.1052 11.2618ZM110.228 10.663L117.823 14.0469L117.447 14.8908L109.852 11.5068L110.228 10.663ZM109.223 12.9179L116.818 16.3019L116.448 17.1319L108.853 13.7479L109.223 12.9179ZM108.2 15.2143L115.836 18.6168L115.423 19.5437L107.787 16.1412L108.2 15.2143ZM109.863 5.04526L122.244 10.5619L121.812 11.5303L109.431 6.01364L109.863 5.04526ZM110.435 8.00287L119.634 12.1018L115.819 20.665L114.74 20.1843L118.142 12.5479L111.059 9.39204L107.657 17.0284L106.619 16.5661L110.435 8.00287ZM115.299 8.0643L116.528 8.72821C116.218 9.07648 115.893 9.42319 115.551 9.76835C115.222 10.1084 114.928 10.3972 114.667 10.6348L113.739 10.0388C113.907 9.8596 114.086 9.6573 114.275 9.43194C114.468 9.19736 114.652 8.95866 114.826 8.71586C115.01 8.47717 115.167 8.25999 115.299 8.0643ZM119.69 7.10269L120.702 7.91864C120.28 8.17249 119.843 8.42017 119.393 8.66169C118.943 8.9032 118.538 9.10427 118.179 9.26489L117.416 8.55989C117.659 8.43607 117.917 8.29125 118.19 8.12543C118.462 7.95961 118.726 7.78968 118.98 7.61564C119.248 7.43648 119.485 7.2655 119.69 7.10269ZM112.966 4.55454L114.058 4.56017C114.205 4.92424 114.329 5.31648 114.429 5.73689C114.542 6.15219 114.612 6.50388 114.639 6.79198L113.462 6.86469C113.449 6.57148 113.39 6.20801 113.285 5.77427C113.193 5.33541 113.087 4.92884 112.966 4.55454ZM124.46 17.1036L123.659 18.2251L129.883 22.6704L130.684 21.5489L124.46 17.1036ZM123.149 18.94L122.33 20.0861L128.554 24.5314L129.373 23.3852L123.149 18.94ZM125.772 15.2673L124.971 16.3888L131.195 20.8341L131.996 19.7126L125.772 15.2673ZM125.339 13.8413L133.51 19.6774L129.012 25.975L120.841 20.139L125.339 13.8413ZM125.152 24.447L126.249 24.3184C126.623 24.8207 126.988 25.3424 127.346 25.8835C127.704 26.4246 128.033 26.9451 128.334 27.4451C128.64 27.9369 128.898 28.3753 129.107 28.7602L127.774 28.7761C127.604 28.4064 127.381 27.9804 127.105 27.498C126.837 27.0214 126.537 26.5215 126.204 25.998C125.87 25.4745 125.52 24.9575 125.152 24.447ZM125.564 11.0244L135.855 18.3745L135.247 19.2248L124.957 11.8747L125.564 11.0244ZM130.004 14.7355L131.004 15.6545C130.645 15.9315 130.282 16.2056 129.915 16.4767C129.553 16.7397 129.236 16.9662 128.964 17.1563L128.212 16.3588C128.482 16.1546 128.79 15.8969 129.136 15.5859C129.483 15.2749 129.772 14.9914 130.004 14.7355ZM122.978 21.8889L123.406 23.0878C122.886 23.0515 122.316 22.9728 121.695 22.852C121.088 22.7287 120.476 22.5774 119.86 22.3978C119.246 22.2323 118.671 22.0569 118.133 21.8714C118.13 21.72 118.119 21.5264 118.101 21.2904C118.078 21.0627 118.045 20.8656 118.003 20.6989C118.534 20.8925 119.104 21.0762 119.712 21.2499C120.328 21.4295 120.925 21.5762 121.501 21.69C122.077 21.8038 122.57 21.8701 122.978 21.8889ZM142.239 43.2951L151.406 37.9697L153.225 41.0995C153.651 41.8329 153.878 42.5063 153.908 43.1197C153.937 43.7332 153.813 44.2726 153.534 44.7379C153.256 45.2033 152.855 45.5881 152.331 45.8924C151.833 46.1815 151.309 46.3343 150.758 46.3508C150.221 46.3709 149.689 46.2188 149.162 45.8944C148.643 45.565 148.169 45.0292 147.738 44.2872L146.68 42.4669L143 44.6047L142.239 43.2951ZM147.767 41.8354L148.794 43.6033C149.195 44.293 149.627 44.6957 150.091 44.8114C150.569 44.9307 151.057 44.8458 151.555 44.5567C152.087 44.2473 152.411 43.8605 152.527 43.3963C152.648 42.9408 152.508 42.3683 152.107 41.6786L151.08 39.9107L147.767 41.8354ZM145.857 49.5415L157.137 48.981L157.782 50.5005L149.545 58.2265L148.911 56.7348L155.783 50.4441L146.479 51.0053L145.857 49.5415ZM148.955 50.1347L150.236 50.0515L152.184 54.6379L151.234 55.5018L148.955 50.1347ZM150.776 63.6314C150.53 62.6628 150.534 61.7604 150.79 60.9242C151.046 60.088 151.519 59.3684 152.21 58.7655C152.9 58.1625 153.773 57.7264 154.83 57.4573C155.877 57.1907 156.853 57.1558 157.757 57.3526C158.664 57.5592 159.439 57.9819 160.081 58.6207C160.735 59.2668 161.194 60.1084 161.458 61.1455C161.755 62.3098 161.719 63.3556 161.351 64.2829C160.992 65.2077 160.343 65.9097 159.402 66.3889L158.976 64.7158C159.506 64.4245 159.873 64.0029 160.076 63.451C160.289 62.8966 160.299 62.2379 160.104 61.4747C159.92 60.7506 159.598 60.1607 159.138 59.7048C158.68 59.2586 158.117 58.9697 157.448 58.838C156.779 58.7062 156.033 58.745 155.211 58.9543C154.38 59.1661 153.702 59.4899 153.177 59.9256C152.652 60.3614 152.3 60.8784 152.119 61.4767C151.938 62.075 151.933 62.7117 152.105 63.3868C152.369 64.424 152.866 65.1258 153.595 65.4924C154.326 65.8688 155.202 65.9739 156.222 65.8078L155.501 62.9752L156.631 62.6874L157.73 67.0023L152.182 68.4152L151.842 67.0796L153.379 66.5476C152.937 66.4099 152.545 66.2182 152.201 65.9724C151.869 65.7339 151.583 65.4266 151.341 65.0505C151.109 64.672 150.921 64.1989 150.776 63.6314ZM152.598 70.4566L163.14 69.3379L163.846 75.9946L162.611 76.1257L162.065 70.975L158.691 71.333L159.19 76.0319L157.985 76.1597L157.487 71.4609L153.992 71.8316L154.539 76.9823L153.304 77.1133L152.598 70.4566ZM153.398 81.751L162.757 81.9099L162.81 78.7754L164.051 78.7964L163.919 86.595L162.677 86.5739L162.731 83.4242L153.373 83.2653L153.398 81.751ZM152.277 92.2632C152.436 91.2559 152.8 90.4036 153.37 89.7065C153.948 89.0208 154.676 88.5223 155.553 88.2108C156.438 87.9109 157.42 87.8459 158.497 88.0158C159.564 88.184 160.468 88.5463 161.208 89.1025C161.957 89.6703 162.501 90.3694 162.84 91.1997C163.177 92.04 163.267 92.9638 163.108 93.9711C162.946 94.9984 162.575 95.8598 161.995 96.5554C161.415 97.251 160.684 97.7438 159.8 98.0337C158.924 98.3352 157.953 98.4018 156.886 98.2335C155.809 98.0637 154.895 97.6999 154.145 97.142C153.403 96.5958 152.863 95.9025 152.526 95.0622C152.198 94.2235 152.115 93.2905 152.277 92.2632ZM153.606 92.4881C153.493 93.2062 153.558 93.8605 153.802 94.4509C154.047 95.0414 154.45 95.5292 155.013 95.9144C155.574 96.3095 156.279 96.5739 157.126 96.7076C157.974 96.8413 158.726 96.8065 159.381 96.6032C160.035 96.4099 160.564 96.0691 160.968 95.5809C161.382 95.0942 161.646 94.4919 161.759 93.7738C161.873 93.0557 161.807 92.4014 161.563 91.811C161.329 91.2221 160.931 90.73 160.37 90.3349C159.809 89.9398 159.104 89.6754 158.256 89.5417C157.409 89.408 156.657 89.4428 156.001 89.6461C155.346 89.8494 154.811 90.1943 154.397 90.681C153.983 91.1677 153.719 91.77 153.606 92.4881ZM151.256 99.2432L161.365 102.439L160.273 105.89C160.018 106.699 159.673 107.32 159.239 107.755C158.805 108.19 158.322 108.461 157.791 108.568C157.259 108.675 156.705 108.638 156.127 108.455C155.578 108.281 155.112 107.997 154.729 107.6C154.353 107.216 154.107 106.72 153.993 106.112C153.887 105.507 153.964 104.796 154.223 103.977L154.857 101.97L150.8 100.687L151.256 99.2432ZM156.056 102.349L155.44 104.298C155.199 105.059 155.192 105.65 155.419 106.071C155.653 106.505 156.044 106.809 156.593 106.982C157.18 107.168 157.684 107.147 158.105 106.92C158.523 106.703 158.853 106.214 159.093 105.453L159.709 103.504L156.056 102.349ZM141.827 132.551L139.261 130.218L136.775 132.953L139.342 135.285L141.827 132.551ZM143.313 132.448L139.35 136.807L135.27 133.099L139.233 128.74L143.313 132.448ZM148.153 132.324L139.626 141.705L129.786 132.761L130.601 131.864L139.601 140.044L146.528 132.423L137.528 124.243L138.313 123.38L148.153 132.324ZM139.265 125.147L131.534 133.653L130.738 132.93L138.47 124.423L139.265 125.147ZM131.259 140.304L124.56 145.229L124.013 144.484L130.712 139.559L131.259 140.304ZM129.797 138.315L123.098 143.24L122.56 142.508L129.259 137.583L129.797 138.315ZM128.308 136.289L121.572 141.241L120.971 140.424L127.707 135.472L128.308 136.289ZM136.322 142.766L125.4 150.795L124.773 149.941L135.694 141.912L136.322 142.766ZM133.468 141.8L125.354 147.766L119.801 140.212L120.753 139.513L125.704 146.248L131.952 141.655L127 134.92L127.915 134.247L133.468 141.8ZM131.008 145.996L129.822 146.736C129.673 146.294 129.533 145.84 129.402 145.372C129.269 144.918 129.164 144.52 129.087 144.175L130.064 143.664C130.136 143.899 130.224 144.154 130.326 144.43C130.434 144.713 130.551 144.991 130.676 145.263C130.792 145.541 130.903 145.785 131.008 145.996ZM129.67 150.288L128.46 150.764C128.449 150.271 128.45 149.769 128.462 149.258C128.475 148.748 128.501 148.297 128.539 147.905L129.53 147.591C129.517 147.863 129.515 148.159 129.524 148.478C129.533 148.797 129.55 149.11 129.576 149.418C129.599 149.739 129.63 150.029 129.67 150.288ZM135.212 145.706L134.667 146.652C134.278 146.6 133.876 146.513 133.461 146.392C133.044 146.285 132.704 146.172 132.44 146.052L132.959 144.994C133.22 145.128 133.565 145.256 133.994 145.38C134.421 145.517 134.827 145.626 135.212 145.706ZM118.618 149.486L118.04 148.235L111.098 151.445L111.677 152.696L118.618 149.486ZM117.671 147.438L117.08 146.159L110.138 149.37L110.729 150.648L117.671 147.438ZM119.566 151.534L118.987 150.283L112.045 153.493L112.624 154.744L119.566 151.534ZM121.019 151.863L111.905 156.078L108.657 149.053L117.771 144.839L121.019 151.863ZM111.894 146.455L111.463 147.472C110.842 147.548 110.208 147.608 109.56 147.651C108.913 147.695 108.298 147.723 107.715 147.737C107.136 147.76 106.627 147.767 106.189 147.758L106.835 146.592C107.24 146.627 107.721 146.644 108.277 146.643C108.823 146.646 109.406 146.632 110.026 146.601C110.646 146.571 111.269 146.522 111.894 146.455ZM123.356 153.452L111.878 158.76L111.439 157.812L122.917 152.504L123.356 153.452ZM117.934 155.475L116.641 155.89C116.578 155.441 116.519 154.99 116.465 154.536C116.416 154.092 116.376 153.704 116.345 153.374L117.41 153.115C117.454 153.451 117.525 153.846 117.625 154.3C117.724 154.755 117.827 155.147 117.934 155.475ZM115.193 145.831L113.939 145.609C114.228 145.176 114.578 144.719 114.991 144.239C115.398 143.772 115.832 143.316 116.293 142.869C116.74 142.417 117.177 142.004 117.604 141.628C117.738 141.7 117.911 141.787 118.125 141.888C118.335 141.98 118.522 142.049 118.688 142.095C118.257 142.461 117.815 142.866 117.363 143.308C116.903 143.755 116.48 144.201 116.096 144.645C115.712 145.09 115.411 145.485 115.193 145.831ZM87.066 151.896L87.1251 162.498L83.5055 162.518C82.6574 162.522 81.96 162.385 81.4132 162.105C80.8664 161.826 80.4604 161.449 80.1953 160.976C79.9301 160.503 79.7959 159.964 79.7925 159.358C79.7893 158.782 79.9176 158.252 80.1774 157.766C80.4271 157.29 80.8238 156.904 81.3674 156.608C81.911 156.322 82.612 156.177 83.4702 156.172L85.5753 156.16L85.5516 151.905L87.066 151.896ZM85.5823 157.417L83.5377 157.429C82.7401 157.433 82.1757 157.608 81.8444 157.953C81.5031 158.308 81.334 158.774 81.3372 159.349C81.3407 159.965 81.515 160.439 81.8601 160.77C82.1951 161.101 82.7615 161.265 83.5591 161.26L85.6036 161.249L85.5823 157.417ZM79.8717 151.928L74.7017 161.969L73.0635 161.765L70.5084 150.764L72.1165 150.964L74.1143 160.064L78.2936 151.732L79.8717 151.928ZM77.8051 154.311L77.2349 155.461L72.2902 154.847L72.0188 153.592L77.8051 154.311ZM65.2149 149.119C66.1766 149.391 66.9549 149.848 67.5499 150.489C68.1448 151.13 68.5299 151.9 68.7052 152.8C68.8805 153.699 68.8194 154.674 68.5221 155.723C68.2275 156.762 67.7682 157.624 67.1442 158.307C66.5104 158.988 65.7562 159.446 64.8816 159.681C63.9945 159.923 63.0361 159.898 62.0064 159.606C60.8505 159.278 59.9637 158.723 59.3463 157.939C58.7261 157.165 58.4447 156.251 58.5021 155.197L60.1632 155.668C60.1492 156.272 60.33 156.801 60.7054 157.254C61.0781 157.716 61.6432 158.055 62.4009 158.27C63.1198 158.473 63.7918 158.491 64.4169 158.322C65.0323 158.15 65.5648 157.807 66.0145 157.295C66.4641 156.782 66.8046 156.118 67.0358 155.302C67.2699 154.476 67.33 153.727 67.2162 153.054C67.1025 152.382 66.8322 151.817 66.4055 151.361C65.9787 150.904 65.4302 150.581 64.7599 150.391C63.7302 150.099 62.874 150.176 62.1912 150.623C61.4987 151.067 60.9683 151.772 60.6001 152.738L63.4123 153.535L63.0943 154.657L58.8104 153.443L60.3715 147.935L61.6974 148.311L61.3867 149.907C61.7272 149.594 62.09 149.351 62.4752 149.176C62.848 149.009 63.2576 148.915 63.7041 148.895C64.1479 148.884 64.6515 148.959 65.2149 149.119ZM58.4239 147.276L54.0553 156.936L47.956 154.177L48.4677 153.046L53.1871 155.18L54.585 152.089L50.2796 150.142L50.7789 149.038L55.0843 150.985L56.5322 147.784L51.8128 145.649L52.3245 144.518L58.4239 147.276ZM48.2807 142.252L43.4036 150.241L46.0794 151.875L45.4323 152.935L38.7752 148.87L39.4223 147.81L42.111 149.452L46.988 141.463L48.2807 142.252ZM39.8229 135.957C40.608 136.608 41.1548 137.356 41.4634 138.202C41.7577 139.05 41.815 139.93 41.635 140.843C41.4409 141.758 40.9959 142.635 40.2999 143.474C39.6105 144.306 38.8376 144.898 37.9815 145.25C37.1111 145.604 36.2323 145.715 35.3451 145.583C34.4502 145.444 33.6102 145.05 32.8251 144.399C32.0244 143.735 31.4731 142.976 31.1709 142.123C30.8688 141.269 30.8187 140.388 31.0206 139.48C31.2083 138.573 31.6469 137.704 32.3364 136.872C33.0323 136.033 33.8116 135.433 34.6742 135.073C35.5226 134.714 36.3943 134.604 37.2892 134.742C38.1777 134.889 39.0223 135.294 39.8229 135.957ZM38.951 136.985C38.3914 136.521 37.7953 136.244 37.163 136.152C36.5306 136.061 35.9051 136.159 35.2866 136.446C34.6604 136.727 34.0734 137.198 33.5257 137.858C32.978 138.519 32.6242 139.183 32.4643 139.851C32.2967 140.512 32.3196 141.141 32.5332 141.737C32.7403 142.342 33.1236 142.876 33.6833 143.34C34.243 143.804 34.839 144.081 35.4714 144.173C36.0973 144.272 36.7234 144.181 37.3497 143.9C37.976 143.62 38.5629 143.149 39.1107 142.488C39.6584 141.827 40.0122 141.163 40.172 140.496C40.3319 139.828 40.3083 139.192 40.1012 138.588C39.8941 137.983 39.5107 137.449 38.951 136.985ZM34.3349 131.511L26.4376 138.584L24.0227 135.887C23.4569 135.256 23.0974 134.642 22.9443 134.048C22.7911 133.453 22.8037 132.899 22.9821 132.387C23.1604 131.875 23.4753 131.417 23.9265 131.013C24.3552 130.629 24.8377 130.373 25.3738 130.245C25.8957 130.117 26.4476 130.158 27.0295 130.368C27.6038 130.586 28.1773 131.014 28.7498 131.654L30.1543 133.222L33.3245 130.383L34.3349 131.511ZM29.2179 134.061L27.8538 132.537C27.3217 131.943 26.8166 131.637 26.3386 131.617C25.8463 131.598 25.3859 131.78 24.9571 132.163C24.4984 132.574 24.2594 133.019 24.2402 133.497C24.2143 133.967 24.4674 134.5 24.9995 135.094L26.3636 136.617L29.2179 134.061ZM10.4612 106.441L13.7755 105.419L12.687 101.888L9.37268 102.91L10.4612 106.441ZM9.79373 107.772L8.0584 102.142L13.3266 100.518L15.0619 106.148L9.79373 107.772ZM7.43633 112.001L3.70247 99.887L16.4098 95.9703L16.7667 97.1281L5.14483 100.71L8.17831 110.552L19.8002 106.97L20.1437 108.084L7.43633 112.001ZM18.1383 108.005L14.7524 97.02L15.78 96.7032L19.1659 107.688L18.1383 108.005ZM9.16632 93.3976L8.33528 85.1247L9.2545 85.0323L10.0855 93.3053L9.16632 93.3976ZM11.6226 93.1509L10.7915 84.8779L11.6957 84.7871L12.5267 93.0601L11.6226 93.1509ZM14.1241 92.8996L13.2885 84.5815L14.2981 84.48L15.1337 92.7982L14.1241 92.8996ZM4.47044 96.5026L3.11565 83.0157L4.17049 82.9098L5.52528 96.3967L4.47044 96.5026ZM6.75415 94.538L5.74752 84.517L15.0753 83.58L15.1934 84.7554L6.87522 85.591L7.65025 93.3064L15.9684 92.4708L16.0819 93.601L6.75415 94.538ZM4.39382 90.2848L4.36004 88.8879C4.81619 88.9841 5.27889 89.0949 5.74812 89.2203C6.20629 89.3366 6.60318 89.449 6.93878 89.5573L6.88201 90.659C6.64288 90.6018 6.37863 90.5472 6.08926 90.4951C5.78985 90.444 5.49145 90.4029 5.19406 90.3719C4.89566 90.3308 4.62891 90.3018 4.39382 90.2848ZM1.37986 86.9497L1.58574 85.6657C2.01585 85.9066 2.44746 86.1626 2.88059 86.4337C3.31371 86.7047 3.68907 86.9562 4.00664 87.1882L3.77351 88.201C3.54539 88.0514 3.29164 87.8993 3.01228 87.7447C2.73292 87.5901 2.45456 87.4456 2.17722 87.3111C1.88882 87.1675 1.62303 87.0471 1.37986 86.9497ZM2.50424 94.0516L1.96733 93.101C2.21032 92.7924 2.48947 92.4904 2.8048 92.1949C3.10908 91.8904 3.37973 91.6551 3.61675 91.4893L4.26369 92.4745C4.01561 92.6314 3.72939 92.8631 3.40502 93.1697C3.0696 93.4672 2.76934 93.7612 2.50424 94.0516ZM7.68124 77.8417L9.05288 77.9759L9.79766 70.364L8.42601 70.2298L7.68124 77.8417ZM9.92712 78.0614L11.3289 78.1986L12.0737 70.5867L10.6719 70.4495L9.92712 78.0614ZM5.43536 77.6219L6.80701 77.7561L7.55178 70.1443L6.18014 70.0101L5.43536 77.6219ZM4.41595 78.7091L5.39374 68.7157L13.096 69.4694L12.1183 79.4628L4.41595 78.7091ZM13.6986 73.5761L13.0396 72.6899C13.2886 72.1157 13.5581 71.5385 13.8482 70.9582C14.1383 70.3778 14.425 69.8327 14.7082 69.3227C14.9814 68.8118 15.2326 68.3697 15.4619 67.9965L16.141 69.1434C15.9056 69.4754 15.6478 69.8813 15.3675 70.3612C15.0882 70.8309 14.8049 71.3409 14.5178 71.8911C14.2306 72.4412 13.9576 73.0029 13.6986 73.5761ZM1.86268 79.9202L3.09414 67.3342L4.13418 67.436L2.90272 80.0219L1.86268 79.9202ZM2.8617 74.2201L3.15876 72.8949C3.57807 73.0678 3.99689 73.2457 4.41522 73.4287C4.8235 73.6106 5.17799 73.7721 5.47868 73.9131L5.16295 74.9627C4.85122 74.8307 4.47418 74.6924 4.03182 74.5477C3.58946 74.4029 3.19942 74.2937 2.8617 74.2201ZM12.5675 76.7372L13.3928 75.7679C13.6209 76.2366 13.8375 76.7701 14.0427 77.3685C14.2389 77.9558 14.413 78.5612 14.565 79.1848C14.7281 79.7993 14.8634 80.3857 14.9711 80.9441C14.8417 81.0227 14.6792 81.1285 14.4835 81.2616C14.298 81.3956 14.1435 81.5225 14.0202 81.6423C13.9226 81.0849 13.7972 80.4995 13.6442 79.886C13.4922 79.2624 13.3217 78.6725 13.1326 78.1164C12.9435 77.5602 12.7552 77.1005 12.5675 76.7372Z" fill="black"/>
</svg>
