<svg width="56" height="95" viewBox="0 0 56 95" fill="none" xmlns="http://www.w3.org/2000/svg">
<path d="M9.05403 20.6378C8.52727 5.62537 11.2488 2.09175 12.6754 2.20149C23.5402 3.84747 21.2347 28.8684 21.2347 29.856C21.2347 30.8437 24.5268 29.1976 26.1729 28.8684C27.819 28.5392 29.1359 28.8684 31.4405 29.856C33.2841 29.0659 37.0372 28.8684 38.6833 28.8684C40.0002 28.2099 40.9878 29.856 45.5969 34.7943C50.3377 34.0042 52.8397 39.2937 53.4982 42.0372C55.0784 47.3047 52.8397 50.3774 51.5228 51.2553C51.6326 53.4501 51.7862 58.8273 51.5228 62.778C51.2595 66.7286 48.1209 70.789 46.5845 72.3253C46.3651 72.874 46.3212 75.3542 47.9014 80.885C49.4817 86.4159 48.9988 91.9688 48.5599 94.0538H7.07822V84.1772C7.62692 84.1772 9.51444 83.9797 12.675 83.1896C13.2017 81.0826 9.60266 73.313 7.7373 69.6916C0.823694 63.7656 0.823694 57.5105 1.15291 53.889C1.48213 50.2676 5.76199 45.9878 7.7373 44.0125C8.52743 43.2223 8.94434 28.1001 9.05403 20.6378Z" fill="white"/>
<path d="M11.2229 92.7562V85.3559L33.9633 81.8642L44.1284 80.3529C47.398 84.8139 46.3989 90.4805 45.4907 92.7562H11.2229Z" fill="#ED972E"/>
<path d="M11.8587 86.1934C11.8755 86.6862 11.8576 87.3321 11.833 87.8229C11.8254 87.9768 11.7913 87.8989 11.7845 88.0051C11.7713 88.2128 11.788 88.4063 11.7722 88.6115C11.7668 88.6795 11.7129 88.5949 11.7085 88.6662C11.6846 89.057 11.6984 89.4268 11.6869 89.8227C11.6584 90.8051 11.6391 91.7791 11.6239 92.7562L11.2229 92.3552C12.1855 92.3702 13.1511 92.3814 14.1308 92.3936C14.7817 92.4016 15.573 92.4506 16.2453 92.4292C16.3238 92.4266 16.277 92.3793 16.292 92.3754C16.5262 92.3156 16.4483 92.4112 16.6012 92.4239C17.2082 92.474 17.8831 92.4784 18.4672 92.4601C18.7157 92.4522 18.4665 92.3582 18.7167 92.411C18.7341 92.4145 18.6711 92.4648 18.7392 92.4702C18.8937 92.4822 19.187 92.4732 19.3067 92.4772C19.5376 92.4852 19.5758 92.4847 19.7941 92.4852C20.0926 92.4864 20.4476 92.5114 20.7678 92.5C20.8362 92.4975 20.7457 92.4459 20.8547 92.4372C20.9638 92.4284 21.2525 92.4328 21.3498 92.4449C21.4471 92.4571 21.4057 92.4976 21.4229 92.5069C21.5646 92.5852 21.8985 92.4767 21.9415 92.474C22.7248 92.4283 23.3965 92.4901 24.1318 92.4899C24.69 92.4897 25.2868 92.4693 25.818 92.4721C26.4507 92.4756 26.987 92.5035 27.6018 92.4987C27.6666 92.4983 27.5906 92.4377 27.6698 92.437C28.5117 92.4299 29.3477 92.4366 30.1859 92.4775C30.2699 92.4816 30.1616 92.5348 30.2456 92.5422C30.7598 92.5859 31.5733 92.6909 31.8787 92.4593C32.227 92.4683 32.6499 92.4777 32.9615 92.5244C33.1624 92.5544 32.9673 92.6124 33.2141 92.5876C33.2697 92.5821 33.1973 92.5314 33.2808 92.5269C33.6322 92.5084 34.0162 92.5249 34.3639 92.4986C34.4346 92.4932 34.4153 92.4477 34.4353 92.4395C34.6037 92.3732 34.8841 92.4828 34.9452 92.4908C35.4105 92.5502 35.7504 92.5268 36.1839 92.5283C36.2845 92.5286 36.1656 92.4675 36.2624 92.4657C36.7645 92.4569 37.2845 92.4622 37.7761 92.4893C37.8855 92.4955 37.7849 92.5475 37.8372 92.5531C38.0676 92.5772 38.1187 92.479 38.3397 92.5002C38.3862 92.5046 38.36 92.5491 38.3685 92.554C38.5015 92.6308 38.6171 92.522 38.6513 92.5196C39.084 92.4867 39.3606 92.6003 39.7786 92.5843C39.8286 92.5822 39.7159 92.5259 39.8564 92.5236C40.793 92.508 41.7835 92.5235 42.7106 92.5686C42.8547 92.5755 42.7518 92.6179 42.7609 92.6231C42.9087 92.7046 43.0044 92.5954 43.0513 92.5912C43.4221 92.5616 43.7685 92.6533 44.0204 92.5231C44.5112 92.5372 45.0013 92.5398 45.4907 92.5402L45.2901 92.6761C45.6733 91.6998 45.8939 90.6561 46.1101 89.6185C46.1139 89.5993 46.1628 89.6409 46.1702 89.6024C46.2564 89.1345 46.1611 89.2158 46.0868 88.8979C46.0679 88.8198 46.2072 88.5883 46.2171 88.5682C46.2548 88.4936 46.3301 88.5776 46.3381 88.5523C46.4 88.3413 46.1351 88.3608 46.1439 88.0768C46.1446 88.0679 46.1923 88.1067 46.1978 88.0829C46.215 88.0086 46.1972 87.9339 46.2148 87.8604C46.2552 87.6925 46.3849 87.6332 46.3056 87.374C46.2948 87.3417 46.1474 87.3945 46.146 87.1394C46.1471 87.0363 46.1181 86.5874 46.1151 86.4605C46.1139 86.3343 46.1696 86.4161 46.1709 86.407C46.2026 86.061 46.2406 86.1859 46.3159 86.0042C46.3891 85.8209 46.1711 85.8962 46.1374 85.8302C46.104 85.7638 46.1201 85.5085 46.1278 85.4444C46.1361 85.3803 46.1788 85.4517 46.1802 85.3956C46.1854 85.0216 46.0429 85.2562 45.9868 85.145C45.8523 84.8859 45.9691 84.6386 45.9223 84.3809C45.9095 84.3115 45.8866 84.3763 45.8679 84.3167C45.7935 84.0831 45.8031 83.9228 45.6742 83.6701C45.6532 83.6281 45.4881 83.4449 45.5085 83.2841C45.5115 83.261 45.5708 83.3027 45.544 83.2005C45.5042 83.047 45.4098 82.78 45.3301 82.6292C45.2715 82.5181 45.2649 82.6762 45.2224 82.5244C45.2032 82.4571 45.2919 82.5589 45.2524 82.4334C45.214 82.3081 45.0679 82.0058 45.008 81.8944C44.9488 81.782 44.9343 81.8679 44.9265 81.8603C44.8808 81.8139 44.7438 81.6131 44.7332 81.5951C44.5033 81.1874 44.274 80.8039 44.0207 80.4319L44.148 80.485C43.5592 80.5522 42.9779 80.6173 42.3841 80.7222C42.3019 80.7367 42.365 80.7828 42.3525 80.7855C42.0734 80.8503 42.2747 80.6729 42.0702 80.654C42.115 80.7598 41.9956 80.7572 41.7984 80.7989C41.7033 80.819 41.7619 80.8539 41.7538 80.8596C41.6212 80.9454 41.5098 80.8766 41.4817 80.8632C41.3782 80.8143 41.2867 80.9039 41.2164 80.8714C41.1461 80.8391 41.2843 80.7553 41.0936 80.7845C41.0459 80.8319 41.2029 80.9138 41.0605 80.952C40.5232 81.0964 39.4906 81.1674 39.0497 81.2243C38.6098 81.2812 38.4691 81.3095 38.2114 81.3333C37.7458 81.3762 37.9263 81.4274 37.6448 81.505C37.3624 81.5828 37.4743 81.374 37.4269 81.3397C37.3804 81.3054 37.3422 81.3535 37.2885 81.3388C37.2348 81.3241 37.3397 81.2804 37.2201 81.2897C37.1005 81.299 36.7875 81.419 36.7518 81.4675C36.6764 81.5702 36.8362 81.6424 36.518 81.656C36.4997 81.6567 36.5508 81.5986 36.4811 81.6039C35.9275 81.6473 35.3579 81.7296 34.8056 81.7773C34.7296 81.7838 34.7887 81.7188 34.7444 81.7219C34.283 81.7546 34.4599 81.823 34.2252 81.9632C34.2536 81.8475 34.1641 81.7838 33.952 81.7881C33.8971 81.7895 33.8344 81.7954 33.7636 81.8061C33.5556 81.8375 33.6006 81.8918 33.4725 81.9546C33.4341 81.9735 33.2806 81.9551 33.2583 81.9873C33.1845 82.0928 33.3389 82.1744 32.9759 82.1882C32.96 82.1887 33.0021 82.1307 32.9475 82.1359C32.5949 82.1696 32.5679 82.2722 32.1919 82.3419C31.8971 82.3965 31.3614 82.4187 31.0228 82.461C31.0062 82.3059 30.6931 82.3901 30.5802 82.5161C30.3607 82.5453 30.1253 82.5876 29.9115 82.6054C29.8379 82.6116 29.8789 82.5597 29.869 82.5563C29.7166 82.5023 29.6373 82.6202 29.5907 82.6315C29.0848 82.7495 28.6557 82.7352 28.1788 82.8868C28.1619 82.8922 28.1503 83.0035 28.0077 82.9454C27.9984 82.9413 28.1523 82.8679 27.9219 82.8994C27.6914 82.9309 27.2493 82.9401 26.9377 83.0387C26.8623 83.0625 26.6803 83.1793 26.5131 83.1356C26.4908 83.1295 26.509 83.0954 26.4762 83.0829C26.3704 83.0435 26.3338 83.1598 26.2051 83.0855C26.0765 83.0112 25.8276 82.979 25.5155 83.0918C25.5056 83.0952 25.4425 83.1926 25.3411 83.2068C25.1792 83.2294 24.9471 83.2468 24.7785 83.2732C24.6977 83.2859 24.7576 83.3312 24.7437 83.3343C24.2052 83.4475 23.8114 83.4595 23.2264 83.5282C23.1191 83.5407 22.8238 83.6603 22.6085 83.6347C22.3721 83.6067 22.565 83.3097 22.0534 83.4519C21.847 83.5091 21.6318 83.8814 21.2277 83.7677C20.5017 83.9227 19.8107 83.9388 19.0854 84.1124C19.0527 84.1202 18.9625 84.2287 18.8846 84.2394C18.769 84.255 18.6991 84.2215 18.6163 84.2313C18.2693 84.2712 17.9593 84.3567 17.6258 84.402C17.4992 84.4193 17.5365 84.3678 17.3855 84.3885C17.2346 84.4091 17.1433 84.4834 16.9349 84.4863C16.7776 84.4883 16.6051 84.3916 16.3984 84.409C16.4088 84.5289 16.268 84.548 16.0232 84.6176C15.9762 84.6311 16.034 84.6645 16.012 84.673C15.9229 84.7085 15.8322 84.6873 15.7481 84.724C15.7276 84.7328 15.7328 84.7735 15.7164 84.783C15.5772 84.8655 15.3189 84.8118 15.2745 84.8024C15.1044 84.7668 15.0373 84.8311 14.9103 84.8263C14.7835 84.8215 14.9631 84.7635 14.817 84.7712C14.5142 84.7872 14.132 84.8526 13.8288 84.8972C13.7079 84.9153 13.7986 84.9567 13.7815 84.9606C13.5337 85.0127 13.2722 84.9939 13.1501 85.123C12.9341 84.8709 13.0036 85.1731 12.6378 85.1722C12.609 85.172 12.5529 85.0457 12.658 85.0098C12.7631 84.9739 12.9332 84.9899 13.0784 84.9368C13.1129 84.9242 13.2972 84.7695 13.3238 84.7578C13.5321 84.666 13.5932 84.8582 13.6063 84.8672C13.7546 84.9639 13.9827 84.7927 14.0467 84.7735C14.3395 84.6854 14.5981 84.6741 14.8438 84.6056C15.0046 84.561 15.0008 84.4295 15.13 84.4137C15.5594 84.3612 15.7362 84.5182 16.115 84.3003C16.1963 84.2538 16.0888 84.126 16.4153 84.1893C16.4358 84.1933 16.6811 84.2595 16.804 84.175C16.8194 84.1643 16.8126 84.1233 16.834 84.1165C16.9779 84.0715 17.0812 84.0892 17.2394 84.0488C17.3974 84.0085 17.5869 83.9555 17.7723 83.9413C17.884 83.9327 18.0374 83.9875 18.0932 83.9981C18.2508 84.0292 18.3972 83.9161 18.4997 83.9673C18.6031 84.0186 18.4361 84.1464 18.6872 84.1513C18.6798 84.0432 18.6838 83.9304 18.6819 83.8208C19.2184 83.7423 19.751 83.6959 20.288 83.6086C20.3546 83.5977 20.2776 83.5507 20.3487 83.5375C20.6489 83.4821 20.9185 83.4826 21.2287 83.4183C21.4688 83.3683 21.7249 83.2668 21.9756 83.2126C22.1489 83.311 22.5181 83.2119 22.7927 83.1812C22.8889 83.1703 22.8875 83.204 22.9571 83.2042C23.2195 83.2041 23.0828 83.1147 23.1505 83.0869C23.4409 82.9681 23.5043 83.2084 23.8589 83.1478C23.8777 83.1447 24.088 82.9791 24.1184 82.9661C24.3118 82.8823 24.1588 83.0063 24.2863 82.9966C24.5193 82.9788 24.6841 82.9853 24.9484 82.9057C25.0254 82.8823 25.2019 82.7721 25.3645 82.8114C25.3859 82.8165 25.3814 82.8613 25.398 82.8613C25.6977 82.8583 25.6846 82.7219 25.8451 82.6504C26.0057 82.5788 26.2788 82.6325 26.3356 82.6513C26.4841 82.6997 26.2346 82.6972 26.2282 82.7052C26.153 82.8 26.3396 82.757 26.4849 82.7417C26.5262 82.8711 26.7266 82.8322 26.6355 82.7254C26.6252 82.7137 26.5148 82.7433 26.4849 82.7417C26.5915 82.5922 26.8107 82.5415 27.0742 82.6255C27.1975 82.6649 27.0994 82.7479 27.4438 82.6702C27.6001 82.6349 27.525 82.553 27.6607 82.5067C27.9705 82.401 28.3975 82.4226 28.7239 82.3588C28.8423 82.3356 28.7185 82.3034 28.7992 82.2859C29.0133 82.2391 29.2097 82.2473 29.4239 82.1948C29.4433 82.19 29.3872 82.145 29.4546 82.134C29.9655 82.0493 30.4163 82.0144 30.9509 81.9333C31.2092 81.8941 31.6664 81.7943 31.9347 81.759C32.3998 81.6976 32.9818 81.6861 33.375 81.6068C33.6315 81.5553 33.5668 81.5117 33.672 81.4591C33.733 81.4284 33.8115 81.4129 33.893 81.4066C34.0849 81.3923 34.2903 81.4279 34.3279 81.436C34.3295 81.4364 34.1089 81.4818 34.2316 81.4911C34.309 81.5368 34.3254 81.4366 34.3279 81.436C34.3632 81.4434 34.8093 81.3892 34.896 81.3661C34.9431 81.3535 34.9089 81.3079 34.9337 81.3022C35.5212 81.1695 36.1145 81.0684 36.7205 81.002C36.7313 81.0014 36.7236 81.0593 36.7488 81.0573C37.1013 81.0301 37.3146 80.929 37.5963 80.8459C37.878 80.7628 38.1082 80.7424 38.2926 80.8124C38.5079 80.7681 38.8256 80.7639 39.0086 80.7628C39.1916 80.7617 39.2005 80.65 39.216 80.6455C39.6976 80.504 39.9911 80.5236 40.5027 80.4574C40.746 80.4261 41.2248 80.3388 41.4857 80.288C41.6919 80.2476 41.8207 80.2543 42.0095 80.2097C42.0351 80.2037 42.0018 80.1595 42.0094 80.1565C42.2143 80.0672 42.1292 80.2 42.1764 80.2145C42.3475 80.2671 42.4523 80.2931 42.7203 80.2165C42.7821 80.1989 42.9406 80.0023 43.0541 79.9753C43.2016 79.9405 43.1542 80.0096 43.3085 79.9716C43.3217 79.9684 43.3134 79.9314 43.4102 79.9187C43.6173 79.8913 43.8335 79.8657 44.052 79.8389L44.3703 79.7963L44.5475 80.0457C44.7031 80.2692 44.8498 80.4948 44.9941 80.7199C45.0302 80.7767 45.0352 80.6715 45.0882 80.7535C45.3367 81.1389 45.5739 81.5849 45.7356 82.0012C45.7752 82.1038 45.7081 82.0589 45.7067 82.0857C45.6987 82.2483 45.8797 82.3926 45.895 82.4244C46.2554 83.1591 46.3477 83.7857 46.5748 84.5769C46.5878 84.6183 46.7741 84.9381 46.7005 85.1076C46.6959 85.1196 46.6207 85.2871 46.7108 85.4083C46.7164 85.416 46.7546 85.3139 46.7743 85.4785C46.794 85.643 46.8642 85.9042 46.8291 86.1375C46.8183 86.2123 46.7324 86.3874 46.8295 86.5955C46.837 86.6086 47.0427 86.9283 46.9185 87.0546C46.8979 87.0746 46.7634 87.0603 46.8396 87.3116C46.8541 87.3599 46.8826 87.2704 46.904 87.3989C46.9368 87.5975 46.9002 87.8572 46.9538 88.1018C46.9635 88.1434 47.0496 88.3292 46.9723 88.471C46.9602 88.493 46.9173 88.4479 46.9083 88.5236C46.8646 88.8846 46.8615 89.2647 46.7853 89.627C46.7582 89.7547 46.6941 89.6799 46.6571 89.8098C46.6197 89.9436 46.5609 90.2042 46.569 90.3517C46.5777 90.4965 46.7196 90.365 46.6913 90.5748C46.575 91.3957 46.3223 92.1828 45.9966 92.9581L45.8517 93.3061L45.4907 93.3009C45.3908 93.2985 45.2908 93.2967 45.1907 93.2955C45.0581 93.294 45.168 93.3357 44.9727 93.3365C44.2524 93.3396 43.0089 93.3788 42.3839 93.2901C41.8831 93.2191 42.5133 93.1651 42.1306 93.1362C41.946 93.1224 41.7462 93.2579 41.7016 93.2622C41.2661 93.3055 40.9635 93.2455 40.5716 93.2639C40.4906 93.2678 40.57 93.3227 40.5011 93.3253C40.2658 93.3349 40.0186 93.3103 39.7937 93.3148C39.6929 93.317 39.7114 93.3589 39.6186 93.3557C39.3965 93.3484 39.2002 93.3308 38.9837 93.2915C38.9639 93.2879 39.097 93.2357 38.9327 93.2337C38.6668 93.2307 38.3367 93.192 38.0307 93.232C37.94 93.2441 37.9364 93.3399 37.7413 93.2737C37.7003 93.2599 37.7526 93.1448 37.5253 93.2443C37.487 93.2608 37.1052 93.395 36.9178 93.3085C36.8684 93.2857 36.7422 93.1915 36.633 93.2063C36.6182 93.2087 36.6775 93.2602 36.5871 93.2652C36.2683 93.282 35.9341 93.2765 35.6066 93.2926C35.5192 93.297 35.6494 93.3503 35.5191 93.3552C35.1606 93.3687 34.7131 93.3551 34.3625 93.3384C34.2333 93.3322 34.3226 93.288 34.3132 93.2832C34.162 93.2051 34.0726 93.3106 34.0224 93.3167C33.7103 93.3535 33.4726 93.304 33.1849 93.3171C33.1055 93.3206 33.1618 93.3709 33.146 93.3754C32.982 93.4192 33.1041 93.3289 33.0004 93.3189C32.7097 93.2907 32.3857 93.2948 32.0917 93.3012C31.9838 93.3036 32.1051 93.3619 32.0082 93.3634C31.4347 93.3735 30.8385 93.3679 30.2788 93.3358C30.1734 93.3296 30.2397 93.2847 30.2177 93.2744C30.0663 93.2027 29.8445 93.3006 29.7934 93.3099C29.5613 93.3524 29.4711 93.3127 29.2661 93.3202C28.2647 93.3571 27.0282 93.3308 26.083 93.3145C24.8512 93.2936 23.8953 93.2509 22.7207 93.262C22.646 93.2626 22.7213 93.3224 22.6569 93.3237C21.826 93.3381 21.008 93.3147 20.1755 93.332C20.1072 93.3333 20.2056 93.3899 20.096 93.3939C19.8711 93.4026 19.5861 93.3995 19.3587 93.3814C19.2478 93.3727 19.3966 93.3241 19.2849 93.3163C19.025 93.2981 18.7463 93.2941 18.4792 93.3031C18.3656 93.3071 18.5371 93.365 18.3894 93.3657C17.3832 93.3715 16.395 93.3814 15.3783 93.3064C15.3086 93.3013 15.2474 93.1836 15.0992 93.2061C15.088 93.2388 15.0886 93.2772 15.0838 93.3122C13.793 93.3287 12.5138 93.299 11.2229 93.2874L10.6841 93.2795L10.6917 92.7562C10.6933 92.5823 10.6945 92.4081 10.6952 92.2337C10.6955 92.1718 10.6331 92.2788 10.6333 92.1589C10.6342 91.465 10.6169 90.7911 10.6789 90.0813C10.685 90.0109 10.7947 90.047 10.7781 89.8395C10.7751 89.8029 10.7605 89.4903 10.7366 89.4095C10.7331 89.3985 10.6818 89.4555 10.6803 89.3548C10.6726 88.7695 10.6843 88.156 10.7156 87.5717C10.7207 87.4774 10.7752 87.5778 10.7794 87.5106C10.8083 87.0342 10.7669 86.5159 10.8164 86.0606C10.8497 85.7559 10.944 85.8687 11.0368 85.7067C11.0499 85.6838 11.052 85.4951 11.106 85.4854C11.2417 85.4603 11.3904 85.5517 11.5351 85.5142C11.5663 85.5063 11.5327 85.2535 11.608 85.4032C11.6131 85.4136 11.6381 85.5969 11.6636 85.642C11.6813 85.6734 11.7362 85.6168 11.7588 85.6809C11.7814 85.745 11.7354 85.8155 11.762 85.9217C11.7889 86.028 11.8513 85.9813 11.8587 86.1934ZM39.8324 80.7571C40.0061 80.7843 40.0023 80.5906 39.8296 80.6628C39.8213 80.6665 39.8235 80.7558 39.8324 80.7571ZM19.77 83.8396C19.9997 83.89 20.1291 83.7441 19.9662 83.7029C19.8034 83.6618 19.7001 83.8243 19.77 83.8396ZM17.5316 84.2459C17.7951 84.273 17.7936 83.9976 17.5306 84.0937C17.5153 84.0992 17.5162 84.2443 17.5316 84.2459ZM11.0632 86.4578C11.0658 86.4554 11.0683 86.3198 11.0657 86.3165C11.0047 86.2443 10.9998 86.5156 11.0632 86.4578ZM15.3112 84.6549C15.3959 84.6792 15.6172 84.6022 15.5119 84.572C15.4272 84.5477 15.2058 84.6247 15.3112 84.6549ZM46.0116 84.3514C46.0096 84.3547 46.0303 84.4502 46.0455 84.4445C46.0948 84.4259 46.0477 84.2966 46.0116 84.3514ZM11.5206 85.2401C12.0822 85.1643 12.456 85.3346 11.8422 85.4031C11.731 85.4155 12.0694 85.2956 11.9257 85.2972C11.6628 85.3001 11.5134 85.466 11.2394 85.4315C11.1898 85.4251 11.4884 85.244 11.5215 85.2397C11.5212 85.2398 11.5209 85.24 11.5206 85.2401ZM39.9619 80.9712C39.9656 80.9732 40.0991 80.9558 40.102 80.9528C40.1651 80.8817 39.8961 80.9168 39.9619 80.9712ZM46.1126 89.98C46.107 89.9859 46.0521 90.2924 46.0546 90.303C46.1266 90.4811 46.2389 89.8586 46.1126 89.98ZM31.0168 82.4577C30.8809 82.5406 30.7083 82.5744 30.5809 82.516C30.7258 82.4979 30.8712 82.4762 31.0168 82.4577Z" fill="#ED972E"/>
<path d="M9.98425 5.93628C10.1316 4.34542 11.1332 1.32279 13.9614 1.95913C17.4966 2.75456 18.734 4.61052 19.6178 7.08519C20.5016 9.55986 21.9157 22.7286 21.5622 29.7107" stroke="black" stroke-width="2" stroke-linecap="round" stroke-linejoin="round"/>
<path d="M9.54227 9.55988C9.39497 19.871 8.88825 40.8821 8.03979 42.4376" stroke="black" stroke-width="2" stroke-linecap="round" stroke-linejoin="round"/>
<path d="M16.3474 32.7158C14.8743 35.4261 11.1505 41.3948 8.03954 43.5866C4.15077 46.3264 1.23419 51.8945 1.05743 54.4575C0.880669 57.0206 2.64829 65.1516 8.03954 68.8636" stroke="black" stroke-width="2" stroke-linecap="round" stroke-linejoin="round"/>
<path d="M16.4341 32.7159C19.1739 32.1857 25.1838 34.2184 24.9187 42.3495C22.0905 52.0714 18.8204 54.8112 18.732 54.8996" stroke="black" stroke-width="2" stroke-linecap="round" stroke-linejoin="round"/>
<path d="M8.8363 73.8131C10.1915 75.5513 12.9725 79.9291 13.2554 83.535" stroke="black" stroke-width="2" stroke-linecap="round" stroke-linejoin="round"/>
<path d="M25.894 28.6502C27.1019 27.8548 30.0302 27.1124 32.0807 30.5062C34.6437 34.7485 35.4391 50.8339 33.7599 53.2202C32.0807 55.6065 29.0757 58.3463 25.894 57.2857C23.3486 56.4373 22.889 55.2235 22.9774 54.7227" stroke="black" stroke-width="2" stroke-linecap="round" stroke-linejoin="round"/>
<path d="M31.7246 30.1522C32.9914 28.7381 36.6209 26.5639 41.0046 29.18C46.4842 32.4501 47.2797 42.879 43.7444 50.7449C40.2092 58.6109 36.1437 58.0806 35.8785 57.9922C35.6664 57.9215 34.6117 57.5503 34.1109 57.3735" stroke="black" stroke-width="2" stroke-linecap="round" stroke-linejoin="round"/>
<path d="M45.4236 34.6601C47.2796 33.6585 51.5572 33.5995 53.8198 41.3771C54.026 42.4377 54.3147 45.0361 53.8198 46.9451C53.2011 49.3314 51.6986 52.6899 45.9539 55.2529" stroke="black" stroke-width="2" stroke-linecap="round" stroke-linejoin="round"/>
<path d="M51.1708 48.5353C51.7011 52.9838 52.3374 62.6763 50.6405 65.858C48.9436 69.0397 47.1642 71.2492 46.4866 71.9563" stroke="black" stroke-width="2" stroke-linecap="round" stroke-linejoin="round"/>
<path d="M47.8981 79.7347C48.5462 81.9147 49.648 87.2117 48.8703 90.9591" stroke="black" stroke-width="2" stroke-linecap="round" stroke-linejoin="round"/>
<path d="M7.24475 82.386V93.6988H51.0818" stroke="black" stroke-width="2" stroke-linecap="round" stroke-linejoin="round"/>
</svg>
