<svg width="534" height="180" viewBox="0 0 534 180" fill="none" xmlns="http://www.w3.org/2000/svg">
<path d="M85.833 123.262C53.9629 128.703 36.8172 137.367 32.228 141.02C35.5648 142.281 56.4723 137.294 56.362 135.761C56.2517 134.229 56.5826 132.231 60.775 132.697C64.9673 133.163 64.9748 138.753 61.429 144.168C58.5924 148.501 50.6526 161.339 47.0372 167.216L99.1813 154.244C95.7746 146.309 88.3355 129.005 85.833 123.262Z" fill="#BEC7B4"/>
<path d="M450.009 123.342C481.879 128.783 499.025 137.448 503.614 141.1C500.277 142.362 479.369 137.374 479.48 135.842C479.59 134.309 479.259 132.311 475.067 132.777C470.875 133.244 470.867 138.833 474.413 144.249C477.249 148.581 485.189 161.419 488.805 167.296L436.66 154.324C440.067 146.39 447.506 129.085 450.009 123.342Z" fill="#BEC7B4"/>
<ellipse cx="266.999" cy="88.2964" rx="47.7771" ry="34.7633" fill="#ED972E"/>
<path d="M437.593 149.464C290.674 119.564 149.816 137.006 97.7525 149.464C94.1328 140.693 84.7518 117.718 76.1851 95.9921C236.811 53.2144 399.4 78.168 460.616 95.9921C455.619 107.846 444.018 135.137 437.593 149.464Z" fill="white"/>
<path d="M120.781 151.764L115.926 146.675C238.013 122.468 372.532 136.036 417.842 146.01C417.472 147.127 416.455 149.841 415.345 151.764C388.43 148.135 308.24 143.329 272.168 142.826C231.397 142.258 159.689 147.957 120.781 151.764Z" fill="#ED972E"/>
<path d="M168.759 25.5107L180.01 31.3488" stroke="black" stroke-width="2.5" stroke-linecap="round"/>
<path d="M187.622 35.0986L195.512 39.1582" stroke="black" stroke-width="2.5" stroke-linecap="round"/>
<path d="M204.095 43.4501L223.08 52.7908" stroke="black" stroke-width="2.5" stroke-linecap="round"/>
<path d="M208.489 6.93494L215.521 14.5776" stroke="black" stroke-width="2.5" stroke-linecap="round"/>
<path d="M222.553 21.7955L227.651 27.7398" stroke="black" stroke-width="2.5" stroke-linecap="round"/>
<path d="M232.573 33.3654L243.296 45.8909" stroke="black" stroke-width="2.5" stroke-linecap="round"/>
<path d="M268.786 1.30969L268.786 8.45075" stroke="black" stroke-width="2.5" stroke-linecap="round"/>
<path d="M268.786 17.2316V45.3605" stroke="black" stroke-width="2.5" stroke-linecap="round"/>
<path d="M323.458 7.0415L317.48 14.4718" stroke="black" stroke-width="2.5" stroke-linecap="round"/>
<path d="M312.207 21.3717L307.46 26.9974" stroke="black" stroke-width="2.5" stroke-linecap="round"/>
<path d="M302.889 33.3654L292.341 45.5723" stroke="black" stroke-width="2.5" stroke-linecap="round"/>
<path d="M368.635 25.6162L359.155 30.1263" stroke="black" stroke-width="2.5" stroke-linecap="round"/>
<path d="M351.407 34.3212L342.266 38.8855" stroke="black" stroke-width="2.5" stroke-linecap="round"/>
<path d="M332.774 43.3434L314.139 52.5782" stroke="black" stroke-width="2.5" stroke-linecap="round"/>
<path d="M398.345 47.8026L385.798 50.4216" stroke="black" stroke-width="2.5" stroke-linecap="round"/>
<path d="M375.844 52.4724L364.593 55.0198" stroke="black" stroke-width="2.5" stroke-linecap="round"/>
<path d="M352.288 57.3556L328.731 62.557" stroke="black" stroke-width="2.5" stroke-linecap="round"/>
<path d="M76.3344 120.028C59.3026 123.596 20.512 133.88 1.60352 146.473C21.0682 143.282 46.7894 139.127 57.2169 137.448C50.497 146.543 36.5705 167.335 34.624 177.745C46.7894 173.757 77.3768 161.794 102.055 159.695C97.8842 150.292 83.1701 113.242 76.3344 95.8915C117.424 84.0648 190.216 72.0189 267.389 72.0188C337.8 72.0187 406.192 81.4083 460.761 95.8915C454.847 109.897 440.418 143.976 433.943 159.265C447.212 161.528 479.371 168.476 501.858 178.164C496.084 165.137 483.625 141.008 479.523 137.155C487.272 138.715 514.924 142.935 532.396 146.146C520.697 139.907 491.07 125.687 459.772 120.183" stroke="black" stroke-width="2.5" stroke-linecap="round" stroke-linejoin="round"/>
<path d="M115.234 146.178C196.557 127.931 345.498 130.073 420.757 146.178" stroke="black" stroke-width="2.5" stroke-linecap="round"/>
<path d="M138.063 49.1453L151.777 51.7708" stroke="black" stroke-width="2.5" stroke-linecap="round"/>
<path d="M159.971 53.5339L172.459 55.8743" stroke="black" stroke-width="2.5" stroke-linecap="round"/>
<path d="M184.406 58.2036L208.489 63.405" stroke="black" stroke-width="2.5" stroke-linecap="round"/>
<path d="M110.095 123.685L122.03 120.97L124.111 130.12L122.005 130.599L120.382 123.462L112.589 125.234L114.233 132.465L112.197 132.929L110.095 123.685ZM117.921 108.859L120.024 110.203C119.02 110.841 117.86 111.474 116.542 112.102C115.237 112.711 113.866 113.285 112.43 113.825C110.994 114.365 109.604 114.854 108.259 115.291C108.152 115.036 107.986 114.738 107.76 114.395C107.55 114.049 107.356 113.773 107.178 113.568C108.167 113.228 109.169 112.869 110.182 112.491C111.192 112.097 112.177 111.7 113.136 111.302C114.092 110.887 114.976 110.481 115.788 110.083C116.612 109.666 117.323 109.258 117.921 108.859ZM112.756 112.446L114.863 111.967L117.428 123.247L115.322 123.726L112.756 112.446ZM107.226 118.43L122.133 115.039L122.617 117.169L107.71 120.56L107.226 118.43ZM112.944 129.608L122.258 127.49L122.716 129.502L113.401 131.621L112.944 129.608ZM100.551 114.731L101.458 112.875C101.957 112.975 102.513 113.111 103.126 113.283C103.755 113.452 104.359 113.618 104.938 113.782C105.517 113.946 105.996 114.107 106.377 114.267L105.495 116.338C105.114 116.179 104.64 116.007 104.073 115.824C103.503 115.626 102.91 115.433 102.293 115.245C101.672 115.042 101.091 114.87 100.551 114.731ZM100.897 121.445L101.747 119.553C102.245 119.653 102.801 119.789 103.415 119.962C104.025 120.118 104.619 120.278 105.198 120.442C105.788 120.587 106.274 120.739 106.655 120.898L105.83 123.006C105.465 122.843 104.991 122.672 104.409 122.492C103.842 122.309 103.242 122.126 102.61 121.941C101.993 121.754 101.422 121.588 100.897 121.445ZM104.005 132.946C104.292 132.257 104.598 131.441 104.925 130.497C105.252 129.553 105.576 128.56 105.897 127.519C106.214 126.463 106.498 125.438 106.748 124.446L108.698 125.553C108.477 126.457 108.226 127.408 107.945 128.407C107.675 129.387 107.395 130.354 107.103 131.306C106.811 132.259 106.508 133.164 106.195 134.023L104.005 132.946ZM129.126 122.312L139.994 120.235L140.309 121.885L129.442 123.962L129.126 122.312ZM126.379 111.133L138.165 108.88L138.485 110.554L126.699 112.807L126.379 111.133ZM130.936 108.259L132.987 107.867L136.267 125.028L134.216 125.42L130.936 108.259ZM129.224 126.276C130.165 125.999 131.255 125.693 132.494 125.358C133.746 125.005 135.067 124.63 136.457 124.234C137.845 123.822 139.226 123.42 140.6 123.027L140.948 124.72C139.643 125.132 138.32 125.54 136.979 125.942C135.658 126.358 134.388 126.747 133.171 127.11C131.956 127.489 130.855 127.822 129.867 128.108L129.224 126.276ZM130.228 117.85L130.503 119.288L137.528 117.945L137.253 116.507L130.228 117.85ZM129.688 115.021L129.962 116.459L136.987 115.117L136.712 113.679L129.688 115.021ZM127.593 113.907L138.319 111.857L139.693 119.046L128.967 121.096L127.593 113.907ZM136.04 105.304L137.397 106.779C136.478 107.167 135.42 107.556 134.224 107.948C133.044 108.336 131.811 108.702 130.525 109.046C129.251 109.371 128.029 109.669 126.86 109.942C126.783 109.712 126.66 109.451 126.49 109.157C126.335 108.861 126.182 108.613 126.03 108.414C126.901 108.199 127.793 107.963 128.705 107.708C129.633 107.449 130.544 107.185 131.437 106.917C132.331 106.648 133.168 106.382 133.948 106.119C134.741 105.837 135.439 105.565 136.04 105.304ZM138.337 110.289L146.682 108.694L147.078 110.769L138.733 112.364L138.337 110.289ZM145.81 108.861L147.955 108.451C147.955 108.451 147.968 108.522 147.995 108.663C148.022 108.805 148.043 108.955 148.057 109.116C148.088 109.273 148.113 109.406 148.134 109.516C148.54 111.98 148.875 114.074 149.139 115.799C149.401 117.509 149.588 118.915 149.701 120.017C149.83 121.116 149.881 121.978 149.853 122.602C149.842 123.224 149.767 123.686 149.63 123.989C149.46 124.38 149.247 124.673 148.991 124.868C148.751 125.061 148.455 125.215 148.102 125.332C147.769 125.46 147.343 125.574 146.824 125.674C146.305 125.773 145.768 125.859 145.212 125.933C145.123 125.64 144.977 125.302 144.773 124.917C144.585 124.53 144.376 124.203 144.146 123.937C144.705 123.879 145.214 123.815 145.673 123.743C146.129 123.656 146.475 123.59 146.71 123.545C146.899 123.509 147.052 123.455 147.168 123.384C147.285 123.313 147.383 123.188 147.463 123.01C147.572 122.81 147.621 122.426 147.61 121.858C147.615 121.287 147.549 120.477 147.414 119.428C147.291 118.36 147.105 117.003 146.856 115.356C146.622 113.707 146.305 111.707 145.904 109.356L145.81 108.861ZM139.957 104.702L142.102 104.292C142.456 106.228 142.779 108.088 143.071 109.873C143.379 111.655 143.598 113.356 143.729 114.976C143.872 116.578 143.87 118.102 143.723 119.547C143.591 120.989 143.278 122.336 142.784 123.587C142.306 124.835 141.59 125.99 140.637 127.052C140.494 126.9 140.307 126.732 140.076 126.548C139.864 126.377 139.638 126.216 139.398 126.067C139.157 125.917 138.932 125.805 138.723 125.731C139.629 124.76 140.307 123.71 140.76 122.581C141.209 121.436 141.487 120.21 141.596 118.903C141.717 117.576 141.701 116.17 141.547 114.685C141.406 113.181 141.194 111.6 140.91 109.944C140.626 108.288 140.308 106.541 139.957 104.702ZM162.181 101.979L173.808 100.221L174.131 102.356L162.503 104.114L162.181 101.979ZM169.821 108.202L172.099 107.858L173.713 118.537C173.811 119.185 173.8 119.697 173.678 120.071C173.575 120.459 173.307 120.775 172.875 121.018C172.458 121.259 171.88 121.451 171.142 121.595C170.419 121.737 169.496 121.893 168.372 122.063C168.277 121.753 168.126 121.396 167.919 120.99C167.728 120.582 167.529 120.232 167.323 119.94C167.848 119.877 168.356 119.816 168.849 119.758C169.34 119.683 169.767 119.619 170.131 119.564C170.495 119.509 170.746 119.463 170.886 119.425C171.124 119.389 171.277 119.334 171.347 119.259C171.43 119.165 171.458 119.031 171.432 118.857L169.821 108.202ZM162.15 108.682L175.463 106.67L175.786 108.806L162.473 110.818L162.15 108.682ZM157.484 111.694L159.156 109.426L159.459 109.502L161.532 123.218L159.278 123.559L157.484 111.694ZM159.442 106.179L161.676 106.667C161.23 107.786 160.68 108.913 160.027 110.047C159.373 111.182 158.679 112.266 157.945 113.299C157.211 114.332 156.469 115.254 155.717 116.063C155.599 115.919 155.426 115.743 155.201 115.534C154.972 115.31 154.738 115.095 154.496 114.888C154.268 114.664 154.064 114.493 153.884 114.374C154.605 113.683 155.31 112.888 156 111.991C156.705 111.092 157.355 110.144 157.949 109.148C158.542 108.152 159.04 107.162 159.442 106.179ZM157.718 101.197L160.013 101.772C159.583 102.566 159.068 103.388 158.469 104.239C157.867 105.074 157.238 105.889 156.581 106.685C155.922 107.464 155.26 108.171 154.596 108.805C154.475 108.645 154.318 108.467 154.126 108.269C153.948 108.054 153.763 107.847 153.572 107.649C153.38 107.452 153.202 107.293 153.038 107.172C153.636 106.628 154.23 106.012 154.822 105.324C155.43 104.634 155.986 103.927 156.492 103.203C156.997 102.479 157.406 101.811 157.718 101.197ZM194.836 107.733L197.079 107.486L198.137 117.1L195.895 117.347L194.836 107.733ZM190.022 116.641L203.572 115.149L203.793 117.153L190.243 118.645L190.022 116.641ZM190.745 111.805L202.077 110.557L202.29 112.49L190.958 113.737L190.745 111.805ZM191.757 99.7174L192.201 103.749L198.833 103.019L198.389 98.9874L191.757 99.7174ZM189.445 98.0162L200.371 96.8134L201.24 104.71L190.314 105.912L189.445 98.0162ZM200.354 105.435L201.948 106.974C200.96 107.356 199.817 107.716 198.517 108.052C197.217 108.372 195.874 108.673 194.488 108.954C193.102 109.235 191.776 109.47 190.509 109.658C190.451 109.423 190.348 109.144 190.2 108.822C190.066 108.483 189.922 108.201 189.769 107.977C190.702 107.826 191.657 107.656 192.634 107.468C193.626 107.262 194.592 107.051 195.534 106.835C196.492 106.617 197.377 106.391 198.188 106.156C199.015 105.92 199.737 105.68 200.354 105.435ZM183.562 99.6295L185.757 99.388L187.963 119.427L185.768 119.669L183.562 99.6295ZM180.374 104.665L189.081 103.706L189.315 105.829L180.608 106.788L180.374 104.665ZM184.283 105.079L185.708 105.526C185.562 106.395 185.373 107.309 185.141 108.269C184.907 109.212 184.64 110.151 184.34 111.085C184.057 112.018 183.735 112.898 183.376 113.727C183.016 114.555 182.636 115.273 182.236 115.88C182.09 115.574 181.884 115.235 181.617 114.862C181.349 114.473 181.113 114.153 180.908 113.902C181.285 113.377 181.644 112.766 181.986 112.069C182.326 111.355 182.645 110.604 182.945 109.814C183.258 109.007 183.523 108.197 183.74 107.385C183.972 106.57 184.153 105.802 184.283 105.079ZM187.087 97.4307L188.829 99.0015C188.083 99.3894 187.239 99.764 186.297 100.125C185.371 100.485 184.409 100.816 183.412 101.119C182.43 101.404 181.468 101.663 180.528 101.895C180.454 101.662 180.327 101.386 180.147 101.068C179.981 100.732 179.83 100.451 179.692 100.225C180.583 99.9817 181.487 99.7131 182.404 99.419C183.32 99.1089 184.186 98.7883 185.002 98.4569C185.833 98.1079 186.528 97.7658 187.087 97.4307ZM186.571 107.218C186.726 107.314 186.972 107.504 187.309 107.789C187.645 108.057 188.007 108.348 188.395 108.659C188.799 108.969 189.162 109.267 189.484 109.553C189.803 109.824 190.026 110.025 190.153 110.156L189.036 112.065C188.865 111.827 188.631 111.53 188.334 111.177C188.054 110.821 187.74 110.461 187.395 110.097C187.063 109.715 186.742 109.356 186.431 109.02C186.12 108.684 185.857 108.415 185.642 108.214L186.571 107.218ZM221.21 114.251L220.263 98.9445L215.113 99.2633L214.968 96.9158L228.118 96.1018L228.264 98.4493L223.09 98.7695L224.037 114.076L221.21 114.251ZM233.453 113.535L232.91 100.322L235.164 100.229L235.501 102.593L235.549 102.591C235.994 101.724 236.535 101.046 237.171 100.555C237.807 100.049 238.484 99.7805 239.204 99.7509C239.523 99.7377 239.796 99.7505 240.022 99.7893C240.248 99.828 240.466 99.8831 240.677 99.9545L240.297 102.396C240.054 102.326 239.836 102.279 239.643 102.255C239.45 102.231 239.217 102.224 238.946 102.236C238.418 102.257 237.867 102.496 237.294 102.952C236.719 103.392 236.246 104.148 235.874 105.22L236.211 113.421L233.453 113.535ZM248.305 113.372C247.553 113.386 246.878 113.239 246.28 112.931C245.698 112.622 245.233 112.183 244.886 111.613C244.539 111.044 244.358 110.375 244.344 109.608C244.316 108.184 244.919 107.076 246.152 106.284C247.401 105.476 249.398 104.893 252.143 104.536C252.118 104.025 252.028 103.554 251.876 103.125C251.724 102.696 251.461 102.357 251.088 102.108C250.731 101.843 250.225 101.717 249.569 101.729C248.881 101.743 248.22 101.892 247.585 102.176C246.95 102.46 246.349 102.784 245.779 103.147L244.712 101.295C245.17 100.998 245.677 100.716 246.232 100.45C246.786 100.167 247.382 99.9393 248.019 99.767C248.655 99.5787 249.318 99.4779 250.005 99.4647C251.109 99.4434 252.017 99.65 252.73 100.084C253.442 100.503 253.974 101.125 254.326 101.95C254.694 102.775 254.889 103.779 254.912 104.963L255.065 112.906L252.809 112.949L252.564 111.442L252.468 111.443C251.886 111.967 251.247 112.419 250.55 112.801C249.853 113.166 249.105 113.357 248.305 113.372ZM249.102 111.148C249.678 111.137 250.211 110.999 250.702 110.733C251.193 110.452 251.705 110.05 252.24 109.528L252.178 106.312C250.885 106.481 249.857 106.717 249.095 107.02C248.332 107.306 247.786 107.645 247.458 108.035C247.145 108.409 246.993 108.844 247.003 109.34C247.016 109.996 247.225 110.464 247.63 110.744C248.036 111.025 248.526 111.159 249.102 111.148ZM264.502 112.855L259.973 99.5955L262.781 99.6175L264.981 106.763C265.168 107.404 265.355 108.062 265.542 108.735C265.729 109.393 265.916 110.05 266.103 110.708L266.199 110.709C266.412 110.054 266.617 109.4 266.814 108.745C267.011 108.075 267.2 107.42 267.381 106.782L269.693 99.6716L272.381 99.6926L267.742 112.881L264.502 112.855ZM282.646 113.508C281.446 113.471 280.367 113.165 279.409 112.591C278.45 112.001 277.699 111.185 277.156 110.144C276.612 109.086 276.363 107.83 276.409 106.375C276.442 105.303 276.64 104.349 277.002 103.512C277.365 102.659 277.843 101.945 278.437 101.371C279.032 100.781 279.694 100.338 280.424 100.04C281.153 99.743 281.894 99.606 282.645 99.6294C283.813 99.6657 284.788 99.9602 285.571 100.513C286.355 101.05 286.94 101.796 287.327 102.753C287.713 103.693 287.887 104.787 287.849 106.034C287.84 106.306 287.816 106.57 287.776 106.825C287.753 107.064 287.714 107.271 287.661 107.445L279.097 107.179C279.151 108.013 279.344 108.739 279.677 109.358C280.027 109.961 280.484 110.439 281.049 110.793C281.631 111.131 282.298 111.312 283.049 111.336C283.641 111.354 284.196 111.283 284.713 111.123C285.23 110.963 285.733 110.739 286.222 110.45L287.127 112.231C286.507 112.612 285.817 112.927 285.057 113.175C284.313 113.424 283.509 113.535 282.646 113.508ZM279.133 105.259L285.465 105.456C285.5 104.337 285.272 103.457 284.779 102.817C284.303 102.178 283.585 101.844 282.625 101.814C282.082 101.797 281.566 101.917 281.077 102.174C280.589 102.431 280.169 102.818 279.817 103.335C279.48 103.853 279.252 104.494 279.133 105.259ZM296.117 114.035C295.445 113.998 294.918 113.834 294.533 113.541C294.149 113.232 293.883 112.817 293.735 112.296C293.587 111.759 293.532 111.139 293.57 110.436L294.431 94.4516L297.187 94.6L296.319 110.729C296.299 111.096 296.348 111.363 296.468 111.53C296.604 111.681 296.752 111.761 296.911 111.77C296.975 111.774 297.039 111.777 297.103 111.78C297.168 111.768 297.265 111.757 297.393 111.748L297.617 113.851C297.453 113.906 297.251 113.951 297.008 113.986C296.765 114.037 296.468 114.054 296.117 114.035ZM316.61 115.484C315.398 115.379 314.271 115.048 313.227 114.492C312.199 113.938 311.313 113.219 310.571 112.336L312.362 110.563C312.946 111.24 313.628 111.805 314.407 112.258C315.203 112.712 316.032 112.976 316.892 113.051C317.944 113.142 318.769 112.98 319.367 112.566C319.981 112.154 320.32 111.581 320.383 110.847C320.43 110.305 320.348 109.865 320.136 109.525C319.926 109.17 319.615 108.862 319.204 108.602C318.809 108.343 318.351 108.07 317.83 107.784L315.482 106.521C314.928 106.232 314.389 105.873 313.865 105.442C313.357 104.996 312.946 104.463 312.63 103.841C312.332 103.205 312.22 102.457 312.294 101.596C312.374 100.672 312.693 99.8641 313.25 99.1736C313.808 98.483 314.543 97.9684 315.455 97.6298C316.369 97.2752 317.384 97.1461 318.5 97.2426C319.536 97.3322 320.499 97.6162 321.39 98.0947C322.28 98.5731 323.022 99.1834 323.616 99.9253L322.052 101.573C321.537 101.03 320.972 100.596 320.358 100.27C319.761 99.9293 319.072 99.7252 318.291 99.6576C317.383 99.5791 316.648 99.7243 316.086 100.093C315.525 100.446 315.215 100.965 315.156 101.651C315.112 102.161 315.211 102.595 315.453 102.953C315.696 103.296 316.024 103.597 316.435 103.857C316.863 104.103 317.3 104.342 317.746 104.573L320.072 105.81C320.749 106.157 321.34 106.562 321.846 107.023C322.352 107.485 322.731 108.023 322.983 108.639C323.235 109.255 323.323 110.002 323.247 110.878C323.166 111.819 322.844 112.658 322.283 113.397C321.722 114.119 320.959 114.679 319.993 115.078C319.029 115.46 317.901 115.595 316.61 115.484ZM333.883 117.156C332.691 117.024 331.655 116.635 330.777 115.99C329.9 115.33 329.24 114.46 328.797 113.38C328.355 112.285 328.214 111.013 328.374 109.566C328.537 108.103 328.976 106.896 329.694 105.946C330.413 104.979 331.295 104.28 332.341 103.849C333.387 103.417 334.482 103.265 335.627 103.392C336.47 103.486 337.186 103.71 337.774 104.065C338.363 104.42 338.872 104.839 339.301 105.321L337.743 106.959C337.428 106.602 337.09 106.315 336.728 106.098C336.367 105.865 335.964 105.724 335.519 105.674C334.788 105.593 334.114 105.719 333.497 106.054C332.882 106.372 332.369 106.862 331.957 107.525C331.563 108.173 331.315 108.959 331.213 109.881C331.111 110.803 331.18 111.632 331.42 112.367C331.663 113.086 332.041 113.667 332.555 114.111C333.069 114.554 333.684 114.816 334.4 114.895C334.956 114.957 335.486 114.903 335.987 114.733C336.491 114.547 336.96 114.31 337.395 114.02L338.336 115.983C337.672 116.457 336.95 116.796 336.171 116.999C335.393 117.186 334.631 117.239 333.883 117.156ZM343.519 117.94L346.141 98.9926L348.875 99.371L348.181 104.387L347.703 106.962C348.353 106.47 349.046 106.074 349.782 105.772C350.521 105.454 351.334 105.357 352.221 105.479C353.616 105.673 354.568 106.265 355.077 107.256C355.604 108.233 355.752 109.554 355.522 111.218L354.383 119.444L351.649 119.065L352.742 111.173C352.897 110.047 352.834 109.223 352.551 108.699C352.27 108.16 351.742 107.836 350.965 107.728C350.363 107.645 349.803 107.721 349.286 107.956C348.787 108.178 348.204 108.542 347.536 109.047L346.253 118.318L343.519 117.94ZM366.308 121.62C365.124 121.426 364.094 120.982 363.219 120.287C362.346 119.577 361.708 118.67 361.305 117.567C360.904 116.447 360.821 115.169 361.056 113.732C361.229 112.674 361.55 111.754 362.019 110.972C362.49 110.173 363.057 109.528 363.721 109.037C364.388 108.53 365.102 108.177 365.865 107.977C366.627 107.778 367.379 107.738 368.121 107.86C369.274 108.048 370.202 108.468 370.907 109.118C371.613 109.752 372.096 110.569 372.354 111.568C372.615 112.551 372.644 113.658 372.443 114.89C372.399 115.158 372.341 115.416 372.268 115.664C372.213 115.898 372.148 116.098 372.072 116.264L363.617 114.881C363.561 115.715 363.658 116.46 363.907 117.117C364.175 117.761 364.566 118.295 365.08 118.719C365.613 119.131 366.25 119.397 366.992 119.519C367.576 119.614 368.135 119.616 368.669 119.525C369.203 119.434 369.731 119.278 370.254 119.055L370.918 120.939C370.254 121.236 369.528 121.457 368.742 121.604C367.972 121.754 367.161 121.759 366.308 121.62ZM363.903 112.982L370.156 114.005C370.337 112.9 370.225 111.998 369.82 111.299C369.431 110.603 368.763 110.178 367.816 110.023C367.279 109.935 366.752 109.987 366.234 110.178C365.717 110.369 365.249 110.697 364.833 111.164C364.431 111.634 364.122 112.24 363.903 112.982ZM381.35 124.239C380.281 124.038 379.395 123.594 378.694 122.908C377.993 122.223 377.519 121.327 377.271 120.222C377.023 119.117 377.034 117.85 377.304 116.419C377.567 115.019 378.055 113.858 378.766 112.933C379.493 112.012 380.325 111.355 381.262 110.961C382.215 110.571 383.171 110.466 384.13 110.647C384.885 110.789 385.496 111.043 385.965 111.408C386.452 111.76 386.912 112.213 387.345 112.767L387.655 110.603L388.562 105.791L391.274 106.302L387.733 125.099L385.516 124.682L385.555 123.175L385.485 123.162C384.903 123.573 384.257 123.891 383.547 124.116C382.837 124.34 382.105 124.381 381.35 124.239ZM382.441 122.076C382.992 122.179 383.526 122.15 384.045 121.987C384.564 121.824 385.112 121.512 385.687 121.051L386.878 114.73C386.486 114.217 386.071 113.829 385.631 113.567C385.195 113.29 384.733 113.105 384.246 113.013C383.649 112.901 383.063 112.986 382.488 113.268C381.933 113.538 381.442 113.983 381.016 114.603C380.593 115.207 380.292 115.98 380.115 116.924C379.931 117.899 379.9 118.756 380.021 119.495C380.145 120.219 380.411 120.798 380.817 121.232C381.24 121.67 381.781 121.951 382.441 122.076ZM398.141 127.553C396.765 127.258 395.852 126.595 395.402 125.566C394.952 124.536 394.902 123.208 395.251 121.581L397 113.439L399.722 114.023L398.043 121.837C397.808 122.932 397.811 123.759 398.051 124.318C398.291 124.877 398.786 125.237 399.537 125.398C400.131 125.526 400.695 125.492 401.228 125.295C401.765 125.083 402.371 124.698 403.048 124.139L404.978 115.152L407.7 115.737L404.923 128.666L402.694 128.187L402.901 126.194L402.83 126.179C402.092 126.724 401.348 127.137 400.6 127.419C399.853 127.7 399.033 127.745 398.141 127.553ZM414.156 131.102C413.502 130.946 413.013 130.689 412.687 130.332C412.364 129.959 412.177 129.503 412.125 128.964C412.076 128.41 412.133 127.79 412.296 127.105L416.01 111.534L418.695 112.174L414.948 127.886C414.862 128.244 414.863 128.515 414.951 128.701C415.057 128.874 415.189 128.979 415.344 129.016C415.406 129.031 415.469 129.046 415.531 129.061C415.597 129.06 415.694 129.067 415.822 129.081L415.665 131.19C415.494 131.215 415.287 131.223 415.042 131.214C414.794 131.221 414.498 131.183 414.156 131.102ZM426.483 134.14C425.32 133.847 424.331 133.318 423.518 132.552C422.708 131.77 422.149 130.813 421.841 129.679C421.536 128.53 421.562 127.249 421.918 125.837C422.18 124.798 422.577 123.908 423.11 123.168C423.647 122.412 424.267 121.817 424.97 121.384C425.677 120.935 426.419 120.644 427.195 120.509C427.972 120.375 428.725 120.399 429.454 120.583C430.586 120.868 431.476 121.365 432.123 122.072C432.773 122.764 433.185 123.619 433.358 124.636C433.535 125.637 433.47 126.743 433.166 127.953C433.099 128.217 433.019 128.469 432.926 128.71C432.851 128.938 432.77 129.132 432.68 129.291L424.372 127.198C424.246 128.024 424.279 128.775 424.472 129.451C424.684 130.115 425.029 130.68 425.505 131.147C426.001 131.602 426.614 131.921 427.343 132.105C427.917 132.249 428.474 132.299 429.013 132.253C429.553 132.208 430.092 132.096 430.632 131.919L431.135 133.852C430.448 134.091 429.706 134.251 428.91 134.331C428.13 134.415 427.321 134.351 426.483 134.14ZM424.817 125.33L430.961 126.878C431.235 125.792 431.2 124.884 430.856 124.154C430.527 123.428 429.898 122.947 428.967 122.713C428.439 122.58 427.909 122.587 427.378 122.733C426.846 122.88 426.352 123.168 425.897 123.598C425.458 124.031 425.098 124.609 424.817 125.33Z" fill="black"/>
</svg>
