<svg width="24" height="24" viewBox="0 0 24 24" fill="none" xmlns="http://www.w3.org/2000/svg">
<path fill-rule="evenodd" clip-rule="evenodd" d="M22.5 12.25C22.5 18.1872 17.6872 23 11.75 23C5.81278 23 1 18.1872 1 12.25C1 6.31278 5.81278 1.5 11.75 1.5C17.6872 1.5 22.5 6.31278 22.5 12.25ZM11.75 20.85C14.0309 20.85 16.2183 19.9439 17.8311 18.3311C19.4439 16.7183 20.35 14.5309 20.35 12.25C20.35 9.96914 19.4439 7.78169 17.8311 6.16888C16.2183 4.55607 14.0309 3.65 11.75 3.65C9.46914 3.65 7.28169 4.55607 5.66888 6.16888C4.05607 7.78169 3.15 9.96914 3.15 12.25C3.15 14.5309 4.05607 16.7183 5.66888 18.3311C7.28169 19.9439 9.46914 20.85 11.75 20.85Z" fill="white"/>
<path fill-rule="evenodd" clip-rule="evenodd" d="M11.75 14.4C11.4649 14.4 11.1915 14.2867 10.9899 14.0851C10.7883 13.8835 10.675 13.6101 10.675 13.325V7.95C10.675 7.66489 10.7883 7.39146 10.9899 7.18986C11.1915 6.98826 11.4649 6.875 11.75 6.875C12.0351 6.875 12.3085 6.98826 12.5101 7.18986C12.7117 7.39146 12.825 7.66489 12.825 7.95V13.325C12.825 13.6101 12.7117 13.8835 12.5101 14.0851C12.3085 14.2867 12.0351 14.4 11.75 14.4Z" fill="white"/>
<path d="M10.6748 16.5496C10.6748 16.2645 10.7881 15.9911 10.9897 15.7895C11.1913 15.5879 11.4647 15.4746 11.7498 15.4746C12.0349 15.4746 12.3083 15.5879 12.5099 15.7895C12.7115 15.9911 12.8248 16.2645 12.8248 16.5496C12.8248 16.8347 12.7115 17.1081 12.5099 17.3098C12.3083 17.5114 12.0349 17.6246 11.7498 17.6246C11.4647 17.6246 11.1913 17.5114 10.9897 17.3098C10.7881 17.1081 10.6748 16.8347 10.6748 16.5496Z" fill="white"/>
</svg>
