<svg width="24" height="24" viewBox="0 0 24 24" fill="none" xmlns="http://www.w3.org/2000/svg">
<path d="M12 2.99999C10.1435 2.99999 8.36301 3.73749 7.05025 5.05025C5.7375 6.363 5 8.14348 5 9.99999C5 12.862 6.782 15.623 8.738 17.762C9.73814 18.8516 10.8294 19.8539 12 20.758C12.1747 20.624 12.3797 20.4607 12.615 20.268C13.5548 19.4963 14.4393 18.6595 15.262 17.764C17.218 15.623 19 12.863 19 9.99999C19 8.14348 18.2625 6.363 16.9497 5.05025C15.637 3.73749 13.8565 2.99999 12 2.99999ZM12 23.214L11.433 22.824L11.43 22.822L11.424 22.817L11.404 22.803L11.329 22.75L11.059 22.553C9.69086 21.5248 8.41988 20.3733 7.262 19.113C5.218 16.875 3 13.636 3 9.99899C3 7.61204 3.94821 5.32286 5.63604 3.63503C7.32387 1.9472 9.61305 0.998993 12 0.998993C14.3869 0.998993 16.6761 1.9472 18.364 3.63503C20.0518 5.32286 21 7.61204 21 9.99899C21 13.636 18.782 16.876 16.738 19.111C15.5804 20.3712 14.3098 21.5227 12.942 22.551C12.8281 22.6361 12.713 22.7198 12.597 22.802L12.576 22.816L12.57 22.821L12.568 22.822L12 23.214ZM12 7.99999C11.4696 7.99999 10.9609 8.21071 10.5858 8.58578C10.2107 8.96085 10 9.46956 10 9.99999C10 10.5304 10.2107 11.0391 10.5858 11.4142C10.9609 11.7893 11.4696 12 12 12C12.5304 12 13.0391 11.7893 13.4142 11.4142C13.7893 11.0391 14 10.5304 14 9.99999C14 9.46956 13.7893 8.96085 13.4142 8.58578C13.0391 8.21071 12.5304 7.99999 12 7.99999ZM8 9.99999C8 8.93913 8.42143 7.92171 9.17157 7.17157C9.92172 6.42142 10.9391 5.99999 12 5.99999C13.0609 5.99999 14.0783 6.42142 14.8284 7.17157C15.5786 7.92171 16 8.93913 16 9.99999C16 11.0609 15.5786 12.0783 14.8284 12.8284C14.0783 13.5786 13.0609 14 12 14C10.9391 14 9.92172 13.5786 9.17157 12.8284C8.42143 12.0783 8 11.0609 8 9.99999Z" fill="white"/>
</svg>
