<svg width="24" height="24" viewBox="0 0 24 24" fill="none" xmlns="http://www.w3.org/2000/svg">
<path d="M4.5 8V12.5M19.5 8V12.5M2 2.5H22V6.5L21.301 6.92C20.757 7.24638 20.1346 7.41878 19.5002 7.41878C18.8659 7.41878 18.2435 7.24638 17.6995 6.92L17 6.5L16.301 6.92C15.757 7.24638 15.1346 7.41878 14.5002 7.41878C13.8659 7.41878 13.2435 7.24638 12.6995 6.92L12 6.5L11.301 6.92C10.757 7.24638 10.1346 7.41878 9.50025 7.41878C8.86589 7.41878 8.24346 7.24638 7.6995 6.92L7 6.5L6.3005 6.92C5.7566 7.24628 5.13426 7.41863 4.5 7.41863C3.86574 7.41863 3.2434 7.24628 2.6995 6.92L2 6.5V2.5ZM3 12.5H21V21.5H3V12.5Z" stroke="white" stroke-width="1.5" stroke-linecap="round" stroke-linejoin="round"/>
</svg>
