<svg width="513" height="161" viewBox="0 0 513 161" fill="none" xmlns="http://www.w3.org/2000/svg">
<path d="M82.8609 110.136C52.2654 114.96 35.8053 122.643 31.3997 125.882C34.603 127 54.6744 122.578 54.5685 121.219C54.4626 119.861 54.7803 118.089 58.805 118.502C62.8296 118.916 62.8369 123.872 59.4329 128.674C56.7097 132.515 49.0874 143.899 45.6166 149.11L95.6754 137.608C92.4049 130.572 85.2633 115.228 82.8609 110.136Z" fill="#BEC7B4"/>
<path d="M432.473 110.207C463.068 115.031 479.528 122.715 483.934 125.953C480.731 127.072 460.659 122.649 460.765 121.291C460.871 119.932 460.553 118.16 456.529 118.573C452.504 118.987 452.497 123.943 455.901 128.745C458.624 132.587 466.246 143.97 469.717 149.182L419.658 137.679C422.929 130.644 430.07 115.299 432.473 110.207Z" fill="#BEC7B4"/>
<ellipse cx="258.497" cy="79.1315" rx="31.0818" ry="30.8249" fill="#ED972E"/>
<path d="M420.553 133.37C279.51 106.857 144.285 122.323 94.3036 133.37C90.8286 125.592 81.8227 105.22 73.5986 85.9556C227.801 48.0242 383.887 70.1508 442.656 85.9556C437.858 96.4669 426.721 120.666 420.553 133.37Z" fill="white"/>
<path d="M116.413 135.408L111.752 130.896C228.956 109.432 358.096 121.462 401.594 130.306C401.238 131.297 400.262 133.704 399.196 135.408C373.358 132.191 296.374 127.929 261.745 127.484C222.605 126.98 153.764 132.033 116.413 135.408Z" fill="#ED972E"/>
<path d="M162.472 23.459L173.273 28.6356" stroke="black" stroke-width="2.5" stroke-linecap="round"/>
<path d="M180.578 31.9609L188.153 35.5605" stroke="black" stroke-width="2.5" stroke-linecap="round"/>
<path d="M196.393 39.3662L214.619 47.6487" stroke="black" stroke-width="2.5" stroke-linecap="round"/>
<path d="M200.612 6.98779L207.363 13.7646" stroke="black" stroke-width="2.5" stroke-linecap="round"/>
<path d="M214.113 20.165L219.007 25.4358" stroke="black" stroke-width="2.5" stroke-linecap="round"/>
<path d="M223.732 30.4238L234.027 41.5303" stroke="black" stroke-width="2.5" stroke-linecap="round"/>
<path d="M258.497 2L258.497 8.33203" stroke="black" stroke-width="2.5" stroke-linecap="round"/>
<path d="M258.497 16.1182V41.0603" stroke="black" stroke-width="2.5" stroke-linecap="round"/>
<path d="M310.982 7.08252L305.244 13.671" stroke="black" stroke-width="2.5" stroke-linecap="round"/>
<path d="M300.182 19.7891L295.625 24.7774" stroke="black" stroke-width="2.5" stroke-linecap="round"/>
<path d="M291.238 30.4238L281.112 41.2479" stroke="black" stroke-width="2.5" stroke-linecap="round"/>
<path d="M354.353 23.5527L345.252 27.5519" stroke="black" stroke-width="2.5" stroke-linecap="round"/>
<path d="M337.815 31.2715L329.04 35.3187" stroke="black" stroke-width="2.5" stroke-linecap="round"/>
<path d="M319.927 39.2715L302.037 47.4601" stroke="black" stroke-width="2.5" stroke-linecap="round"/>
<path d="M382.875 43.2256L370.829 45.5479" stroke="black" stroke-width="2.5" stroke-linecap="round"/>
<path d="M361.273 47.3662L350.472 49.625" stroke="black" stroke-width="2.5" stroke-linecap="round"/>
<path d="M338.659 51.6963L316.044 56.3084" stroke="black" stroke-width="2.5" stroke-linecap="round"/>
<path d="M73.7423 107.268C57.3917 110.432 20.1523 119.551 2 130.717C20.6863 127.888 45.3789 124.203 55.3894 122.715C48.9381 130.779 35.5686 149.216 33.6999 158.446C45.3789 154.91 74.743 144.303 98.4345 142.441C94.4303 134.104 80.3046 101.251 73.7423 85.8663C113.188 75.3796 183.07 64.6984 257.156 64.6982C324.751 64.6981 390.409 73.024 442.796 85.8663C437.118 98.2852 423.266 128.503 417.049 142.06C429.788 144.067 460.661 150.228 482.248 158.818C476.706 147.267 464.745 125.872 460.807 122.455C468.246 123.838 494.792 127.58 511.566 130.427C500.335 124.896 471.892 112.287 441.845 107.406" stroke="black" stroke-width="2.5" stroke-linecap="round" stroke-linejoin="round"/>
<path d="M111.088 130.456C189.158 114.277 332.143 116.175 404.392 130.456" stroke="black" stroke-width="2.5" stroke-linecap="round"/>
<path d="M133.002 44.416L146.167 46.7441" stroke="black" stroke-width="2.5" stroke-linecap="round"/>
<path d="M154.035 48.3076L166.024 50.3828" stroke="black" stroke-width="2.5" stroke-linecap="round"/>
<path d="M177.492 52.4482L200.612 57.0603" stroke="black" stroke-width="2.5" stroke-linecap="round"/>
<path d="M133.893 94.122L136.246 93.791L138.66 110.95L136.307 111.281L133.893 94.122ZM124.183 94.0096L145.762 90.9739L146.07 93.1603L124.491 96.196L124.183 94.0096ZM127.098 98.883L142.736 96.6831L143.044 98.8696L129.664 100.752L130.884 109.426L128.626 109.744L127.098 98.883ZM142.166 96.7633L144.495 96.4357L145.655 104.682C145.738 105.269 145.724 105.747 145.615 106.118C145.521 106.487 145.265 106.789 144.846 107.026C144.411 107.265 143.856 107.456 143.181 107.6C142.504 107.727 141.667 107.861 140.669 108.001C140.59 107.673 140.443 107.314 140.226 106.925C140.008 106.519 139.798 106.177 139.597 105.898C140.075 105.847 140.537 105.798 140.982 105.752C141.444 105.703 141.841 105.655 142.174 105.608C142.505 105.546 142.733 105.506 142.86 105.488C143.064 105.443 143.193 105.384 143.247 105.312C143.318 105.238 143.343 105.129 143.323 104.986L142.166 96.7633ZM132.28 89.8894L134.397 88.9131C134.807 89.4208 135.243 89.9897 135.703 90.6197C136.161 91.2339 136.512 91.7743 136.755 92.241L134.513 93.3562C134.371 93.0369 134.176 92.6846 133.928 92.2994C133.677 91.8984 133.409 91.4837 133.123 91.0554C132.836 90.6272 132.555 90.2385 132.28 89.8894ZM152.341 101.637L173.796 99.5879L173.971 101.428L152.517 103.476L152.341 101.637ZM155.928 91.9879L170.574 90.5894L170.722 92.1423L156.077 93.5408L155.928 91.9879ZM156.202 94.8548L170.895 93.4518L171.041 94.9808L156.348 96.3839L156.202 94.8548ZM161.671 89.5108L163.845 89.3032L164.657 97.8085L162.483 98.0161L161.671 89.5108ZM161.759 99.2666L164.004 99.0522L164.848 107.892L162.603 108.106L161.759 99.2666ZM155.992 86.3403L158.326 86.5513C157.72 87.9433 156.954 89.3504 156.029 90.7728C155.12 92.1936 154.02 93.5444 152.727 94.825C152.585 94.6779 152.409 94.5179 152.199 94.345C151.99 94.1721 151.774 94.0159 151.552 93.8764C151.344 93.7195 151.147 93.5936 150.961 93.4989C151.791 92.7607 152.528 91.9831 153.174 91.166C153.817 90.3331 154.373 89.5005 154.84 88.6683C155.307 87.8362 155.691 87.0602 155.992 86.3403ZM160.749 86.4165L162.794 85.6184C163.125 86.0529 163.444 86.5368 163.752 87.0699C164.076 87.6015 164.321 88.0603 164.486 88.4463L162.307 89.3536C162.172 88.9486 161.957 88.4709 161.664 87.9203C161.37 87.3697 161.065 86.8684 160.749 86.4165ZM155.525 97.8608L172.822 96.2091L172.991 97.9771L155.694 99.6288L155.525 97.8608ZM156.157 88.8318L171.281 87.3877L171.452 89.1796L156.328 90.6237L157.241 100.18L155.019 100.392L154.056 90.3102L155.202 88.9231L156.157 88.8318ZM159.169 103.709L160.967 104.357C160.452 104.856 159.808 105.352 159.035 105.843C158.263 106.335 157.438 106.783 156.56 107.189C155.7 107.608 154.865 107.953 154.055 108.223C153.872 107.984 153.62 107.703 153.299 107.379C152.997 107.071 152.724 106.824 152.481 106.638C153.296 106.415 154.122 106.152 154.961 105.847C155.816 105.54 156.612 105.207 157.349 104.847C158.085 104.471 158.691 104.092 159.169 103.709ZM165.662 104.294L166.82 102.785C167.59 102.937 168.428 103.13 169.334 103.365C170.255 103.582 171.144 103.803 172.001 104.027C172.875 104.249 173.594 104.461 174.16 104.664L172.994 106.343C172.446 106.154 171.741 105.932 170.881 105.676C170.038 105.435 169.155 105.19 168.231 104.941C167.323 104.69 166.467 104.475 165.662 104.294ZM178.377 90.0077L185.683 89.5565L185.814 91.6884L178.508 92.1396L178.377 90.0077ZM180.798 84.4478L182.93 84.3162L183.901 100.03L181.769 100.162L180.798 84.4478ZM178.538 100.41C179.162 100.131 179.887 99.7972 180.713 99.4096C181.537 99.006 182.409 98.5834 183.327 98.142C184.261 97.6836 185.186 97.2256 186.104 96.7682L186.731 98.7493C185.507 99.4341 184.267 100.12 183.011 100.807C181.754 101.477 180.613 102.077 179.587 102.605L178.538 100.41ZM191.896 83.4739L194.027 83.3423L195.063 100.11L192.931 100.242L191.896 83.4739ZM185.145 93.7015L197.51 87.5516L198.466 89.4162L186.132 95.6604L185.145 93.7015ZM187.173 86.0499L189.353 85.9153L190.33 101.725C190.357 102.172 190.418 102.513 190.513 102.748C190.607 102.966 190.784 103.108 191.044 103.172C191.321 103.235 191.714 103.251 192.225 103.219C192.369 103.21 192.617 103.195 192.968 103.173C193.319 103.152 193.71 103.127 194.142 103.101C194.589 103.073 195.036 103.046 195.483 103.018C195.93 102.99 196.337 102.965 196.705 102.943C197.072 102.92 197.344 102.903 197.519 102.892C197.966 102.865 198.296 102.756 198.509 102.567C198.738 102.376 198.894 102.046 198.977 101.576C199.06 101.106 199.098 100.43 199.092 99.5489C199.358 99.7088 199.688 99.8567 200.081 99.9928C200.49 100.128 200.849 100.218 201.156 100.263C201.129 101.387 201.016 102.275 200.816 102.929C200.616 103.583 200.276 104.06 199.798 104.363C199.337 104.68 198.667 104.865 197.789 104.919C197.645 104.928 197.381 104.945 196.998 104.968C196.631 104.991 196.2 105.018 195.705 105.048C195.226 105.078 194.739 105.108 194.243 105.138C193.764 105.168 193.341 105.194 192.974 105.217C192.607 105.239 192.351 105.255 192.207 105.264C191.233 105.324 190.452 105.268 189.865 105.096C189.293 104.923 188.878 104.572 188.621 104.043C188.365 103.53 188.207 102.794 188.148 101.836L187.173 86.0499ZM196.973 88.2099L196.71 88.2262L197.51 87.5516L199.268 87.9961L199.171 88.3628C199.192 89.4836 199.186 90.6862 199.153 91.9707C199.12 93.2552 199.07 94.5167 199.002 95.7552C198.933 96.9778 198.824 98.0666 198.675 99.0216L196.798 98.6085C196.87 97.9628 196.921 97.2223 196.949 96.387C196.977 95.5357 196.993 94.6369 196.999 93.6908C197.021 92.7436 197.027 91.8055 197.018 90.8763C197.007 89.9311 196.992 89.0423 196.973 88.2099ZM213.184 87.4114L213.229 88.7306L219.057 88.5311L219.012 87.2119L213.184 87.4114ZM211.295 86.2513L220.889 85.9229L221.019 89.7127L211.425 90.0411L211.295 86.2513ZM212.561 94.4688L212.732 99.4819L220.288 99.2232L220.116 94.2102L212.561 94.4688ZM210.741 93.2104L221.918 92.8277L222.181 100.503L211.003 100.886L210.741 93.2104ZM215.218 96.323L215.256 97.4504L217.583 97.3707L217.544 96.2434L215.218 96.323ZM213.862 95.3128L218.876 95.1412L218.986 98.3793L213.973 98.5509L213.862 95.3128ZM209.25 91.0521L223.354 90.5693L223.398 91.8645L209.294 92.3473L209.25 91.0521ZM215.162 89.0727L217.105 89.0062L217.185 91.3568L215.242 91.4233L215.162 89.0727ZM205.896 83.5545L226.212 82.859L226.942 104.206L224.736 104.282L224.07 84.8294L208.071 85.3771L208.737 104.83L206.626 104.902L205.896 83.5545ZM207.874 102.074L225.768 101.461L225.833 103.356L207.939 103.969L207.874 102.074ZM233.675 102.034L233.479 84.3474L236.695 84.3116L240.01 93.2274C240.224 93.801 240.431 94.3907 240.63 94.9966C240.828 95.5864 241.027 96.1762 241.225 96.7661L241.345 96.7647C241.547 96.1705 241.732 95.5764 241.902 94.9824C242.087 94.3723 242.272 93.7782 242.458 93.2001L245.526 84.2135L248.766 84.1775L248.962 101.864L246.371 101.893L246.274 93.1577C246.268 92.6298 246.277 92.0456 246.302 91.4053C246.343 90.7648 246.384 90.1163 246.424 89.4598C246.481 88.8032 246.539 88.2105 246.597 87.6818L246.477 87.6831L245.106 91.7786L242.128 100.236L240.4 100.255L237.211 91.8664L235.749 87.8024L235.653 87.8034C235.723 88.3307 235.786 88.922 235.841 89.5775C235.912 90.2327 235.968 90.8801 236.007 91.5197C236.062 92.1592 236.092 92.7429 236.098 93.2708L236.195 102.006L233.675 102.034ZM259.208 102.171C258.456 102.167 257.785 102.004 257.195 101.68C256.621 101.357 256.167 100.907 255.834 100.329C255.501 99.7513 255.337 99.0784 255.341 98.3104C255.349 96.8864 255.979 95.7938 257.231 95.0326C258.499 94.2555 260.51 93.7224 263.264 93.4333C263.25 92.9212 263.173 92.4488 263.031 92.016C262.89 91.5832 262.636 91.2379 262.269 90.9799C261.918 90.706 261.415 90.5672 260.759 90.5637C260.071 90.5599 259.406 90.6923 258.765 90.9609C258.124 91.2294 257.514 91.5381 256.936 91.8869L255.914 90.0094C256.38 89.7239 256.893 89.4547 257.455 89.2017C258.016 88.9328 258.617 88.72 259.258 88.5635C259.899 88.391 260.563 88.3066 261.251 88.3103C262.355 88.3163 263.258 88.5452 263.96 88.997C264.661 89.4328 265.178 90.0676 265.509 90.9014C265.857 91.7353 266.027 92.7443 266.021 93.9283L265.978 101.872L263.722 101.86L263.514 100.347L263.418 100.346C262.823 100.855 262.173 101.291 261.467 101.656C260.761 102.004 260.008 102.176 259.208 102.171ZM260.06 99.968C260.636 99.9711 261.173 99.8461 261.67 99.5927C262.168 99.3234 262.69 98.9343 263.237 98.4252L263.254 95.2093C261.957 95.3462 260.924 95.5566 260.155 95.8405C259.385 96.1083 258.831 96.4333 258.493 96.8155C258.171 97.1817 258.009 97.6129 258.006 98.1088C258.003 98.7648 258.2 99.2379 258.599 99.5281C258.997 99.8182 259.484 99.9649 260.06 99.968ZM272.658 101.935L272.904 88.7133L275.159 88.7552L275.355 91.1352L275.403 91.1361C275.899 90.2972 276.479 89.6518 277.144 89.2001C277.808 88.7323 278.501 88.5051 279.221 88.5185C279.54 88.5244 279.812 88.5535 280.035 88.6056C280.258 88.6578 280.473 88.7258 280.679 88.8096L280.154 91.2243C279.916 91.1399 279.701 91.0799 279.51 91.0443C279.318 91.0087 279.087 90.9884 278.815 90.9834C278.287 90.9736 277.723 91.1792 277.123 91.6001C276.523 92.0051 276.006 92.7316 275.57 93.7797L275.418 101.986L272.658 101.935ZM285.252 102.193L285.833 83.0737L288.544 83.1562L288.17 95.4625L288.266 95.4654L293.57 89.2158L296.641 89.3092L292.015 94.571L296.742 102.542L293.744 102.451L290.351 96.3693L288.067 98.8449L287.962 102.275L285.252 102.193ZM306.642 103.29C305.443 103.236 304.369 102.915 303.418 102.328C302.468 101.725 301.729 100.898 301.2 99.8496C300.671 98.7847 300.439 97.525 300.505 96.0705C300.553 94.9995 300.764 94.0481 301.138 93.2161C301.513 92.3681 302.001 91.6613 302.603 91.0958C303.206 90.5144 303.874 90.08 304.608 89.7928C305.341 89.5055 306.084 89.3788 306.835 89.4126C308.002 89.4652 308.973 89.7732 309.748 90.3367C310.525 90.8842 311.099 91.6388 311.472 92.6006C311.846 93.5464 312.005 94.6426 311.949 95.8894C311.936 96.1611 311.909 96.4241 311.865 96.6784C311.838 96.9174 311.797 97.1238 311.741 97.2974L303.182 96.9118C303.224 97.7466 303.408 98.4755 303.732 99.0988C304.073 99.7067 304.524 100.192 305.084 100.553C305.661 100.899 306.325 101.09 307.076 101.123C307.668 101.15 308.223 101.087 308.742 100.934C309.262 100.781 309.768 100.564 310.261 100.282L311.141 102.075C310.516 102.448 309.822 102.753 309.058 102.99C308.311 103.229 307.505 103.329 306.642 103.29ZM303.244 94.9927L309.574 95.2778C309.624 94.159 309.408 93.2763 308.924 92.6299C308.457 91.9842 307.744 91.6398 306.785 91.5966C306.241 91.5721 305.724 91.6849 305.232 91.935C304.74 92.1851 304.315 92.5664 303.955 93.0787C303.612 93.5918 303.375 94.2298 303.244 94.9927ZM321.514 104.05C320.523 103.992 319.744 103.753 319.176 103.335C318.624 102.902 318.241 102.334 318.026 101.633C317.812 100.915 317.732 100.093 317.787 99.1662L318.18 92.5057L316.264 92.3926L316.385 90.3322L318.455 90.2861L318.982 86.6628L321.282 86.7986L321.067 90.4403L324.493 90.6425L324.361 92.8706L320.935 92.6684L320.541 99.3528C320.495 100.135 320.611 100.743 320.89 101.176C321.17 101.594 321.653 101.823 322.34 101.863C322.564 101.876 322.805 101.859 323.064 101.81C323.324 101.761 323.552 101.702 323.748 101.634L324.131 103.7C323.773 103.791 323.367 103.879 322.913 103.965C322.475 104.051 322.009 104.079 321.514 104.05ZM337.715 104.815L339.252 87.1937L342.456 87.4731L344.882 96.6707C345.039 97.2626 345.187 97.8697 345.325 98.4921C345.465 99.0985 345.605 99.705 345.745 100.311L345.864 100.322C346.123 99.7501 346.366 99.1771 346.592 98.6026C346.836 98.0136 347.079 97.4405 347.32 96.8833L351.254 88.2404L354.482 88.5219L352.945 106.143L350.363 105.918L351.122 97.2149C351.168 96.6888 351.235 96.1084 351.322 95.4736C351.425 94.8402 351.53 94.1989 351.634 93.5495C351.755 92.9015 351.87 92.3173 351.98 91.7969L351.86 91.7865L350.095 95.728L346.303 103.853L344.582 103.703L342.229 95.0421L341.173 90.8545L341.077 90.8461C341.095 91.3777 341.1 91.9723 341.09 92.63C341.097 93.2891 341.089 93.9388 341.065 94.5792C341.057 95.2209 341.03 95.8048 340.984 96.3308L340.225 105.034L337.715 104.815ZM363.019 107.492C362.272 107.407 361.622 107.173 361.07 106.788C360.534 106.405 360.131 105.908 359.862 105.298C359.593 104.688 359.502 104.001 359.589 103.238C359.75 101.823 360.494 100.804 361.82 100.182C363.165 99.546 365.221 99.2321 367.99 99.2408C368.032 98.7302 368.006 98.2522 367.911 97.8067C367.817 97.3612 367.602 96.9905 367.265 96.6946C366.946 96.3846 366.46 96.1926 365.809 96.1185C365.125 96.0409 364.45 96.101 363.783 96.299C363.117 96.4971 362.477 96.7384 361.865 97.0231L361.051 95.0466C361.545 94.8128 362.084 94.6004 362.669 94.4092C363.257 94.2022 363.877 94.0553 364.531 93.9686C365.187 93.8659 365.857 93.8535 366.54 93.9311C367.637 94.0558 368.51 94.3804 369.159 94.905C369.81 95.4137 370.255 96.1004 370.495 96.965C370.751 97.8314 370.812 98.8528 370.678 100.029L369.781 107.922L367.54 107.668L367.496 106.141L367.4 106.13C366.754 106.572 366.061 106.936 365.32 107.222C364.581 107.493 363.814 107.583 363.019 107.492ZM364.103 105.393C364.675 105.458 365.222 105.392 365.744 105.193C366.267 104.979 366.828 104.648 367.426 104.201L367.79 101.005C366.486 101.002 365.436 101.1 364.64 101.3C363.846 101.483 363.261 101.747 362.884 102.091C362.524 102.42 362.316 102.831 362.26 103.324C362.186 103.976 362.332 104.467 362.697 104.799C363.062 105.13 363.53 105.328 364.103 105.393ZM375.544 114.015L378.139 95.6213L380.372 95.9365L380.406 97.4197L380.453 97.4264C381.106 97.0338 381.798 96.7113 382.529 96.4588C383.259 96.2064 383.997 96.1327 384.741 96.2377C385.834 96.392 386.73 96.8011 387.428 97.4651C388.126 98.1291 388.603 98.9882 388.858 100.042C389.116 101.08 389.149 102.273 388.959 103.619C388.749 105.109 388.3 106.346 387.612 107.331C386.939 108.319 386.136 109.03 385.202 109.464C384.268 109.898 383.31 110.045 382.328 109.907C381.758 109.826 381.197 109.618 380.647 109.282C380.099 108.93 379.589 108.478 379.117 107.927L378.873 110.171L378.277 114.401L375.544 114.015ZM382.13 107.528C382.764 107.617 383.352 107.514 383.895 107.219C384.453 106.926 384.924 106.451 385.308 105.795C385.709 105.124 385.982 104.282 386.125 103.268C386.254 102.349 386.254 101.549 386.124 100.868C386.012 100.174 385.759 99.621 385.364 99.2099C384.972 98.7829 384.411 98.518 383.683 98.4152C383.176 98.3437 382.65 98.4068 382.105 98.6046C381.578 98.7888 380.999 99.1112 380.369 99.5716L379.467 105.964C379.913 106.464 380.37 106.835 380.836 107.079C381.303 107.322 381.734 107.472 382.13 107.528Z" fill="black"/>
</svg>
