<svg width="357" height="164" viewBox="0 0 357 164" fill="none" xmlns="http://www.w3.org/2000/svg">
<path d="M62.8113 113.08C42.196 117.905 31.1052 125.588 28.1367 128.826C30.2951 129.945 43.8192 125.522 43.7479 124.164C43.6765 122.805 43.8906 121.033 46.6024 121.446C49.3142 121.86 49.3191 126.816 47.0255 131.618C45.1906 135.46 40.0547 146.843 37.7161 152.055L71.4457 140.552C69.2421 133.517 64.43 118.172 62.8113 113.08Z" fill="#BEC7B4"/>
<path d="M298.38 113.151C318.995 117.976 330.086 125.659 333.055 128.898C330.896 130.016 317.372 125.593 317.444 124.235C317.515 122.876 317.301 121.104 314.589 121.518C311.877 121.931 311.872 126.887 314.166 131.689C316.001 135.531 321.137 146.915 323.475 152.126L289.746 140.623C291.949 133.588 296.761 118.244 298.38 113.151Z" fill="#BEC7B4"/>
<ellipse cx="180" cy="82.0759" rx="30.9048" ry="30.8249" fill="#ED972E"/>
<path d="M290.348 136.314C195.313 109.801 104.199 125.267 70.5213 136.314C68.1799 128.536 62.1117 108.164 56.5703 88.8999C160.472 50.9686 265.643 73.0952 305.241 88.8999C302.008 99.4112 294.504 123.61 290.348 136.314Z" fill="white"/>
<path d="M85.4179 138.353L82.2773 133.841C161.25 112.376 248.264 124.407 277.573 133.251C277.334 134.241 276.675 136.648 275.958 138.353C258.547 135.135 206.676 130.874 183.343 130.428C156.97 129.924 110.585 134.978 85.4179 138.353Z" fill="#ED972E"/>
<path d="M116.453 26.4033L123.731 31.58" stroke="black" stroke-width="2.5" stroke-linecap="round"/>
<path d="M128.653 34.9053L133.757 38.5049" stroke="black" stroke-width="2.5" stroke-linecap="round"/>
<path d="M139.31 42.3105L151.59 50.593" stroke="black" stroke-width="2.5" stroke-linecap="round"/>
<path d="M142.152 9.93213L146.701 16.7089" stroke="black" stroke-width="2.5" stroke-linecap="round"/>
<path d="M151.249 23.1094L154.547 28.3802" stroke="black" stroke-width="2.5" stroke-linecap="round"/>
<path d="M157.73 33.3682L164.667 44.4746" stroke="black" stroke-width="2.5" stroke-linecap="round"/>
<path d="M181.155 4.94434L181.155 11.2764" stroke="black" stroke-width="2.5" stroke-linecap="round"/>
<path d="M181.155 19.0625V44.0047" stroke="black" stroke-width="2.5" stroke-linecap="round"/>
<path d="M216.52 10.0269L212.653 16.6154" stroke="black" stroke-width="2.5" stroke-linecap="round"/>
<path d="M209.242 22.7334L206.172 27.7218" stroke="black" stroke-width="2.5" stroke-linecap="round"/>
<path d="M203.215 33.3682L196.393 44.1922" stroke="black" stroke-width="2.5" stroke-linecap="round"/>
<path d="M245.744 26.4971L239.611 30.4962" stroke="black" stroke-width="2.5" stroke-linecap="round"/>
<path d="M234.599 34.2158L228.687 38.2631" stroke="black" stroke-width="2.5" stroke-linecap="round"/>
<path d="M222.546 42.2158L210.492 50.4044" stroke="black" stroke-width="2.5" stroke-linecap="round"/>
<path d="M264.961 46.1699L256.845 48.4922" stroke="black" stroke-width="2.5" stroke-linecap="round"/>
<path d="M250.406 50.3105L243.128 52.5694" stroke="black" stroke-width="2.5" stroke-linecap="round"/>
<path d="M235.168 54.6406L219.931 59.2527" stroke="black" stroke-width="2.5" stroke-linecap="round"/>
<path d="M56.6671 110.212C45.6501 113.376 20.5582 122.495 8.32715 133.661C20.918 130.833 37.5558 127.148 44.3009 125.659C39.9541 133.723 30.9457 152.16 29.6866 161.391C37.5558 157.855 57.3414 147.247 73.3047 145.386C70.6067 137.048 61.0888 104.195 56.6671 88.8107C83.2459 78.3239 130.332 67.6427 180.251 67.6426C225.797 67.6425 270.037 75.9683 305.335 88.8107C301.51 101.23 292.176 131.448 287.987 145.005C296.571 147.011 317.373 153.172 331.918 161.762C328.184 150.211 320.125 128.816 317.471 125.399C322.484 126.782 340.371 130.524 351.673 133.372C344.105 127.84 324.941 115.231 304.695 110.35" stroke="black" stroke-width="2.5" stroke-linecap="round" stroke-linejoin="round"/>
<path d="M81.8301 133.4C134.434 117.221 230.777 119.12 279.459 133.4" stroke="black" stroke-width="2.5" stroke-linecap="round"/>
<path d="M96.5967 47.3604L105.467 49.6885" stroke="black" stroke-width="2.5" stroke-linecap="round"/>
<path d="M110.768 51.252L118.846 53.3271" stroke="black" stroke-width="2.5" stroke-linecap="round"/>
<path d="M126.573 55.3926L142.152 60.0047" stroke="black" stroke-width="2.5" stroke-linecap="round"/>
<path d="M147.883 88.0978L146.51 89.2179C145.697 88.1386 143.984 86.5145 142.494 85.3814L143.801 84.3617C145.264 85.4484 147.022 87.0216 147.883 88.0978ZM146.054 93.4547L147.676 94.0023C146.725 96.1059 145.431 98.0867 143.86 99.8924C144.928 102.35 146.102 103.816 147.3 103.741C147.946 103.7 148.157 102.461 148.109 99.3858C148.516 99.745 149.165 100.113 149.678 100.249C149.59 104.223 149.04 105.411 147.243 105.524C145.351 105.642 143.809 104.056 142.531 101.322C141.061 102.809 139.436 104.113 137.698 105.16C137.407 104.745 136.867 104.178 136.388 103.823C138.338 102.715 140.22 101.275 141.821 99.5873C141.122 97.6352 140.518 95.2924 140.045 92.725L134.416 93.0777L134.656 96.9101C136.05 96.5102 137.491 96.1073 138.885 95.7073L139.105 97.3047C137.667 97.7555 136.203 98.1839 134.762 98.6108L135.096 103.928C135.168 105.078 134.913 105.623 134.189 105.957C133.464 106.291 132.174 106.42 130.233 106.542C130.108 106.068 129.745 105.274 129.45 104.787C130.988 104.763 132.399 104.65 132.805 104.601C133.236 104.574 133.373 104.445 133.345 104.014L133.041 99.1515C131.268 99.6473 129.569 100.163 128.152 100.564L127.536 98.799C128.958 98.4695 130.873 97.9407 132.93 97.379L132.667 93.1872L127.541 93.5084L127.435 91.8077L132.561 91.4865L132.322 87.678C130.855 88.0585 129.361 88.3926 127.96 88.6727C127.837 88.2476 127.558 87.6398 127.292 87.2237C130.614 86.5105 134.419 85.4545 136.618 84.4751L137.979 85.8567C136.855 86.3359 135.49 86.8062 134.048 87.2092L134.309 91.377L139.794 91.0333C139.442 88.8671 139.202 86.5736 139.031 84.2277L140.852 84.1137C141.002 86.509 141.242 88.8025 141.567 90.9223L148.609 90.4811L148.716 92.1817L141.865 92.6109C142.232 94.6319 142.683 96.4553 143.189 98.0107C144.373 96.5658 145.336 95.0387 146.054 93.4547ZM160.969 93.4844L160.861 88.4695L155.822 88.5785L155.93 93.5933L160.969 93.4844ZM156.089 100.936L161.128 100.827L161.003 95.068L155.965 95.177L156.089 100.936ZM157.718 83.0402L159.646 83.3586C159.263 84.5432 158.86 85.8722 158.474 86.9128L162.457 86.8266L162.794 102.399L156.124 102.543L156.165 104.439L154.533 104.474L154.155 87.0062L156.843 86.9481C157.178 85.7885 157.575 84.1716 157.718 83.0402ZM174.189 86.5009L174.209 87.4126C174.062 98.3624 173.83 102.064 172.895 103.261C172.382 103.944 171.835 104.172 171.02 104.262C170.183 104.376 168.814 104.357 167.469 104.314C167.409 103.788 167.178 103.072 166.831 102.576C168.394 102.686 169.833 102.655 170.385 102.643C170.865 102.633 171.128 102.579 171.361 102.262C172.135 101.405 172.416 97.7498 172.521 88.1933L166.427 88.3251C165.79 89.9473 165.078 91.427 164.262 92.5729C163.944 92.2918 163.166 91.8285 162.777 91.5968C164.339 89.4506 165.563 86.1113 166.259 82.8075L167.972 83.1785C167.709 84.3605 167.398 85.5195 167.015 86.656L174.189 86.5009ZM170.632 97.3803L169.14 98.3488C168.389 96.9247 166.73 94.584 165.373 92.885L166.747 92.0391C168.128 93.7136 169.833 95.9813 170.632 97.3803ZM184.084 85.6654L183.996 90.3686L196.714 90.6058L196.801 85.9026L184.084 85.6654ZM191.039 97.5572L190.948 102.428C192.215 102.716 193.605 102.838 195.117 102.866C195.861 102.88 199.94 102.956 200.948 102.951C200.676 103.378 200.373 104.164 200.268 104.667L194.989 104.568C189.902 104.473 186.248 103.493 184.045 99.299C183.214 101.42 182.002 103.342 180.273 104.63C179.992 104.264 179.403 103.653 179.048 103.407C181.92 101.276 183.147 97.2659 183.547 93.8408L185.439 94.0921C185.276 95.0733 185.066 96.0775 184.783 97.0804C185.696 99.6179 187.181 101.086 189.158 101.891L189.339 92.1725L182.212 92.0396L182.364 83.905L198.681 84.2094L198.53 92.344L191.139 92.2061L191.07 95.9015L199.109 96.0514L199.078 97.7072L191.039 97.5572ZM208.109 85.9007L207.858 90.2615L211.907 90.4944L212.158 86.1336L208.109 85.9007ZM213.355 100.434L213.436 101.953C210.295 102.638 207.014 103.267 204.606 103.753L204.364 102.104L205.676 101.867L206.135 93.8886L207.572 93.9712L207.133 101.615L208.688 101.319L209.233 91.8551L206.238 91.6828L206.663 84.2791L213.803 84.6897L213.378 92.0934L210.766 91.9432L210.575 95.2737L213.57 95.446L213.48 97.0034L210.485 96.8312L210.244 101.024L213.355 100.434ZM215.309 92.3728L216.827 92.7245C216.184 95.5482 215.188 98.2315 213.911 99.961C213.637 99.7049 212.966 99.2576 212.617 99.0452C213.888 97.4355 214.753 94.9371 215.309 92.3728ZM227.194 90.1233L223.36 89.9029L222.546 104.064C222.492 104.998 222.246 105.513 221.629 105.79C220.967 106.016 219.959 105.982 218.306 105.887C218.284 105.429 218.087 104.673 217.874 104.204C219.047 104.295 220.101 104.356 220.438 104.351C220.751 104.345 220.874 104.28 220.894 103.944L221.707 89.8078L219.67 89.6907L219.452 93.4765C219.215 97.5976 218.344 102.307 213.369 105.627C213.101 105.275 212.577 104.764 212.165 104.404C216.91 101.311 217.69 96.957 217.895 93.3869L218.113 89.6012L214.279 89.3807L214.375 87.7035L219.862 88.019L220.086 84.1374L221.859 84.2394L221.635 88.121L227.29 88.4461L227.194 90.1233ZM223.598 93.2822L224.994 92.8336C225.971 95.0773 226.766 97.9837 226.943 99.9171L225.4 100.405C225.246 98.4973 224.478 95.5444 223.598 93.2822Z" fill="black"/>
</svg>
