<svg width="174" height="201" viewBox="0 0 174 201" fill="none" xmlns="http://www.w3.org/2000/svg">
<g clip-path="url(#clip0_2300_2497)">
<path d="M94.6045 176.11C94.2164 178.826 81.5056 189.209 75.1987 194.06L88.783 6.79199L93.6345 6.79199L104.793 7.76229L106.733 11.6435C102.852 65.3336 94.9927 173.393 94.6045 176.11Z" fill="white"/>
<path d="M93.5238 176.39L105.109 13.5256C105.232 11.8049 105.012 10.6677 104.75 9.97357C104.507 9.32754 104.256 9.12736 104.25 9.11532L104.262 9.12097C103.604 8.76947 103.355 7.94953 103.706 7.28983C104.035 6.67142 104.774 6.41337 105.408 6.67305L105.533 6.73179L105.664 6.80794C106.318 7.2133 106.892 7.99575 107.277 9.01634C107.703 10.1486 107.947 11.6905 107.803 13.7172L96.2176 176.581C96.1646 177.327 95.5185 177.888 94.7746 177.835C94.0308 177.783 93.4707 177.135 93.5238 176.39Z" fill="black"/>
<path d="M84.4615 43.0424L86.9491 8.07262C86.9575 7.95479 86.9813 7.83842 87.0197 7.72675C87.4214 6.56172 88.3852 5.90094 89.3315 5.53565C90.2781 5.17029 91.3925 5.02165 92.4729 4.98153C94.6458 4.90086 97.0491 5.24823 98.6025 5.58771C99.331 5.74699 99.7924 6.46839 99.6333 7.19872C99.4741 7.929 98.7547 8.39222 98.0262 8.23302C96.6085 7.9232 94.4443 7.61702 92.5718 7.68654C91.6298 7.72153 90.8519 7.84903 90.3015 8.06144C89.8886 8.22081 89.7076 8.3838 89.6259 8.50474L87.1553 43.234C87.1022 43.9796 86.4562 44.5412 85.7124 44.4883C84.9686 44.4354 84.4086 43.788 84.4615 43.0424Z" fill="black"/>
<path d="M73.7131 194.141L81.3231 87.1627C81.3762 86.4171 82.0222 85.8555 82.7661 85.9084C83.51 85.9614 84.07 86.6087 84.017 87.3544L76.4069 194.333C76.3538 195.078 75.7078 195.64 74.9639 195.587C74.22 195.534 73.66 194.887 73.7131 194.141Z" fill="black"/>
<path d="M91.1732 10.6724C91.5825 8.59928 95.8617 8.67011 97.9501 8.96466L85.1864 185.322L78.7815 184.866C82.7415 127.665 90.7638 12.7455 91.1732 10.6724Z" fill="#D9D9D9"/>
<path d="M75.1773 19.2794L75.0685 19.2717C75.2399 19.1226 75.3762 19.0289 75.1773 19.2794L115.886 22.1753C117.313 24.1017 120.671 28.2311 122.687 29.338C117.794 32.1652 116.236 34.1346 116.15 35.333C109.804 34.9691 85.4983 33.189 74.1386 32.3444C73.1305 31.1778 70.4862 28.1648 67.9738 25.4459C71.6646 22.6427 71.7499 22.9773 73.8745 20.7196C74.6351 19.9113 75.0162 19.4824 75.1773 19.2794Z" fill="white"/>
<path d="M77.4318 21.517L77.3368 21.5102C77.4839 21.4148 77.6013 21.3553 77.4318 21.517L112.971 24.0451C114.245 25.3331 117.236 28.0987 119.011 28.8572C114.788 30.6403 113.459 31.9108 113.403 32.6971C107.865 32.3605 86.6444 30.8175 76.7266 30.088C75.8297 29.3058 73.4779 27.2849 71.2455 25.4593C74.4206 23.6736 74.5001 23.8948 76.3179 22.4435C76.9687 21.9239 77.2944 21.6479 77.4318 21.517Z" fill="#ED972E"/>
<path d="M75.4422 17.7246C75.5953 17.7437 75.7963 17.7964 75.998 17.9242L112.838 20.5448C113.582 20.5978 114.142 21.2451 114.089 21.9907C114.035 22.7363 113.389 23.2979 112.646 23.245L75.7581 20.621C75.5332 20.8707 75.239 21.1895 74.8604 21.5918C73.3806 23.1643 72.7894 23.5852 71.4963 24.4957C71.416 24.5522 71.333 24.6107 71.2469 24.6714C70.8939 24.9205 70.484 25.213 69.9857 25.5782C71.9128 27.6916 73.7765 29.8083 74.7949 30.9786C85.8077 31.7966 107.704 33.3993 115.189 33.8621C115.512 33.2114 116.023 32.5646 116.674 31.9239C117.506 31.1046 118.666 30.1987 120.225 29.1976C119.601 28.652 119.004 28.0336 118.474 27.4389C117.39 26.2221 116.437 24.9337 115.882 24.1049C115.466 23.4846 115.63 22.6437 116.249 22.2266C116.868 21.8096 117.707 21.9744 118.123 22.5947C118.62 23.3357 119.498 24.5239 120.489 25.6359C121.515 26.7877 122.523 27.6981 123.277 28.062C123.728 28.2798 124.022 28.7297 124.04 29.231C124.058 29.7325 123.798 30.2034 123.365 30.454C120.97 31.8376 119.464 32.9708 118.565 33.8553C117.631 34.7747 117.508 35.2712 117.501 35.3724C117.448 36.1107 116.814 36.6698 116.076 36.6275C109.716 36.2628 85.3947 34.4819 74.0421 33.6378C73.6862 33.6114 73.3552 33.4446 73.1216 33.1743C72.1199 32.0151 69.4859 29.014 66.9867 26.3094C66.7277 26.0291 66.5989 25.6519 66.6322 25.2713C66.6657 24.8906 66.8583 24.5417 67.1622 24.3109C68.2807 23.4614 69.0751 22.8939 69.6926 22.4581C69.7801 22.3964 69.8646 22.3375 69.9448 22.281C71.1383 21.4406 71.5772 21.1365 72.8963 19.7347C73.3147 19.2901 73.6061 18.9718 73.8045 18.7503C73.8814 18.5395 74.0109 18.347 74.1873 18.1934C74.241 18.1467 74.3053 18.092 74.3704 18.0421C74.4024 18.0177 74.4475 17.9845 74.4996 17.9506C74.5291 17.9315 74.6522 17.8505 74.8203 17.7916C74.8853 17.7688 75.1271 17.6852 75.4422 17.7246Z" fill="black"/>
<path d="M93.5318 21.6438C94.2771 21.6224 94.8983 22.2108 94.9195 22.9579C94.9244 23.1326 94.9896 23.4355 95.1362 23.6645C95.2018 23.7669 95.2712 23.835 95.3414 23.88C95.4063 23.9215 95.5084 23.9671 95.6823 23.9795C95.9825 24.0008 96.1691 23.8979 96.3361 23.7159C96.5389 23.4951 96.6642 23.1925 96.703 23.0185C96.8657 22.2889 97.5876 21.8292 98.3154 21.992C99.0431 22.1549 99.501 22.8783 99.3384 23.6078C99.217 24.1523 98.9067 24.9136 98.323 25.5492C97.7037 26.2236 96.753 26.7695 95.4902 26.6797C94.2203 26.5894 93.3624 25.9067 92.8631 25.1269C92.3977 24.4 92.236 23.5919 92.2202 23.0351C92.1992 22.288 92.7864 21.6652 93.5318 21.6438Z" fill="white"/>
<path d="M112.718 26.8339C113.462 26.8868 114.022 27.5342 113.969 28.2798C113.916 29.0255 113.27 29.5871 112.526 29.5341L77.4617 27.0398C76.7178 26.9869 76.1578 26.3395 76.2108 25.5939C76.2639 24.8482 76.9099 24.2867 77.6538 24.3396L112.718 26.8339Z" fill="white"/>
<path d="M94.2078 24.1371L94.7658 16.2933C94.8188 15.5477 95.4649 14.9861 96.2087 15.0391C96.9526 15.092 97.5126 15.7393 97.4596 16.485L96.9016 24.3287C96.8485 25.0743 96.2025 25.6359 95.4587 25.583C94.7148 25.5301 94.1548 24.8827 94.2078 24.1371Z" fill="black"/>
<path d="M66.1991 48.8601L67.4167 54.7497L69.1151 61.5495L158.364 47.7521L168.087 38.3706L152.641 36.1769L66.1991 48.8601Z" fill="#FFFDFD"/>
<path d="M152.947 34.7353L168.394 36.9292C168.906 37.002 169.332 37.3622 169.489 37.8563C169.647 38.3504 169.509 38.8916 169.134 39.2494L159.419 48.5217C159.222 48.7097 158.973 48.8336 158.705 48.8774L88.1662 60.393C87.4302 60.5131 86.7362 60.0123 86.6166 59.2746C86.4969 58.5368 86.9968 57.8411 87.7329 57.7209L157.859 46.273L165.252 39.2165L152.763 37.4434L67.7531 50.4224L68.6818 55.3707C68.8195 56.1052 68.3371 56.8126 67.6044 56.951C66.8714 57.0894 66.1654 56.6061 66.0276 55.8715L64.8409 49.5463C64.7732 49.1854 64.8548 48.8124 65.0667 48.5128C65.2787 48.2133 65.6029 48.013 65.965 47.9576L152.554 34.7375C152.684 34.7177 152.817 34.7168 152.947 34.7353Z" fill="black"/>
<path d="M91.0589 44.1716C91.7912 44.03 92.4993 44.5101 92.6404 45.244L93.1309 47.7972C93.272 48.5312 92.7927 49.2411 92.0604 49.3828C91.3282 49.5243 90.6206 49.0442 90.4795 48.3104L89.9885 45.7572C89.8474 45.0232 90.3266 44.3133 91.0589 44.1716Z" fill="black"/>
<path d="M92.3616 53.4615C93.0939 53.3199 93.802 53.8 93.9431 54.534L94.5618 57.7535C94.7027 58.4874 94.2236 59.1969 93.4914 59.3386C92.7591 59.4802 92.051 59.0001 91.9099 58.2661L91.2912 55.0471C91.1501 54.3132 91.6294 53.6032 92.3616 53.4615Z" fill="black"/>
<path d="M144.378 43.2974L132.682 45.2681L133.18 47.5571L150.654 44.1665L144.095 41.7004L144.378 43.2974Z" fill="#ED972E"/>
<path d="M142.634 39.8255C143.031 39.5122 143.57 39.4476 144.03 39.6582L151.954 43.2877C152.493 43.5343 152.808 44.1036 152.732 44.6921C152.656 45.2804 152.207 45.7509 151.624 45.8525L133.319 49.0393C132.594 49.1654 131.901 48.6865 131.762 47.9623L131.101 44.5208C130.96 43.7869 131.439 43.0775 132.171 42.9358C132.903 42.7941 133.612 43.2742 133.753 44.0082L134.163 46.1444L143.523 44.5151C143.06 44.3735 142.689 43.9868 142.591 43.4771L142.143 41.1459C142.047 40.6484 142.236 40.1388 142.634 39.8255ZM145.265 43.2004C145.272 43.6423 145.062 44.0517 144.719 44.307L146.865 43.9333L145.265 43.2004Z" fill="black"/>
<path d="M17.5653 53.0645L10.6946 39.2179L28.4824 39.1694L148.06 92.8954L136.74 109.39L17.5653 53.0645Z" fill="white"/>
<path d="M46.2012 55.4304L45.17 57.6563L27.4748 50.2667L25.6681 49.5901L35.6708 47.0169L34.0271 50.1847L46.2012 55.4304Z" fill="#ED972E"/>
<path d="M30.176 38.3249C30.5185 38.1647 30.9252 38.1472 31.2974 38.3135L151.317 91.9615C151.679 92.1232 151.952 92.4362 152.063 92.8176C152.174 93.1989 152.112 93.6101 151.894 93.942L145.777 103.251C145.768 103.264 145.759 103.277 145.75 103.29L140.656 110.483C140.278 111.017 139.573 111.203 138.981 110.925L90.9436 88.3468L90.939 88.3448L19.9104 54.6051C19.6373 54.4754 19.415 54.2579 19.2801 53.9868L12.5027 40.3657C12.2945 39.9472 12.3167 39.4505 12.5612 39.0521C12.8058 38.6538 13.2383 38.4102 13.7049 38.4079L30.176 38.3249ZM15.888 41.1032L21.4884 52.3592L92.091 85.8958L139.107 107.994L143.539 101.737L148.764 93.7845L30.7394 41.0285L15.888 41.1032ZM35.2933 45.4683C35.7698 45.3651 36.2648 45.5273 36.5882 45.8928C36.9117 46.2584 37.0133 46.7706 36.8541 47.2326L36.0159 49.6647L46.5127 54.0566C46.8456 54.1959 47.109 54.4634 47.2441 54.7988C47.3792 55.1341 47.3747 55.51 47.2317 55.8421L45.4018 60.0912C45.2583 60.4244 44.9875 60.6862 44.65 60.8174C44.3125 60.9486 43.9364 60.9384 43.6065 60.7893L27.2223 53.383C26.5426 53.0757 26.2402 52.2741 26.547 51.5926C26.8537 50.9113 27.6531 50.6079 28.3328 50.9151L43.4665 57.7554L44.2107 56.0274L33.8048 51.6738C33.1473 51.3986 32.8166 50.6585 33.0494 49.9832L33.518 48.6215L24.4488 50.5868C23.7199 50.7447 23.0015 50.2805 22.8442 49.5499C22.6869 48.8192 23.1503 48.099 23.8793 47.9411L35.2933 45.4683Z" fill="black"/>
<path d="M19.1648 102.668L13.3415 104.772L12.0861 122.42L151.714 135.09L164.26 130.508L164.71 124.19L148.69 130.057L83.4624 123.666L18.0876 117.811L19.1648 102.668Z" fill="#D9D9D9"/>
<path d="M164.035 124.47L149.798 116.012L80.2979 108.331L19.3894 102.575L18.289 118.044L148.814 129.847L164.035 124.47Z" fill="white"/>
<path d="M83.3634 106.973C84.1062 107.038 84.655 107.695 84.5895 108.44C84.5239 109.184 83.8684 109.735 83.1255 109.67L25.4432 104.581C24.7004 104.515 24.151 103.859 24.2165 103.114C24.2822 102.369 24.9377 101.819 25.6805 101.884L83.3634 106.973Z" fill="black"/>
<path d="M149.619 114.534L149.75 114.554C149.88 114.58 150.005 114.626 150.122 114.69L165.25 122.882C165.717 123.135 165.993 123.639 165.955 124.169C165.917 124.7 165.573 125.159 165.075 125.343L148.939 131.312C148.76 131.379 148.567 131.406 148.376 131.392L122.757 129.57C122.013 129.517 121.453 128.87 121.506 128.124C121.559 127.378 122.205 126.817 122.949 126.87L148.278 128.672L161.337 123.841L149.074 117.199L129.087 115.129C128.345 115.052 127.806 114.387 127.883 113.643C127.959 112.9 128.623 112.359 129.365 112.436L149.619 114.534Z" fill="black"/>
<path d="M138.593 121.785L130.523 121.621L130.358 123.936L145.368 124.593L138.787 119.061L138.593 121.785Z" fill="#ED972E"/>
<path d="M137.89 117.702C138.334 117.494 138.855 117.544 139.252 117.832L147.968 124.145C148.454 124.497 148.65 125.129 148.449 125.696C148.247 126.262 147.697 126.628 147.098 126.593L130.365 125.622C129.62 125.579 129.052 124.939 129.095 124.193C129.139 123.446 129.778 122.877 130.522 122.92L142.636 123.623L139.635 121.449L139.622 121.639C139.57 122.362 138.96 122.916 138.237 122.896L130.615 122.682C129.869 122.662 129.282 122.039 129.303 121.292C129.324 120.544 129.945 119.956 130.691 119.977L137.02 120.154L137.114 118.833C137.149 118.343 137.446 117.91 137.89 117.702Z" fill="black"/>
<path d="M12.1186 104.466C12.1716 103.721 12.8176 103.159 13.5615 103.212C14.3054 103.265 14.8654 103.912 14.8124 104.658L13.6129 121.52L151.596 133.283L163.953 129.442C164.666 129.22 165.422 129.619 165.643 130.333C165.864 131.047 165.465 131.805 164.753 132.027L152.145 135.948C151.978 135.999 151.804 136.018 151.63 136.003L12.0563 124.104C11.3206 124.041 10.7719 123.397 10.8244 122.659L12.1186 104.466Z" fill="black"/>
<path d="M16.7248 117.932L17.8097 102.681C17.8628 101.935 18.5088 101.374 19.2527 101.427C19.9966 101.48 20.5566 102.127 20.5035 102.873L19.4186 118.124C19.3656 118.87 18.7195 119.431 17.9757 119.378C17.2318 119.325 16.6717 118.678 16.7248 117.932Z" fill="black"/>
<path d="M17.7016 102.674C17.7546 101.928 18.4006 101.366 19.1445 101.419C19.8884 101.472 20.4484 102.12 20.3954 102.865L19.4049 116.789L69.6933 121.22C70.4362 121.285 70.9855 121.942 70.92 122.687C70.8543 123.432 70.1989 123.982 69.456 123.916L17.8449 119.369C17.1108 119.305 16.5642 118.662 16.6166 117.925L17.7016 102.674Z" fill="black"/>
</g>
<defs>
<clipPath id="clip0_2300_2497">
<rect width="160.418" height="190.033" fill="white" transform="translate(13.4844) rotate(4.06899)"/>
</clipPath>
</defs>
</svg>
