<svg width="180" height="204" viewBox="0 0 180 204" fill="none" xmlns="http://www.w3.org/2000/svg">
<path d="M74.1921 29.7569L77.7317 29.049C76.2687 19.9407 82.0779 6.22885 88.058 4.12319C95.5331 1.49112 108.003 0.738285 112.214 15.0589H116.771C119.369 10.669 127.203 1.91157 137.762 2.00067C148.32 2.08978 152.297 10.7433 152.965 15.0589C153.8 18.5396 155.371 26.0467 154.97 28.2297C156.573 28.7643 157.457 29.3806 157.698 29.6219C163.853 33.8359 176.39 44.7228 177.305 54.5579C178.449 66.8518 180.021 86.1504 165.297 95.5853C153.518 103.133 153.504 104.925 154.97 104.877C161.08 118.648 173.245 147.591 173.016 153.195C172.73 160.2 171.587 163.774 167.584 161.772C164.296 163.345 158.756 164.345 156.863 159.628C155.348 162.373 155.755 166.299 156.148 167.919L153.003 184.645L150.144 196.653C147.237 198.988 138.765 203.057 128.129 200.655C127.214 197.453 126.986 195.414 126.986 194.794L119.552 177.64H101.397L94.2495 199.655C85.863 200.655 68.2321 202.056 64.8013 199.655C66.2878 195.766 67.2312 193.841 67.5171 193.365L63.5145 168.92C63.0379 154.053 63.1712 123.604 67.5171 120.745L59.2309 124.892H48.139L27.5399 121.723L5.35617 109.575L4.2998 105.877L7.46891 103.765V101.124L11.6944 99.0109L14.3353 95.8418L25.4271 101.652L39.6881 106.934L58.1745 109.575L64.8013 109.996C57.6042 107.977 22.337 95.4589 23.2793 68.8066C24.2216 42.1544 47.7057 37.2814 74.1921 29.7569Z" fill="#ED962C"/>
<path d="M34.7202 72.1102L40.1649 73.4715L55.3247 77.8646L57.6542 78.4067H75.5738H77.762L94.5303 77.5066H97.7099L120.795 71.8878L119.357 76.1128L105.202 89.5282L97.7099 77.5066H94.5303L90.8716 81.0347L81.4198 88.8785L77.762 78.4067H75.5738L70.8426 82.0734L61.2026 88.8785L57.6542 78.4067L55.3247 77.8646L41.4645 88.8785L34.7202 72.1102Z" fill="white"/>
<path d="M76.4195 28.7518C75.5873 22.6472 77.433 3.422 92.7371 2.38197C108.672 1.2991 111.144 12.1729 111.144 14.7838M120.235 9.95215C121.806 7.30143 127.471 2 137.559 2C147.422 2.78892 150.592 11.1581 150.944 15.2441M125.585 13.2322C127.133 12.1388 131.159 9.95215 134.884 9.95215M91.1983 9.95215C93.9291 10.2089 99.6014 11.2245 100.444 13.2322M94.1732 22.8359V29.1978M128.942 22.8359V29.1978M158.581 31.0263C165.194 34.7825 178.458 47.4701 177.988 69.798C176.395 85.84 164.234 97.6033 152.784 103.366M140.245 107.279C143.85 106.982 148.262 105.642 152.784 103.366M71.8319 31.2916C55.5154 32.8316 22.7059 41.8866 22 65.7866C22.9207 77.9974 26.8951 102.542 63.2652 107.915C66.6936 108.422 70.4098 108.758 74.4385 108.897M37.7702 62.6043V65.4257M47.9272 63.6271V66.4484M27.6618 69.9908L34.8851 74.2994L39.1937 86.8029C39.7499 88.4996 41.7451 91.0101 45.2765 87.4787C48.8079 83.9473 50.0709 82.3746 50.261 82.0296M41.4748 74.2994C45.2465 74.8843 50.1294 75.4729 55.6992 75.9251M121.914 69.3624L125.462 64.4903M121.914 69.3624L128.947 70.5879M121.914 69.3624C114.455 72.6801 105.257 74.65 95.6373 75.7076M55.6992 75.9251L59.8535 87.8025C60.2867 90.0905 62.9031 92.1393 69.9032 82.0296M55.6992 75.9251C61.8144 76.4216 68.7577 76.7537 75.9675 76.7361M75.9675 76.7361L79.3898 86.9794C79.8519 89.9173 82.578 93.0403 89.7861 82.0296M75.9675 76.7361C82.4447 76.7203 89.137 76.4223 95.6373 75.7076M95.6373 75.7076L101.357 86.8029C102.775 89.997 108.196 92.5838 118.534 77.3774M134.974 120.178L141.677 146.565M152.784 103.366C158.697 114.739 170.676 140.507 171.287 152.589C171.712 156.152 172.114 166.325 165.494 160.659C164.488 161.877 159.775 168.655 155.115 159.652C153.156 161.453 148.972 163.042 146.536 159.652M65.829 120.672C63.4403 129.722 60.3285 149.15 61.368 159.761C62.2288 164.937 64.2645 191.007 65.829 194.45M60.7281 199.575C69.1816 200.951 87.5437 202.877 93.3652 199.575C94.0169 195.719 97.1293 181.412 100.029 180.077C98.8137 179.009 95.8101 178.129 94.4601 177.822L118.315 177.523L125.255 194.776M121.705 199.575C129.037 200.69 144.476 202.251 147.568 199.575C149.25 194.776 150.577 186.764 151.904 183.421C153.232 180.077 155.296 167.42 154.633 164.323" stroke="black" stroke-width="3.5" stroke-linecap="round" stroke-linejoin="round"/>
<ellipse cx="97.3695" cy="141.506" rx="22.1019" ry="25.6607" fill="white"/>
<path d="M58.6302 108.693C49.8271 108.165 31.3759 106.369 27.9955 103.411C26.3053 102.566 22.3616 99.89 20.6009 98.6575C16.6425 96.3687 9.09358 93.1644 10.5655 98.6575C10.5655 100.77 7.92454 99.7138 7.39635 99.7138C6.86817 99.7138 4.75544 101.299 6.86817 103.411C7.92454 104.467 6.33999 105.524 3.69907 104.996C1.05815 104.467 2.11452 108.165 3.17089 108.693C4.22725 109.221 20.0728 126.651 59.6865 124.538" stroke="black" stroke-width="3.1691" stroke-linecap="round"/>
</svg>
