<svg width="1739" height="70" viewBox="0 0 1739 70" fill="none" xmlns="http://www.w3.org/2000/svg">
<rect x="0.264648" y="0.882812" width="32.0174" height="30" rx="10" fill="#DEBFA0"/>
<rect x="32.2822" y="39.1172" width="32.0174" height="30" rx="10" fill="#DEBFA0"/>
<rect x="71.0635" y="0.882812" width="32.0174" height="30" rx="10" fill="#DEBFA0"/>
<rect x="103.081" y="39.1172" width="32.0174" height="30" rx="10" fill="#DEBFA0"/>
<rect x="140.789" y="0.882812" width="32.0174" height="30" rx="10" fill="#DEBFA0"/>
<rect x="172.807" y="39.1172" width="32.0174" height="30" rx="10" fill="#ED972E"/>
<rect x="210.515" y="0.882812" width="32.0174" height="30" rx="10" fill="#DEBFA0"/>
<rect x="242.532" y="39.1172" width="32.0174" height="30" rx="10" fill="#DEBFA0"/>
<rect x="280.24" y="0.882812" width="32.0174" height="30" rx="10" fill="#DEBFA0"/>
<rect x="312.258" y="39.1172" width="32.0174" height="30" rx="10" fill="#BEC7B4"/>
<rect x="349.966" y="0.882812" width="32.0174" height="30" rx="10" fill="#DEBFA0"/>
<rect x="381.983" y="39.1172" width="32.0174" height="30" rx="10" fill="#DEBFA0"/>
<rect x="419.691" y="0.882812" width="32.0174" height="30" rx="10" fill="#BEC7B4"/>
<rect x="451.709" y="39.1172" width="32.0174" height="30" rx="10" fill="#ED972E"/>
<rect x="489.417" y="0.882812" width="32.0174" height="30" rx="10" fill="#ED972E"/>
<rect x="521.435" y="39.1172" width="32.0174" height="30" rx="10" fill="#DEBFA0"/>
<rect x="559.143" y="0.882812" width="32.0174" height="30" rx="10" fill="#DEBFA0"/>
<rect x="591.16" y="39.1172" width="32.0174" height="30" rx="10" fill="#ED972E"/>
<rect x="628.868" y="0.882812" width="32.0174" height="30" rx="10" fill="#BEC7B4"/>
<rect x="660.886" y="39.1172" width="32.0174" height="30" rx="10" fill="#DEBFA0"/>
<rect x="698.594" y="0.882812" width="32.0174" height="30" rx="10" fill="#DEBFA0"/>
<rect x="730.611" y="39.1172" width="32.0174" height="30" rx="10" fill="#DEBFA0"/>
<rect x="768.319" y="0.882812" width="32.0174" height="30" rx="10" fill="#DEBFA0"/>
<rect x="800.337" y="39.1172" width="32.0174" height="30" rx="10" fill="#DEBFA0"/>
<rect x="838.045" y="0.882812" width="32.0174" height="30" rx="10" fill="#ED972E"/>
<rect x="870.062" y="39.1172" width="32.0174" height="30" rx="10" fill="#DEBFA0"/>
<rect x="907.771" y="0.882812" width="32.0174" height="30" rx="10" fill="#BEC7B4"/>
<rect x="939.788" y="39.1172" width="32.0174" height="30" rx="10" fill="#DEBFA0"/>
<rect x="977.496" y="0.882812" width="32.0174" height="30" rx="10" fill="#DEBFA0"/>
<rect x="1009.51" y="39.1172" width="32.0174" height="30" rx="10" fill="#DEBFA0"/>
<rect x="1047.22" y="0.882812" width="32.0174" height="30" rx="10" fill="#DEBFA0"/>
<rect x="1079.24" y="39.1172" width="32.0174" height="30" rx="10" fill="#ED972E"/>
<rect x="1116.95" y="0.882812" width="32.0174" height="30" rx="10" fill="#DEBFA0"/>
<rect x="1148.96" y="39.1172" width="32.0174" height="30" rx="10" fill="#BEC7B4"/>
<rect x="1186.67" y="0.882812" width="32.0174" height="30" rx="10" fill="#DEBFA0"/>
<rect x="1218.69" y="39.1172" width="32.0174" height="30" rx="10" fill="#DEBFA0"/>
<rect x="1256.4" y="0.882812" width="32.0174" height="30" rx="10" fill="#ED972E"/>
<rect x="1288.42" y="39.1172" width="32.0174" height="30" rx="10" fill="#DEBFA0"/>
<rect x="1326.12" y="0.882812" width="32.0174" height="30" rx="10" fill="#DEBFA0"/>
<rect x="1358.14" y="39.1172" width="32.0174" height="30" rx="10" fill="#DEBFA0"/>
<rect x="1395.85" y="0.882812" width="32.0174" height="30" rx="10" fill="#DEBFA0"/>
<rect x="1427.87" y="39.1172" width="32.0174" height="30" rx="10" fill="#DEBFA0"/>
<rect x="1465.58" y="0.882812" width="32.0174" height="30" rx="10" fill="#ED972E"/>
<rect x="1497.59" y="39.1172" width="32.0174" height="30" rx="10" fill="#DEBFA0"/>
<rect x="1535.3" y="0.882812" width="32.0174" height="30" rx="10" fill="#BEC7B4"/>
<rect x="1567.32" y="39.1172" width="32.0174" height="30" rx="10" fill="#ED972E"/>
<rect x="1605.03" y="0.882812" width="32.0174" height="30" rx="10" fill="#DEBFA0"/>
<rect x="1637.04" y="39.1172" width="32.0174" height="30" rx="10" fill="#DEBFA0"/>
<rect x="1674.75" y="0.882812" width="32.0174" height="30" rx="10" fill="#DEBFA0"/>
<rect x="1706.77" y="39.1172" width="32.0174" height="30" rx="10" fill="#DEBFA0"/>
</svg>
