<svg width="34" height="34" viewBox="0 0 34 34" fill="none" xmlns="http://www.w3.org/2000/svg">
<path d="M31.5909 1.0919L32.5005 2.00148C33.7539 3.2564 33.5643 5.48102 32.0735 6.97027L13.316 25.7277L7.23877 27.9508C6.47565 28.2314 5.73256 27.8676 5.58148 27.1414C5.53059 26.878 5.55462 26.6056 5.65085 26.3552L7.9171 20.2255L26.6221 1.51894C28.1129 0.0296881 30.3376 -0.16302 31.5909 1.0919ZM12.4974 2.95731C12.6999 2.95731 12.9003 2.99719 13.0874 3.07467C13.2744 3.15214 13.4444 3.2657 13.5875 3.40886C13.7307 3.55201 13.8442 3.72197 13.9217 3.90901C13.9992 4.09605 14.0391 4.29653 14.0391 4.49898C14.0391 4.70143 13.9992 4.90191 13.9217 5.08895C13.8442 5.27599 13.7307 5.44595 13.5875 5.5891C13.4444 5.73226 13.2744 5.84582 13.0874 5.92329C12.9003 6.00077 12.6999 6.04065 12.4974 6.04065H6.33073C5.51298 6.04065 4.72872 6.3655 4.15048 6.94373C3.57225 7.52197 3.2474 8.30623 3.2474 9.12398V27.624C3.2474 28.4417 3.57225 29.226 4.15048 29.8042C4.72872 30.3825 5.51298 30.7073 6.33073 30.7073H24.8307C25.6485 30.7073 26.4327 30.3825 27.011 29.8042C27.5892 29.226 27.9141 28.4417 27.9141 27.624V21.4573C27.9141 21.0484 28.0765 20.6563 28.3656 20.3672C28.6547 20.0781 29.0469 19.9156 29.4557 19.9156C29.8646 19.9156 30.2567 20.0781 30.5459 20.3672C30.835 20.6563 30.9974 21.0484 30.9974 21.4573V27.624C30.9974 29.2595 30.3477 30.828 29.1912 31.9845C28.0347 33.1409 26.4662 33.7906 24.8307 33.7906H6.33073C4.69523 33.7906 3.12671 33.1409 1.97024 31.9845C0.813763 30.828 0.164063 29.2595 0.164062 27.624V9.12398C0.164063 7.48848 0.813763 5.91996 1.97024 4.76349C3.12671 3.60701 4.69523 2.95731 6.33073 2.95731H12.4974Z" fill="black"/>
</svg>
